<svg width="135" height="79" viewBox="0 0 135 79" fill="none" xmlns="http://www.w3.org/2000/svg">
<path d="M91.9863 9.30523C94.569 9.48754 98.812 10.2729 102.782 11.4058C104.772 11.9735 106.719 12.6365 108.373 13.3658C110 14.0832 111.448 14.9096 112.344 15.8462C115.302 18.9411 116.733 22.5603 117.415 24.2779C117.436 24.33 117.452 24.384 117.471 24.4371C120.919 24.8763 123.742 27.0717 126.008 28.7261C132.605 33.543 133.358 40.7467 134.067 46.5259C134.392 49.1746 133.581 52.119 131.568 57.2212L131.557 57.2515L131.543 57.2808C127.604 65.6483 124.413 71.8635 123.216 73.6285L123.206 73.6441L123.194 73.6587C122.968 73.9674 122.76 74.2253 122.519 74.4849C125.527 72.9545 128.299 71.1607 129 70.7291C129.469 70.4272 129.968 70.081 130.602 69.606C131.044 69.275 131.671 69.3653 132.002 69.8072C132.333 70.2492 132.243 70.8755 131.801 71.2066C131.127 71.711 130.585 72.0883 130.065 72.4224L130.057 72.4273L130.049 72.4322C129.147 72.9871 123.647 76.5777 119.265 78.0914L117.913 78.5582L117.938 77.1285C117.943 76.8576 117.981 76.5222 118.024 76.107C118.07 75.6695 118.13 75.0707 118.193 74.2046C118.32 72.47 118.462 69.6478 118.522 64.898C118.53 64.3458 118.983 63.9037 119.535 63.9107C120.087 63.9177 120.529 64.3712 120.522 64.9234C120.467 69.3209 120.338 72.0969 120.217 73.9029C120.932 73.2921 121.211 72.978 121.563 72.4996C122.656 70.8865 125.767 64.8512 129.719 56.4585C131.737 51.3379 132.337 48.8454 132.082 46.7691C131.358 40.8633 130.629 34.5771 124.828 30.3414C122.568 28.6914 120.308 26.9995 117.743 26.5025C117.739 26.6724 117.732 26.843 117.72 27.0132C117.648 27.9687 117.451 29.0156 117.228 30.0787C116.772 32.2406 114.765 33.2491 113.668 33.8296C112.877 34.2481 112.084 34.2924 111.373 34.1705C110.612 34.0398 109.822 33.64 109.279 32.8668C108.715 32.0621 108.563 31.1279 108.61 30.2662C108.657 29.4063 108.904 28.554 109.21 27.8209C109.939 26.0763 111.796 25.2303 113.565 24.733C114.162 24.5653 114.744 24.4603 115.311 24.4048C114.576 22.5987 113.273 19.7145 110.897 17.2291C110.284 16.5872 109.137 15.8883 107.566 15.1959C106.023 14.5153 104.168 13.8818 102.233 13.3296C98.3534 12.2225 94.2519 11.4692 91.8457 11.2994C91.295 11.2603 90.8801 10.7827 90.9189 10.232C90.9579 9.68129 91.4357 9.2666 91.9863 9.30523ZM115.746 26.3746C115.215 26.41 114.669 26.5007 114.106 26.6587C112.397 27.1394 111.397 27.7743 111.056 28.5923C110.808 29.1845 110.639 29.8079 110.607 30.3755C110.576 30.9414 110.686 31.3883 110.917 31.7183C111.105 31.9859 111.386 32.1428 111.711 32.1988C112.087 32.2632 112.413 32.2311 112.732 32.0621C114.006 31.3883 115.039 30.767 115.271 29.6666C115.492 28.613 115.664 27.6776 115.725 26.8648C115.738 26.6919 115.744 26.5284 115.746 26.3746Z" fill="white"/>
<path d="M3.798 6.478C3.798 8.332 5.688 9.538 8.262 9.538C10.836 9.538 12.708 8.332 12.708 6.478C12.708 4.624 10.836 3.418 8.262 3.418C5.688 3.418 3.798 4.624 3.798 6.478ZM9 14.038H15.606V15.262H0.936V14.038H7.506V10.672C4.5 10.456 2.376 8.854 2.376 6.478C2.376 3.904 4.842 2.248 8.262 2.248C11.664 2.248 14.112 3.904 14.112 6.478C14.112 8.854 12.006 10.456 9 10.672V14.038ZM29.0438 5.47V2.896H21.1238V5.47H29.0438ZM30.5018 1.726V6.64H19.6838V1.726H30.5018ZM32.3918 9.178H25.8218V10.762H30.5198V14.398H21.0338V16H31.0058V17.152H19.5938V13.318H29.0618V11.878H19.5398V10.762H24.3458V9.178H17.7758V7.99H32.3918V9.178ZM42.4794 12.796V11.59H53.2794V17.35H51.7854V12.796H42.4794ZM48.3474 7.18H51.7854V4.75H48.3474C48.4554 5.128 48.5274 5.524 48.5274 5.956C48.5274 6.406 48.4554 6.802 48.3474 7.18ZM44.3694 8.602C45.9534 8.602 47.1234 7.504 47.1234 5.956C47.1234 4.444 45.9534 3.346 44.3694 3.346C42.8034 3.346 41.6334 4.444 41.6334 5.956C41.6334 7.504 42.8034 8.602 44.3694 8.602ZM51.7854 1.204L53.2794 1.186V10.708H51.7854V8.386H47.6994C46.9434 9.304 45.7734 9.862 44.3694 9.862C41.9934 9.862 40.2294 8.242 40.2294 5.956C40.2294 3.688 41.9934 2.086 44.3694 2.086C45.7734 2.086 46.9614 2.644 47.7174 3.562H51.7854V1.204ZM68.1933 4.858V3.004H58.5453V1.816H69.6873V5.974H60.0753V7.954H70.0473V9.142H58.5993V4.858H68.1933ZM71.4513 10.816V12.004H67.6353V17.35H66.1593V12.004H62.0913V17.35H60.6153V12.004H56.7993V10.816H71.4513Z" fill="white"/>
</svg>
