<svg width="145" height="65" viewBox="0 0 145 65" fill="none" xmlns="http://www.w3.org/2000/svg">
<path d="M78.7511 46.9358V42.6878H74.1431V46.9358H78.7511ZM78.7511 41.5178V37.2518H80.1911V48.1418H72.6851V37.2518H74.1431V41.5178H78.7511ZM87.1211 42.2378V43.4798H84.4571V52.0118H82.9811V35.9018H84.4571V42.2378H87.1211ZM98.219 42.4178L98.381 43.6058C96.167 44.0558 94.259 44.1818 90.875 44.1818H89.615V37.0358H96.761V38.2238H91.091V42.9578C94.277 42.9578 96.113 42.8318 98.219 42.4178ZM90.911 47.4758V46.2698H101.405V52.0478H99.929V47.4758H90.911ZM103.799 39.9518V41.1758H101.405V45.3878H99.929V35.8838H101.405V39.9518H103.799ZM124.021 41.3018V42.5078H112.933V36.7118H114.427V41.3018H124.021ZM125.713 44.9378V46.1438H119.071V52.0298H117.595V46.1438H111.043V44.9378H125.713ZM141.796 42.0398L141.184 43.2278C138.682 42.7958 136.252 41.3918 135.208 39.4478C134.2 41.4098 131.77 42.7958 129.25 43.2278L128.656 42.0398C131.59 41.6078 134.434 39.6638 134.434 37.3598V36.4598H135.982V37.3598C135.982 39.6098 138.862 41.6078 141.796 42.0398ZM142.498 44.9738L142.516 46.1978H135.91V52.0478H134.434V46.1978H127.918V44.9738H142.498Z" fill="white"/>
<path d="M55.3676 48.5506C55.8688 48.3189 56.0877 47.7243 55.8562 47.2231C55.6244 46.722 55.0299 46.5029 54.5287 46.7345C53.5492 47.1873 52.6354 47.61 51.9924 47.8682C51.429 48.0943 51.1303 48.1806 49.9661 48.3133C46.7887 48.6204 42.7696 48.8811 38.2081 47.3584C35.3889 46.4173 31.8435 44.9507 29.9101 43.8631C27.2867 42.3873 25.7509 41.3218 24.7977 39.623C24.0565 38.3019 23.4107 37.0782 23.0688 35.9786C23.0577 35.943 23.0487 35.9068 23.0383 35.8718C24.3932 35.7937 25.7689 35.5738 27.0879 35.2756C30.1283 34.5882 31.7893 33.2863 32.3234 32.7704C32.7261 32.3813 32.9642 31.8736 33.1181 31.3883C33.2746 30.895 33.3705 30.3408 33.4382 29.7823C33.6208 28.2758 33.0749 27.1402 32.588 26.4786C31.8025 25.4115 30.4443 25.0305 29.1968 25.063C27.3081 25.1125 25.6796 26.5123 24.4517 27.9393C23.178 29.4194 22.1011 31.209 21.3505 32.5108C21.1003 32.9448 20.9524 33.3979 20.8792 33.8578C20.3273 33.8111 19.7979 33.7274 19.2991 33.6015C17.9425 33.2591 16.0746 32.4978 14.1571 30.8536C12.6365 29.5498 10.9977 28.1146 10.1214 26.071C9.48715 24.5916 9.23426 22.251 9.24737 19.9206C9.26047 17.5987 9.53456 15.5026 9.82371 14.5678C9.93617 14.2042 9.83103 13.8256 9.58206 13.5717C9.68652 13.4916 9.78404 13.4156 9.87787 13.3492C9.93371 13.3097 9.98589 13.2749 10.0336 13.2432C12.0564 16.1706 14.1546 18.2525 15.0294 19.0728C15.2149 19.2569 15.4157 19.4545 16.0524 20.08C16.4464 20.467 17.08 20.4613 17.467 20.0674C17.854 19.6734 17.8483 19.0398 17.4543 18.6528C16.7879 17.9981 16.6046 17.8189 16.4183 17.6338L16.4074 17.6241L16.3975 17.614C15.5272 16.7979 13.3192 14.6037 11.294 11.536L11.2377 11.4511L11.1652 11.3793C10.871 11.0862 10.5102 11.0264 10.2619 11.0343C10.0269 11.0419 9.81842 11.1088 9.66715 11.1695C9.35975 11.2929 9.03288 11.4972 8.72298 11.7165C8.08778 12.166 7.30677 12.8352 6.49913 13.5763C4.87383 15.0678 3.02505 16.956 1.79032 18.2492C1.40917 18.6485 1.42432 19.2812 1.82349 19.6626C2.22293 20.044 2.85598 20.0297 3.23738 19.6303C4.4041 18.4084 6.10244 16.6755 7.62191 15.2644C7.40379 16.5225 7.25688 18.1967 7.24724 19.91C7.23381 22.3011 7.47979 24.9852 8.28291 26.8587C9.36749 29.3883 11.3705 31.0993 12.855 32.3722C15.0351 34.2415 17.1908 35.132 18.809 35.5404C19.5015 35.7152 20.2278 35.8201 20.9725 35.8691C21.0245 36.1062 21.0874 36.3417 21.1592 36.5726C21.5718 37.8994 22.3193 39.2933 23.0534 40.6018C24.3073 42.8364 26.3098 44.1327 28.9298 45.6066C31.0166 46.7805 34.6935 48.2941 37.5754 49.2561C42.5601 50.9199 46.9349 50.6162 50.1753 50.3026L50.1835 50.3014L50.1923 50.3011C51.4691 50.1555 51.9556 50.0371 52.737 49.7235C53.4388 49.4417 54.4079 48.9942 55.3676 48.5506ZM30.9342 31.3322C30.6452 31.6113 29.3061 32.7226 26.6467 33.3239C25.3869 33.6087 24.1262 33.8057 22.9241 33.8752C22.9653 33.7451 23.0175 33.623 23.0829 33.5095C23.8277 32.2177 24.8266 30.5702 25.9681 29.2436C27.1549 27.8645 28.2821 27.0877 29.249 27.0622C30.1427 27.0389 30.7288 27.3264 30.9773 27.6637C31.2469 28.0301 31.5586 28.6664 31.4526 29.5413C31.3913 30.047 31.3136 30.4618 31.2114 30.7839C31.1069 31.1135 31.0005 31.268 30.9342 31.3322Z" fill="white"/>
</svg>
