<svg width="125" height="62" viewBox="0 0 125 62" fill="none" xmlns="http://www.w3.org/2000/svg">
<path d="M37.2637 11.0046C37.8134 10.9519 38.3017 11.3544 38.3545 11.9041C38.4073 12.4538 38.0048 12.9421 37.4551 12.9949C30.6902 13.6443 22.4547 16.2013 18.5254 18.6043C13.7528 21.5231 11.8779 26.3831 10.1465 31.2244C8.8898 34.7386 8.5664 39.3602 8.44146 43.9031C8.82209 47.3695 10.1401 51.4717 11.9639 55.8279C12.5056 57.0181 12.9265 57.7792 13.4336 58.6511C13.7824 57.4516 13.9913 56.3339 14.1905 55.158C14.4335 53.7231 14.669 52.1862 15.1504 50.4011L15.1612 50.3591L15.1768 50.3181C15.6981 48.8936 16.5458 46.8136 17.627 44.363C17.8499 43.8579 18.4402 43.6288 18.9454 43.8513C19.4505 44.0742 19.6797 44.6645 19.4571 45.1697C18.3963 47.5739 17.5721 49.5954 17.0694 50.9646C16.626 52.6188 16.4086 54.0371 16.1622 55.4919C15.9147 56.953 15.6399 58.4365 15.0733 60.116L15.003 60.324L14.8536 60.4832C14.6385 60.711 14.3975 60.8729 14.1417 60.9773C14.0597 61.1003 13.9499 61.2075 13.8135 61.2869C13.3376 61.5636 12.7281 61.4035 12.4493 60.9294C12.3912 60.9081 12.3354 60.8886 12.2842 60.8679C11.9152 60.7184 11.213 60.304 10.4034 59.8015C9.55562 59.2754 8.49204 58.5896 7.34478 57.8367C5.04887 56.33 2.39857 54.5398 0.431692 53.1814C-0.0222484 52.8676 -0.136573 52.245 0.176809 51.7908C0.490605 51.3364 1.11399 51.2223 1.56841 51.5359C3.52345 52.8861 6.16074 54.6674 8.44243 56.1648C9.20069 56.6624 9.91929 57.1253 10.5577 57.532C10.4217 57.2543 10.2804 56.9565 10.1319 56.6296L10.1251 56.616L10.1202 56.6023C8.25832 52.1556 6.84716 47.8177 6.44536 44.0496L6.43853 43.9832L6.4395 43.9168C6.56268 39.3674 6.88059 34.4195 8.26372 30.5515C9.97387 25.7695 12.0341 20.2303 17.4825 16.8982C21.7366 14.2966 30.2848 11.6747 37.2637 11.0046Z" fill="white"/>
<path d="M61.504 6.154H64.762V1.204H66.256V13.246H64.762V7.378H61.504V6.154ZM62.494 9.808L61.774 10.978C59.92 10.366 58.48 9.088 57.742 7.45C57.058 9.232 55.618 10.6 53.728 11.266L52.99 10.114C55.384 9.304 56.986 7.288 56.986 5.038V4.534H53.404V3.346H56.986V1.276H58.462V3.346H62.026V4.534H58.462V5.038C58.462 7.18 60.1 9.052 62.494 9.808ZM57.418 15.766H66.706V16.972H55.924V12.166H57.418V15.766ZM79.1538 8.998L78.4518 10.15C76.6158 9.556 75.2298 8.278 74.5458 6.676C73.8618 8.512 72.4038 9.952 70.4778 10.636L69.7218 9.466C72.1518 8.62 73.7718 6.532 73.7718 4.21V3.58H70.1538V2.392H78.8118V3.58H75.2478V4.21C75.2478 6.316 76.7778 8.206 79.1538 8.998ZM77.1918 16.144C79.5678 16.144 81.0258 15.478 81.0258 14.326C81.0258 13.192 79.5678 12.526 77.1918 12.526C74.7798 12.526 73.3398 13.192 73.3398 14.326C73.3398 15.478 74.7798 16.144 77.1918 16.144ZM77.1918 11.356C80.4678 11.356 82.5018 12.454 82.5018 14.326C82.5018 16.216 80.4678 17.314 77.1918 17.314C73.8798 17.314 71.8638 16.216 71.8638 14.326C71.8638 12.454 73.8798 11.356 77.1918 11.356ZM82.3218 5.272H84.7158V6.514H82.3218V10.942H80.8458V1.204H82.3218V5.272ZM104.937 6.604V7.81H93.8494V2.014H95.3434V6.604H104.937ZM106.629 10.24V11.446H99.9874V17.332H98.5114V11.446H91.9594V10.24H106.629ZM122.713 7.342L122.101 8.53C119.599 8.098 117.169 6.694 116.125 4.75C115.117 6.712 112.687 8.098 110.167 8.53L109.573 7.342C112.507 6.91 115.351 4.966 115.351 2.662V1.762H116.899V2.662C116.899 4.912 119.779 6.91 122.713 7.342ZM123.415 10.276L123.433 11.5H116.827V17.35H115.351V11.5H108.835V10.276H123.415Z" fill="white"/>
</svg>
