<svg width="128" height="72" viewBox="0 0 128 72" fill="none" xmlns="http://www.w3.org/2000/svg">
<path d="M41.7733 34.3015C42.325 34.289 42.7826 34.7264 42.7958 35.2781C42.8069 35.7521 42.6826 36.4157 42.4501 37.2185C42.2099 38.0478 41.8303 39.1071 41.2753 40.4041C40.1645 42.9996 38.3332 46.587 35.455 51.2595C32.7692 55.6195 29.6017 57.6926 26.4716 59.742L26.4403 59.7625L26.4071 59.781C20.583 62.9897 15.0359 65.5426 10.83 66.5115L10.8007 66.5183L10.7704 66.5232C8.49139 66.9033 5.70323 67.1104 2.96473 67.4148C3.2055 67.5661 3.48779 67.7197 3.81043 67.8738C4.53575 68.2201 5.37139 68.5288 6.20301 68.8191C6.96241 69.0843 7.7503 69.3458 8.37 69.5906C9.09191 69.7151 9.69521 69.818 10.243 69.9236C10.4865 69.9609 10.7394 69.9801 11.0477 70.0027C11.5982 70.0431 12.0124 70.5226 11.9725 71.073C11.9322 71.6237 11.4529 72.038 10.9022 71.9978C10.6072 71.9762 10.274 71.9517 9.93836 71.9002L9.8993 71.8943C9.34452 71.7867 8.73262 71.6835 7.93543 71.5457L7.82996 71.5281L7.73035 71.4871C7.15674 71.2543 6.41 71.0092 5.54383 70.7068C4.70333 70.4133 3.77909 70.0752 2.94812 69.6785C2.13478 69.2901 1.31133 68.8006 0.745975 68.1648C0.140205 67.4832 -0.208093 66.5729 0.135624 65.5261L0.176639 65.4129C0.39758 64.8635 0.834267 64.5385 1.12586 64.3367C1.49897 64.0784 1.76116 63.9358 2.09851 63.6531C4.39185 61.7313 6.17081 58.5705 6.8368 57.1424C7.07037 56.6422 7.66556 56.4257 8.1659 56.659C8.66629 56.8923 8.88237 57.4876 8.6493 57.9881C7.9408 59.5073 6.0114 62.9836 3.38269 65.1863C3.29873 65.2566 3.21102 65.3222 3.12586 65.3865C5.81681 65.0952 8.2958 64.905 10.4061 64.5554C14.3162 63.6495 19.6361 61.224 25.41 58.0447C28.509 56.0156 31.3278 54.1475 33.7528 50.2107C36.5926 45.6005 38.3732 42.1014 39.4364 39.617C39.9681 38.3744 40.3171 37.3939 40.5292 36.6619C40.7487 35.9038 40.8004 35.4819 40.7968 35.325C40.7841 34.773 41.2213 34.3145 41.7733 34.3015Z" fill="white"/>
<path d="M32.3411 7.198V3.274H24.3311V7.198H32.3411ZM33.7991 2.086V8.368H22.8911V2.086H33.7991ZM35.6711 10.564V11.752H29.0471V17.314H27.5711V11.752H21.0191V10.564H35.6711ZM40.2349 2.986V12.22C42.6289 12.202 44.8249 12.04 47.2009 11.554L47.3989 12.814C44.8429 13.3 42.5749 13.462 40.0189 13.462H38.7589V2.986H40.2349ZM49.7029 1.186H51.1789V17.368H49.7029V7.738H44.7529V6.514H49.7029V1.186ZM67.9648 1.204V13.012H66.4888V1.204H67.9648ZM64.5808 9.538L63.8608 10.708C62.0068 10.06 60.5308 8.728 59.7928 7.036C59.1088 8.872 57.6148 10.33 55.7068 11.014L54.9328 9.862C57.3808 9.016 59.0188 6.91 59.0188 4.606V3.724H55.3288V2.536H64.1848V3.724H60.5308V4.606C60.5308 6.784 62.2048 8.746 64.5808 9.538ZM59.0548 15.766H68.4508V16.972H57.5788V11.896H59.0548V15.766ZM85.5224 5.38H88.7084V1.204H90.2024V10.816H88.7084V6.586H85.5224V5.38ZM86.4224 9.052L85.6844 10.204C83.8844 9.556 82.4984 8.224 81.7964 6.568C81.1124 8.44 79.6184 9.952 77.7284 10.672L76.9544 9.502C79.3664 8.62 81.0224 6.442 81.0224 4.12V3.562H77.4224V2.374H86.0444V3.562H82.4984V4.12C82.4984 6.19 84.0824 8.224 86.4224 9.052ZM84.8744 16.18C87.3044 16.18 88.7804 15.496 88.7804 14.326C88.7804 13.156 87.3044 12.454 84.8744 12.454C82.4444 12.454 80.9684 13.156 80.9684 14.326C80.9684 15.496 82.4444 16.18 84.8744 16.18ZM84.8744 11.32C88.1864 11.32 90.2564 12.418 90.2564 14.326C90.2564 16.234 88.1864 17.332 84.8744 17.332C81.5624 17.332 79.4924 16.234 79.4924 14.326C79.4924 12.418 81.5624 11.32 84.8744 11.32ZM103.478 3.148V4.318H93.8302V3.148H97.9342V1.204H99.4102V3.148H103.478ZM96.2602 8.26C96.2602 9.376 97.2322 10.096 98.6722 10.096C100.112 10.096 101.084 9.376 101.084 8.26C101.084 7.144 100.112 6.406 98.6722 6.406C97.2322 6.406 96.2602 7.144 96.2602 8.26ZM99.4102 11.212V12.922C100.868 12.85 102.362 12.742 103.748 12.526L103.838 13.624C100.382 14.236 96.5842 14.272 93.7582 14.272L93.5602 13.03C94.8562 13.03 96.3682 13.03 97.9342 12.976V11.212C96.0802 10.978 94.8562 9.862 94.8562 8.26C94.8562 6.442 96.4222 5.272 98.6722 5.272C100.922 5.272 102.488 6.442 102.488 8.26C102.488 9.862 101.264 10.978 99.4102 11.212ZM108.698 8.044V9.286H106.178V17.332H104.702V1.186H106.178V8.044H108.698ZM111.912 10.708L111.282 9.502C114.072 9.034 117.132 6.784 117.132 4.21V3.868H111.786V2.662H124.008V3.868H118.662V4.21C118.662 6.784 121.74 8.998 124.548 9.448L123.954 10.636C121.488 10.15 118.932 8.566 117.906 6.352C116.88 8.584 114.342 10.186 111.912 10.708ZM118.644 14.038H125.232V15.262H110.58V14.038H117.168V10.132H118.644V14.038Z" fill="white"/>
</svg>
