<svg width="415" height="373" viewBox="0 0 415 373" fill="none" xmlns="http://www.w3.org/2000/svg">
<g clip-path="url(#clip0_16_15)">
<path fill-rule="evenodd" clip-rule="evenodd" d="M0 0H392.813C392.813 0 396.228 277.906 396.228 295.35C396.228 312.793 382.082 326.933 364.633 326.933L31.5958 372.175C14.1459 372.175 0 358.035 0 340.592C0 323.148 0 0 0 0Z" fill="#FFF955"/>
<path d="M0 0H392.813M0 0V340.592M0 0C0 0 0 323.148 0 340.592M392.813 0L396.228 295.35M392.813 0C392.813 0 396.228 277.906 396.228 295.35M396.228 295.35C396.228 312.793 382.082 326.933 364.633 326.933L31.5958 372.175C14.1459 372.175 0 358.035 0 340.592" stroke="#FCEA26" stroke-width="8"/>
<path fill-rule="evenodd" clip-rule="evenodd" d="M29.8882 373.029L379.15 322.665C379.15 322.665 416 318.465 415.016 297.911L69.1695 284.253L64.8998 343.152C64.8998 343.152 63.6493 367.475 29.8882 373.029Z" fill="#FFF955" stroke="#FCEA26" stroke-width="8"/>
<path d="M104.525 110.147H104.285C102.877 109.572 101.677 109.284 100.685 109.284L81.7726 109.044C79.9486 109.332 78.8766 109.476 78.5566 109.476C77.3086 109.476 76.3806 108.548 75.7726 106.693L75.7726 106.261C75.7726 105.269 76.3966 104.774 77.6446 104.774C79.5966 104.901 80.7326 105.045 81.0526 105.205C81.6926 104.981 82.0126 104.774 82.0126 104.582C82.1726 101.415 82.2526 99.0477 82.2526 97.4803C82.2526 97.0005 82.0126 95.705 81.5326 93.5938C81.6606 92.4422 82.0446 91.8665 82.6846 91.8665C85.6286 92.1863 87.1006 92.8421 87.1006 93.8337C87.1006 94.1536 87.0206 94.4415 86.8606 94.6974C87.0206 96.6806 87.1006 98.5679 87.1006 100.359C87.1006 101.031 87.1646 101.495 87.2926 101.751C87.1646 102.007 87.1006 102.726 87.1006 103.91C87.1006 104.774 87.8846 105.205 89.4526 105.205C90.0606 104.15 90.3646 103.222 90.3646 102.422C90.3646 99.6715 90.2046 97.2244 89.8846 95.0812C90.2046 93.8017 90.8926 93.162 91.9486 93.162C94.0926 93.7058 95.1646 94.5694 95.1646 95.753C95.1646 96.0729 95.1006 96.3607 94.9726 96.6166C95.1006 98.4719 95.1646 100.039 95.1646 101.319C95.1646 102.214 95.1006 103.51 94.9726 105.205C95.8366 105.333 96.6686 105.397 97.4686 105.397C98.5246 105.397 99.0526 105.333 99.0526 105.205C99.2126 105.205 99.2926 105.269 99.2926 105.397C99.4526 105.397 99.6766 105.333 99.9646 105.205L101.117 105.397C101.565 105.397 102.317 105.253 103.373 104.965C105.005 104.965 105.997 105.765 106.349 107.365C106.349 108.644 105.741 109.572 104.525 110.147ZM90.1246 90.2351L90.1246 89.9952C89.0366 90.1551 88.3326 90.2351 88.0126 90.2351C84.8766 90.2351 82.6526 88.6997 81.3406 85.6289L81.3406 83.0858C81.3406 81.0386 82.8766 78.4956 85.9486 75.4568L87.5806 75.0249H88.7326C91.7406 75.0249 93.8046 77.1681 94.9246 81.4545L94.9246 83.0858C94.9246 85.6449 93.6286 87.7241 91.0366 89.3234C90.8126 89.3234 90.5726 89.5474 90.3166 89.9952L90.1246 90.2351ZM87.3406 86.3006C90.0926 85.6928 91.4686 84.3174 91.4686 82.1742L91.4686 81.4545C91.4686 80.3669 90.6206 79.2953 88.9246 78.2397C87.2286 78.2397 86.3806 79.0874 86.3806 80.7827C85.4846 81.6464 85.0366 82.798 85.0366 84.2374C85.5486 85.6129 86.3166 86.3006 87.3406 86.3006ZM145.616 95.2252C145.616 94.4575 142.832 94.0736 137.264 94.0736C135.28 94.0736 132.832 93.9937 129.92 93.8337C129.12 93.9937 128.192 94.0736 127.136 94.0736C126.88 93.9137 126.576 93.8337 126.224 93.8337L126.224 94.0736L125.744 93.8337C123.28 93.9937 121.904 94.0736 121.616 94.0736C121.072 93.9137 120.768 93.8337 120.704 93.8337C120.384 93.9937 120.144 94.0736 119.984 94.0736L118.4 93.8337C117.568 93.9937 116.8 94.0736 116.096 94.0736C115.936 94.0736 115.856 93.9937 115.856 93.8337L114.704 94.0736H112.4C110.544 94.0736 109.616 92.9221 109.616 90.6189C109.808 89.5314 110.352 88.9876 111.248 88.9876C112.56 88.9876 113.632 89.1475 114.464 89.4674C114.624 89.4674 114.704 89.3874 114.704 89.2275C116.24 89.3874 117.776 89.4674 119.312 89.4674C119.632 89.4674 119.792 89.3075 119.792 88.9876C119.152 88.7317 118.832 88.1879 118.832 87.3562L118.832 85.7728C124.4 81.1666 127.328 78.6236 127.616 78.1437L127.616 77.472C127.264 77.472 126.96 77.392 126.704 77.2321C124.752 77.7119 123.664 77.9518 123.44 77.9518C121.936 77.9518 120.864 76.8642 120.224 74.6891C120.384 73.1856 121.088 72.4339 122.336 72.4339C123.136 72.4339 124.352 72.5779 125.984 72.8658C127.872 72.8658 130.032 72.4819 132.464 71.7142C133.968 71.7142 135.04 72.6419 135.68 74.4971C135.36 75.9046 134.592 77.2001 133.376 78.3837L133.376 78.8635C133.408 80.079 134.944 82.2222 137.984 85.293C138.368 85.8048 138.672 86.4286 138.896 87.1643C138.896 87.836 138.352 88.4438 137.264 88.9876C135.6 88.5717 133.072 86.4925 129.68 82.75H129.2C124.912 86.1407 122.304 88.2998 121.376 89.2275L121.856 89.4674C128.224 89.6273 133.184 89.7073 136.736 89.7073C137.344 89.7073 138.064 89.7713 138.896 89.8992L139.376 89.7073C139.824 89.7073 140.352 89.7713 140.96 89.8992C143.296 89.7713 145.6 89.7073 147.872 89.7073C149.152 89.7073 150.32 90.475 151.376 92.0104C151.376 93.8337 149.456 94.9053 145.616 95.2252ZM124.592 113.41C122.288 112.802 121.136 111.667 121.136 110.003L120.896 108.804C121.152 107.972 121.472 107.365 121.856 106.981L121.616 106.549L121.616 104.678C121.616 99.5915 122.224 97.0485 123.44 97.0485H124.592L126.224 98.2C129.008 98.2 130.704 98.1361 131.312 98.0081C131.888 98.1361 133.184 98.2 135.2 98.2L136.592 98.0081C138.736 98.9677 139.808 100.119 139.808 101.463C139.424 102.454 139.04 104.981 138.656 109.044C139.136 109.908 139.376 110.531 139.376 110.915C139.376 112.291 135.376 112.978 127.376 112.978H125.744C125.264 113.266 124.88 113.41 124.592 113.41ZM133.136 108.132C133.904 108.132 134.288 106.437 134.288 103.046L133.136 102.854C128.528 103.046 126.224 103.43 126.224 104.006L125.984 105.349L125.984 107.652C126.048 107.972 126.208 108.132 126.464 108.132H133.136ZM193.679 107.077C192.303 106.629 191.615 105.797 191.615 104.582C191.615 104.038 191.535 103.638 191.375 103.382C191.983 100.183 193.055 92.0424 194.591 78.9594L194.351 78.5276L194.591 75.7447C194.591 74.7211 194.447 73.4895 194.159 72.0501C194.383 70.1948 195.071 69.2672 196.223 69.2672H196.655C198.671 69.779 199.679 70.7866 199.679 72.29C199.359 77.376 198.975 81.6784 198.527 85.197C198.527 85.9647 200.527 86.3486 204.527 86.3486C206.223 87.1163 207.071 87.964 207.071 88.8916L207.071 90.2831C206.303 91.3387 205.455 91.8665 204.527 91.8665L201.983 90.523C199.039 90.523 197.567 91.0508 197.567 92.1064L195.743 105.925C194.943 106.693 194.255 107.077 193.679 107.077ZM175.007 94.1696C174.559 94.1376 173.791 93.4499 172.703 92.1064H170.591C169.791 92.1064 169.263 90.7309 169.007 87.98L169.247 86.3486C169.247 83.2458 169.167 80.3349 169.007 77.6159C169.295 76.6243 169.679 76.0805 170.159 75.9846L173.135 76.2245C173.967 76.0645 174.431 75.9846 174.527 75.9846C175.103 76.4324 177.327 76.7363 181.199 76.8962C182.895 77.376 183.743 78.9914 183.743 81.7424C183.903 82.1582 184.143 83.4697 184.463 85.6768C184.463 91.2107 182.623 93.9777 178.943 93.9777C178.271 94.1056 176.959 94.1696 175.007 94.1696ZM177.743 89.5634C178.255 89.5634 178.879 88.4918 179.615 86.3486C179.295 82.9899 178.607 81.3105 177.551 81.3105L175.439 81.5025L174.287 81.3105C173.999 83.0698 173.855 85.5969 173.855 88.8916C173.855 89.3394 174.703 89.5634 176.399 89.5634H177.743ZM180.095 115.857C176.703 114.706 175.007 112.93 175.007 110.531C174.847 109.348 174.767 108.132 174.767 106.885C174.767 104.869 175.615 102.95 177.311 101.127C178.079 100.647 178.847 100.407 179.615 100.407C181.375 100.887 183.103 101.367 184.799 101.847C186.527 102.294 187.871 103.43 188.831 105.253C188.831 105.413 188.991 106.021 189.311 107.077L189.311 107.796C188.671 111.027 187.743 113.17 186.527 114.226C184.799 115.313 182.655 115.857 180.095 115.857ZM180.767 111.251C182.751 111.251 184.063 109.796 184.703 106.885C184.383 105.797 183.759 105.253 182.831 105.253H182.351C180.367 105.253 179.375 106.565 179.375 109.188C179.375 109.988 179.839 110.675 180.767 111.251ZM239.871 104.582C239.071 104.582 238.607 104.342 238.479 103.862L238.479 103.382C239.087 98.2 239.935 93.066 241.023 87.98L241.023 86.8284C241.023 86.6045 240.799 86.3646 240.351 86.1087C236.127 86.7164 233.279 87.0203 231.807 87.0203C230.559 86.8284 229.935 86.5245 229.935 86.1087C229.935 84.1254 230.639 83.1338 232.047 83.1338C234.799 83.1338 236.175 83.0539 236.175 82.8939L236.655 83.1338H237.567C240.319 83.1338 241.695 82.67 241.695 81.7424L242.415 75.2648L242.175 74.833C242.783 72.6898 243.631 71.6183 244.719 71.6183C245.199 71.6183 245.743 72.146 246.351 73.2016C245.551 78.0638 245.151 81.3745 245.151 83.1338L245.391 83.5657C244.463 85.7088 243.471 92.2343 242.415 103.142C241.327 104.102 240.479 104.582 239.871 104.582ZM220.527 82.8939C218.351 82.574 217.263 81.5664 217.263 79.8711L217.263 78.0478C217.263 76.4164 219.103 75.0409 222.783 73.9214H223.983C227.055 74.6251 228.591 75.6967 228.591 77.1361L228.591 77.6159C228.591 80.2709 225.903 82.0303 220.527 82.8939ZM222.351 79.4392C224.047 79.0554 224.895 78.6715 224.895 78.2877L224.895 77.8079C224.383 76.8802 223.775 76.4164 223.071 76.4164C221.823 76.9602 221.199 77.6639 221.199 78.5276C221.263 78.8475 221.647 79.1514 222.351 79.4392ZM218.655 101.799C217.855 101.799 217.327 101.255 217.071 100.167L218.655 94.8893L218.655 94.4095C218.655 94.1216 218.495 93.9777 218.175 93.9777H214.959L213.567 94.1696C211.423 93.4339 210.351 92.8261 210.351 92.3463L210.351 91.1947C210.799 90.2671 211.343 89.8033 211.983 89.8033C216.527 90.2511 218.975 90.475 219.327 90.475C220.511 90.3471 221.279 90.2031 221.631 90.0432L222.111 90.2831C223.807 90.1231 225.263 90.0432 226.479 90.0432C229.263 90.0432 230.655 90.507 230.655 91.4346L230.655 92.1064L229.503 93.4978C227.423 93.3379 225.503 93.2579 223.743 93.2579C223.295 93.2579 222.143 95.9449 220.287 101.319L218.655 101.799ZM230.655 113.554L224.655 113.074C224.431 113.234 223.967 113.314 223.263 113.314C221.439 113.314 220.367 112.467 220.047 110.771C220.047 110.323 220.127 109.556 220.287 108.468L220.047 105.685C220.047 104.885 220.431 104.278 221.199 103.862H222.351C223.215 103.862 223.823 105.317 224.175 108.228C224.751 108.708 225.295 108.948 225.807 108.948H227.679L231.135 108.468C231.807 108.724 232.415 109.268 232.959 110.099L232.959 111.491C232.959 112.483 232.191 113.17 230.655 113.554ZM276.368 99.0157C274.096 98.1521 268.72 97.5443 260.24 97.1924L258.848 96.9525C255.872 97.1125 253.648 97.3364 252.176 97.6243C250.48 97.6243 249.632 96.9365 249.632 95.561L249.632 94.8893C249.824 93.3539 250.128 92.5862 250.544 92.5862C254.672 92.7461 257.216 92.8261 258.176 92.8261L259.088 92.5862C259.344 92.7461 259.728 92.8261 260.24 92.8261C261.456 92.8261 262.064 91.6745 262.064 89.3714C262.384 89.3714 262.544 88.4438 262.544 86.5885C262.544 86.3006 262.384 86.1567 262.064 86.1567C261.264 86.1567 260.736 86.2206 260.48 86.3486C257.408 86.1247 255.872 85.0531 255.872 83.1338C255.872 82.2702 255.792 81.4225 255.632 80.5908C255.952 79.3753 256.112 78.4476 256.112 77.8079C255.568 76.5923 255.248 75.9846 255.152 75.9846C255.152 73.5215 255.776 72.29 257.024 72.29C257.984 72.0021 258.592 71.8582 258.848 71.8582C259.872 72.306 260.608 72.5299 261.056 72.5299C262.112 72.5299 264.992 72.226 269.696 71.6183C271.232 72.5779 272 73.4895 272 74.3532C271.232 75.6007 270.464 76.2245 269.696 76.2245L265.088 76.7043L265.088 76.4644L264.608 76.7043H263.696C261.392 76.7043 260.24 77.1681 260.24 78.0958C260.08 78.8955 260 79.5832 260 80.159C260 81.0546 260.464 81.5025 261.392 81.5025C261.744 81.5025 264.656 81.1186 270.128 80.3509H272.672C272.864 80.3509 273.568 81.0386 274.784 82.4141C274.784 84.1095 274.08 84.9571 272.672 84.9571H270.128C267.856 84.9571 266.72 85.9647 266.72 87.98C266.72 88.7477 266.32 90.363 265.52 92.8261C266.32 93.114 267.712 93.2579 269.696 93.2579C271.52 93.2579 272.432 93.3379 272.432 93.4978C272.592 93.4978 272.672 93.4179 272.672 93.2579C275.968 93.2579 278.048 93.9617 278.912 95.3691L279.392 96.0409C278.848 98.0241 277.84 99.0157 276.368 99.0157ZM263.936 113.554H262.976C261.856 113.554 260.624 113.01 259.28 111.923C258.768 111.347 258.32 109.892 257.936 107.556C258.256 104.774 259.248 102.31 260.912 100.167L261.824 99.7354C263.392 100.503 264.32 100.887 264.608 100.887L265.52 100.647C269.84 101.127 272 102.966 272 106.165L272 108.228C272 109.572 271.296 110.723 269.888 111.683C269.28 112.93 267.296 113.554 263.936 113.554ZM263.936 108.948C266.176 108.948 267.552 108.26 268.064 106.885C267.776 106.117 267.168 105.733 266.24 105.733C265.856 105.733 264.704 105.813 262.784 105.973L262.544 107.556C262.544 107.716 262.624 108.18 262.784 108.948H263.936ZM316.807 112.259C315.431 112.259 314.663 111.107 314.503 108.804C314.823 106.405 315.127 101.271 315.415 93.4019C315.415 93.2419 315.495 92.6982 315.655 91.7705L315.415 91.3387C315.735 87.98 315.895 84.2054 315.895 80.015C315.575 78.6396 315.271 77.9518 314.983 77.9518C313.127 92.8581 312.199 101.159 312.199 102.854C311.783 103.654 311.015 104.262 309.895 104.678C308.743 104.678 308.055 103.686 307.831 101.703C308.279 99.0157 308.727 95.2572 309.175 90.427L308.023 90.1391L301.351 91.0988C299.655 90.7149 298.807 89.8672 298.807 88.5557L298.807 87.884C298.807 86.9883 299.351 86.4446 300.439 86.2526C300.791 86.2526 301.943 86.3326 303.895 86.4925C306.423 86.3326 308.343 86.2526 309.655 86.2526C310.103 84.3014 310.327 82.5261 310.327 80.9267C310.327 79.6792 310.407 78.9114 310.567 78.6236C310.407 78.3677 310.327 78.0638 310.327 77.7119C310.327 77.2641 310.407 77.0402 310.567 77.0402L310.327 75.8886L310.327 74.0173C310.711 73.2496 311.415 72.8658 312.439 72.8658C314.135 72.9937 314.983 73.6815 314.983 74.929H315.415L316.087 74.4971H317.719C318.871 74.4971 319.719 75.3448 320.263 77.0402L320.023 77.472C320.023 79.1673 320.103 80.015 320.263 80.015L320.023 80.4948L320.023 81.1666C319.543 95.785 319.303 104.086 319.303 106.069C319.303 107.093 319.383 108.404 319.543 110.003C318.967 111.507 318.055 112.259 316.807 112.259ZM287.527 97.2884H286.135C283.831 97.2884 282.679 95.5291 282.679 92.0104C282.679 89.5474 284.215 86.1727 287.287 81.8863C288.247 81.5664 288.871 81.4065 289.159 81.4065C292.039 81.4065 294.103 83.1658 295.351 86.6845C295.671 87.932 295.831 88.7157 295.831 89.0356C295.831 90.7309 294.519 92.7941 291.895 95.2252C289.943 96.6006 288.487 97.2884 287.527 97.2884ZM287.527 93.162C289.383 92.4582 290.839 91.2267 291.895 89.4674L291.895 89.0356C291.671 87.3402 291.287 86.4925 290.743 86.4925C288.855 86.4925 287.543 88.0279 286.807 91.0988L286.807 92.0104C286.807 92.3943 287.047 92.7781 287.527 93.162ZM135.667 149.956C134.451 148.997 133.843 147.237 133.843 144.678C133.075 141 132.691 138.888 132.691 138.345C132.691 137.737 132.915 137.161 133.363 136.617L135.475 136.809L143.971 135.658C146.627 135.658 148.627 136.825 149.971 139.16C150.259 140.152 150.403 141.064 150.403 141.895C149.667 144.07 149.299 145.222 149.299 145.35C149.747 145.926 149.971 146.469 149.971 146.981C149.971 147.781 149.427 148.389 148.339 148.805L146.755 148.565C146.467 148.725 146.227 148.805 146.035 148.805C145.907 148.805 145.843 148.725 145.843 148.565C139.827 149.492 136.435 149.956 135.667 149.956ZM137.971 145.35C140.243 145.03 142.403 144.87 144.451 144.87C145.315 144.87 145.843 144.422 146.035 143.527L145.843 143.047C145.971 142.215 146.035 141.607 146.035 141.223C145.843 140.456 145.315 140.072 144.451 140.072C139.683 140.072 137.299 140.68 137.299 141.895C137.299 144.198 137.523 145.35 137.971 145.35ZM148.147 173.467C147.059 173.467 146.211 172.316 145.603 170.012C145.603 169.852 145.683 169.773 145.843 169.773C145.619 167.309 145.459 165.934 145.363 165.646C145.523 164.814 145.603 163.423 145.603 161.472C145.603 160.672 145.363 160.208 144.883 160.08C139.731 160.08 136.739 160.16 135.907 160.32C135.747 160.32 135.667 160.24 135.667 160.08C133.587 160.24 132.051 160.32 131.059 160.32C127.059 160.32 125.059 160.24 125.059 160.08L124.627 160.32C122.323 160.32 121.171 159.488 121.171 157.825L121.171 156.865L122.755 156.434C133.923 156.434 140.307 156.274 141.907 155.954L142.339 156.194L143.299 155.954C143.683 155.954 144.291 156.034 145.123 156.194C151.555 155.714 155.555 155.25 157.123 154.802C159.267 155.346 160.339 156.194 160.339 157.345C160.339 158.081 159.731 158.769 158.515 159.409C157.971 159.409 157.267 159.329 156.403 159.169C152.115 159.169 149.971 159.552 149.971 160.32C149.683 161.728 149.459 162.431 149.299 162.431C149.587 167.006 150.051 169.996 150.691 171.404C150.691 172.172 149.843 172.859 148.147 173.467ZM191.721 149.716H191.481C188.409 146.038 185.641 144.198 183.177 144.198C179.529 147.269 177.305 148.805 176.505 148.805H175.833C174.905 148.133 174.441 147.301 174.441 146.31C174.441 145.67 176.201 143.974 179.721 141.223C181.577 138.92 182.585 137.769 182.745 137.769H183.897L187.785 141.223C191.785 142.759 193.785 144.902 193.785 147.653C193.593 149.028 192.905 149.716 191.721 149.716ZM178.809 171.404C177.369 171.404 176.441 168.941 176.025 164.015L175.593 161.952L175.833 160.56L175.833 158.929C175.833 158.641 175.673 158.497 175.353 158.497C175.065 158.497 173.689 158.577 171.225 158.737C170.105 158.577 169.481 158.497 169.353 158.497C169.225 158.497 169.161 158.577 169.161 158.737C165.449 158.737 163.593 157.585 163.593 155.282C163.593 154.354 164.137 153.891 165.225 153.891C169.161 154.338 173.161 154.562 177.225 154.562L177.657 154.37C177.913 154.498 178.217 154.562 178.569 154.562C180.265 154.562 181.337 154.498 181.785 154.37C188.185 154.53 192.345 154.754 194.265 155.042C194.553 154.882 194.777 154.802 194.937 154.802C198.617 154.962 200.457 155.57 200.457 156.626C200.617 156.626 200.697 157.169 200.697 158.257C200.313 159.185 199.705 159.648 198.873 159.648C195.225 159.041 193.225 158.737 192.873 158.737C192.617 158.737 191.689 158.801 190.089 158.929C189.737 158.929 188.585 158.785 186.633 158.497C185.289 158.657 184.057 158.737 182.937 158.737C182.233 158.737 181.481 158.657 180.681 158.497C180.361 158.657 180.121 158.737 179.961 158.737C179.961 160.88 179.881 162.255 179.721 162.863C179.721 165.006 180.409 166.078 181.785 166.078C185.689 166.078 188.377 165.918 189.849 165.598C191.545 166.27 192.393 167.277 192.393 168.621C192.393 169.549 191.785 170.092 190.569 170.252C188.809 170.252 187.801 170.172 187.545 170.012C184.281 170.332 181.369 170.796 178.809 171.404ZM242.488 159.217H241.816C240.504 159.217 239.736 158.289 239.512 156.434L239.992 153.651C239.672 148.181 239.512 145.19 239.512 144.678L239.752 143.287C239.752 143.127 239.672 143.047 239.512 143.047C239.864 136.617 240.248 133.403 240.664 133.403L241.144 133.163H242.488C242.68 133.163 243.384 133.85 244.6 135.226L244.6 135.466C243.992 137.705 243.688 140.616 243.688 144.198L243.688 147.893C243.976 152.435 244.12 155.282 244.12 156.434C244.12 157.649 243.576 158.577 242.488 159.217ZM223.384 152.067C221.08 152.067 219.384 150.132 218.296 146.262L218.296 144.678C218.296 142.791 219.528 141.176 221.992 139.832C222.408 139.832 223.176 139.224 224.296 138.009H225.688C228.28 139.192 229.576 142.567 229.576 148.133C229.576 149.252 228.36 150.404 225.928 151.588C224.552 151.747 223.704 151.907 223.384 152.067ZM224.296 147.413C225.224 146.933 225.688 146.102 225.688 144.918C225.688 143.767 225.448 143.143 224.968 143.047C223.688 144.006 222.84 145.158 222.424 146.501C222.68 147.109 222.92 147.413 223.144 147.413H224.296ZM229.144 176.01C224.984 176.01 222.904 174.699 222.904 172.076L223.144 169.101C222.216 167.661 221.752 166.51 221.752 165.646C221.752 164.878 222.68 164.271 224.536 163.823C224.696 163.823 224.776 163.887 224.776 164.015C229.064 164.015 231.208 163.247 231.208 161.712C231.208 161.552 231.288 161.472 231.448 161.472C231.256 160.704 231.016 160.32 230.728 160.32C229.672 160.32 228.6 160.48 227.512 160.8C227.256 160.64 226.952 160.56 226.6 160.56C225.896 161.04 225.432 161.28 225.208 161.28C223.064 161.28 221.992 160.352 221.992 158.497C221.992 156.802 224.76 155.954 230.296 155.954H232.12C234.904 156.37 236.296 157.761 236.296 160.128C236.296 161.76 235.992 163.055 235.384 164.015C235.512 164.846 235.576 165.47 235.576 165.886C235.576 167.102 234.664 167.869 232.84 168.189C231.784 168.029 230.904 167.949 230.2 167.949C228.568 167.949 227.752 168.557 227.752 169.773L227.752 170.684C227.752 171.036 228.68 171.276 230.536 171.404C231.24 171.404 232.856 171.1 235.384 170.492C237.208 170.492 238.2 171.564 238.36 173.707C238.36 175.082 237.288 175.77 235.144 175.77L233.992 175.53C232.072 175.85 230.456 176.01 229.144 176.01ZM273.458 170.684H273.026C271.01 170.14 270.002 168.909 270.002 166.99C270.002 166.702 270.082 166.558 270.242 166.558L269.57 158.257C269.57 158.129 269.634 157.665 269.762 156.865C269.474 156.29 269.33 155.586 269.33 154.754L269.57 153.171C269.25 152.659 269.09 152.163 269.09 151.683C269.09 148.869 268.93 147.061 268.61 146.262L268.85 145.782C268.85 145.494 268.466 143.575 267.698 140.024C268.018 139.064 268.402 138.537 268.85 138.441H269.57C271.714 138.92 272.786 139.992 272.786 141.655C272.946 143.703 273.026 145.478 273.026 146.981H272.786L273.026 147.413C273.026 149.236 273.17 153.379 273.458 159.84H273.698C273.698 160 273.618 160.08 273.458 160.08C273.938 163.855 274.402 166.782 274.85 168.861C274.85 169.437 274.386 170.044 273.458 170.684ZM253.394 161.232H252.722C251.09 161.232 249.634 160.08 248.354 157.777C248.034 156.818 247.874 156.05 247.874 155.474C248.546 151.316 249.314 149.236 250.178 149.236C250.402 148.885 250.706 147.893 251.09 146.262L252.002 145.542C255.33 145.542 258.034 147.701 260.114 152.019C260.402 152.627 260.546 153.635 260.546 155.042C260.546 157.601 258.162 159.664 253.394 161.232ZM252.962 157.105C255.874 156.338 257.33 154.866 257.33 152.691C257.33 151.923 256.402 151.236 254.546 150.628C252.914 152.387 252.066 154.083 252.002 155.714C252.002 156.642 252.322 157.105 252.962 157.105ZM140.531 227.382C139.635 226.327 139.187 225.719 139.187 225.559C139.187 224.695 139.251 223.848 139.379 223.016C138.931 214.315 138.707 206.478 138.707 199.505C138.707 198.673 139.011 198.13 139.619 197.874H140.291C141.571 197.874 142.499 198.577 143.075 199.985C142.915 201.36 142.771 202.192 142.643 202.48C143.251 216.778 143.555 224.392 143.555 225.319C143.555 226.695 142.547 227.382 140.531 227.382ZM121.187 217.018C118.883 216.283 117.731 214.971 117.731 213.084C117.571 213.084 117.491 212.94 117.491 212.652C118.387 206.638 119.843 203.632 121.859 203.632C122.691 203.216 123.539 202.992 124.403 202.96C127.123 202.96 128.963 204.271 129.923 206.894C129.923 210.797 129.011 213.244 127.187 214.235C125.203 216.091 123.203 217.018 121.187 217.018ZM122.771 212.172C125.075 210.893 126.227 209.661 126.227 208.478L126.227 207.326C126.227 207.102 126.003 206.878 125.555 206.654H123.971L122.099 211.932C122.387 212.092 122.611 212.172 122.771 212.172ZM138.707 235.203H137.987C137.507 235.203 135.747 233.668 132.707 230.597H132.227C130.851 233.38 129.475 234.772 128.099 234.772C126.243 234.772 124.931 233.54 124.163 231.077H123.251C122.547 233.38 121.699 234.532 120.707 234.532C119.011 234.372 118.163 233.684 118.163 232.468L118.163 231.797C120.467 225.847 121.859 222.456 122.339 221.625L123.011 221.193H123.491C125.475 221.193 126.467 222.728 126.467 225.799C126.787 225.799 127.171 226.631 127.619 228.294H128.099C129.859 225.095 130.931 223.416 131.315 223.256H132.467C133.843 223.256 134.771 224.408 135.251 226.711L140.531 231.989L140.771 233.14C140.579 234.516 139.891 235.203 138.707 235.203ZM167.811 210.589L165.747 210.349C165.587 210.349 165.507 210.429 165.507 210.589L164.355 210.349C163.811 210.349 163.123 210.429 162.291 210.589C162.131 210.589 162.051 210.509 162.051 210.349C160.995 210.509 160.227 210.589 159.747 210.589C157.123 210.589 155.811 209.581 155.811 207.566C155.587 203.568 155.363 201.568 155.139 201.568C155.299 199.425 155.683 198.354 156.291 198.354H157.683C158.739 198.354 159.507 198.961 159.987 200.177C159.859 201.488 159.779 202.8 159.747 204.111C159.747 205.103 160.355 205.727 161.571 205.983L162.051 205.743C167.747 205.743 170.595 206.35 170.595 207.566C170.723 207.566 170.787 207.79 170.787 208.238C170.787 209.805 169.795 210.589 167.811 210.589ZM167.139 234.772C161.123 234.772 158.115 233.924 158.115 232.229C157.667 232.229 157.139 228.854 156.531 222.104C156.211 221.497 155.971 221.193 155.811 221.193C153.635 221.193 152.259 221.113 151.683 220.953L150.291 221.193C147.987 221.193 146.835 220.265 146.835 218.41L146.835 217.738C146.835 216.874 147.219 216.251 147.987 215.867C148.179 215.867 149.715 216.171 152.595 216.778C163.379 216.331 169.443 215.643 170.787 214.715H171.267C173.411 215.675 174.483 216.603 174.483 217.498L174.483 217.93C173.779 219.465 172.707 220.233 171.267 220.233C170.627 220.233 169.779 220.153 168.723 219.993C163.507 220.313 160.899 220.713 160.899 221.193L160.659 221.625C161.267 226.711 161.891 229.254 162.531 229.254C163.075 229.542 163.683 229.685 164.355 229.685H166.899C169.491 229.685 170.787 230.453 170.787 231.989C170.787 233.588 169.571 234.516 167.139 234.772ZM215.83 226.375C214.678 226.375 213.974 225.367 213.718 223.352L213.718 223.112C214.358 221.193 214.741 218.746 214.87 215.771C215.094 215.771 215.254 215.227 215.35 214.139L215.109 213.228L215.35 212.076C215.19 211.756 215.109 211.516 215.109 211.357H213.718C210.262 211.676 208.422 211.836 208.198 211.836C206.822 211.836 206.134 210.765 206.134 208.622C206.134 207.726 206.982 207.182 208.678 206.99H210.262C213.814 206.99 215.59 206.606 215.59 205.839C215.878 204.911 216.022 202.912 216.022 199.841C215.574 198.082 214.966 196.322 214.198 194.563C214.518 192.868 215.126 192.02 216.022 192.02C218.55 192.02 220.006 194.659 220.39 199.937C219.462 216.762 218.71 225.175 218.134 225.175C217.27 225.975 216.502 226.375 215.83 226.375ZM197.11 219.417H196.198C195.75 219.417 195.302 218.65 194.854 217.114C197.286 211.197 198.502 207.662 198.502 206.51H196.918C196.246 206.51 195.318 206.75 194.134 207.23C192.758 206.942 192.07 206.318 192.07 205.359L192.07 203.296C192.07 202.72 193.91 202.176 197.59 201.664C200.79 201.664 202.79 202.896 203.59 205.359L203.59 206.75C202.822 209.661 201.286 213.58 198.982 218.506C198.982 218.89 198.358 219.194 197.11 219.417ZM208.198 241.105C203.398 241.105 200.326 237.954 198.982 231.653L198.982 230.741C198.982 229.206 200.214 228.438 202.678 228.438C205.142 228.31 206.374 227.926 206.374 227.286L205.894 226.567C204.198 226.727 202.742 227.031 201.526 227.478C199.83 226.839 198.982 225.927 198.982 224.743C198.982 223.048 199.526 222.2 200.614 222.2C200.934 222.2 201.766 222.28 203.109 222.44C204.582 222.12 205.782 221.96 206.71 221.96C209.846 222.152 211.414 223.16 211.414 224.983L211.222 228.198C211.67 228.966 211.894 229.733 211.894 230.501C211.542 231.077 210.934 231.605 210.07 232.085H209.11C206.038 232.404 204.502 232.788 204.502 233.236C205.238 235.251 206.55 236.259 208.438 236.259C210.902 236.259 213.366 235.955 215.83 235.347C217.654 235.699 218.566 236.547 218.566 237.89C218.566 239.426 215.11 240.497 208.198 241.105ZM249.007 235.059C247.791 233.876 247.183 232.804 247.183 231.845C248.719 223.816 249.487 218.746 249.487 216.635L249.487 214.811C250.095 213.98 250.399 211.437 250.399 207.182L250.399 204.927C250.399 203.679 249.871 201.824 248.815 199.361C249.039 198.434 249.567 197.97 250.399 197.97C252.863 198.737 254.095 200.433 254.095 203.056C254.255 204.751 254.335 206.207 254.335 207.422C254.335 208.702 254.175 210.781 253.855 213.66C254.719 214.235 256.559 214.843 259.375 215.483C260.143 216.379 260.527 217.146 260.527 217.786C260.111 218.554 259.423 218.938 258.463 218.938C255.967 218.65 254.351 218.506 253.615 218.506C253.039 219.242 252.575 221.465 252.223 225.175H252.463C252.303 225.559 251.999 228.022 251.551 232.564H251.791C251.791 234.228 250.863 235.059 249.007 235.059ZM237.727 224.264C236.351 223.368 235.663 222.52 235.663 221.721C237.231 219.449 238.607 215.995 239.791 211.357C239.951 210.557 240.031 209.629 240.031 208.574C238.271 208.574 236.511 209.197 234.751 210.445C232.671 218.73 230.975 222.872 229.663 222.872L229.231 223.112C228.111 222.664 227.327 222.04 226.879 221.241C226.879 220.601 227.423 219.385 228.511 217.594C230.047 212.508 230.815 209.341 230.815 208.094L230.335 207.902C230.015 207.902 228.719 208.126 226.447 208.574H225.967C224.783 208.574 224.015 207.726 223.663 206.031C223.663 204.975 225.967 204.447 230.575 204.447C230.575 204.191 231.263 204.031 232.639 203.967C232.991 203.967 233.999 204.431 235.663 205.359C236.335 205.071 238.639 204.767 242.575 204.447C244.271 205.247 245.119 205.935 245.119 206.51C242.687 218.346 240.223 224.264 237.727 224.264ZM270.46 224.983C268.924 224.983 267.772 223.144 267.004 219.465C267.004 216.714 268.924 214.091 272.764 211.596C273.916 210.477 274.54 209.261 274.636 207.95C274.636 206.095 273.628 205.167 271.612 205.167C270.204 205.167 268.444 205.855 266.332 207.23C265.02 207.23 264.172 206.159 263.788 204.015C264.812 201.552 267.42 200.321 271.612 200.321C273.852 200.321 275.932 201.712 277.852 204.495C278.3 205.871 278.524 206.782 278.524 207.23L278.524 208.862C278.524 212.316 276.828 214.923 273.436 216.682C272.636 217.386 272.028 218.074 271.612 218.746C271.612 219.481 271.852 221.097 272.332 223.592C272.012 224.519 271.388 224.983 270.46 224.983ZM270.46 234.82C269.34 234.82 268.572 233.812 268.156 231.797C268.412 230.421 268.94 229.733 269.74 229.733C271.916 230.277 273.004 231.125 273.004 232.277C272.652 233.972 271.804 234.82 270.46 234.82Z" fill="#171717"/>
</g>
<defs>
<clipPath id="clip0_16_15">
<rect width="415" height="373" fill="white"/>
</clipPath>
</defs>
</svg>
