<svg width="169" height="173" viewBox="0 0 169 173" fill="none" xmlns="http://www.w3.org/2000/svg">
<path fill-rule="evenodd" clip-rule="evenodd" d="M11.575 70.8122C11.575 70.8122 48.4837 83.4181 46.3 100.089C46.3 100.089 45.2697 103.948 39.4912 108.942L0 144.348C0 144.348 36.8919 117.031 50.3854 120.516C50.3854 120.516 55.4089 123.462 51.0662 134.815L36.7677 172.945C36.7677 172.945 63.9459 131.604 74.2162 130.73C74.2162 130.73 83.4643 129.341 97.3663 166.135C97.3663 166.135 97.9847 120.556 110.303 113.027C110.303 113.027 120.584 102.354 155.241 108.26C155.241 108.26 121.053 94.0911 120.516 83.7494C120.516 83.7494 121.294 74.3498 136.857 61.96L168.178 35.4061C168.178 35.4061 129.346 58.4334 117.793 53.1087C117.793 53.1087 112.997 50.9158 116.431 36.7678L128.687 0C128.687 0 94.2534 59.8739 88.5148 46.9808C88.5148 46.9808 73.8097 33.4708 68.0883 10.8942C68.0883 10.8942 71.8369 62.3871 59.9177 69.4505C59.9177 69.4505 60.455 73.7033 11.575 70.8122Z" fill="#398DFF"/>
</svg>
