<svg width="565" height="594" viewBox="0 0 565 594" fill="none" xmlns="http://www.w3.org/2000/svg">
<path fill-rule="evenodd" clip-rule="evenodd" d="M167.76 0L564.321 150.06L396.873 593.982L0.312561 443.921L167.76 0Z" fill="#8E8282"/>
<path d="M276.036 307.59H274.308V285.438H276.036V307.59ZM263.964 304.638C260.844 304.638 258.276 302.55 258.276 297.294V293.982C258.276 288.726 260.844 286.638 263.964 286.638C267.084 286.638 269.652 288.726 269.652 293.982V297.294C269.652 302.55 267.084 304.638 263.964 304.638ZM263.964 303.054C266.244 303.054 267.948 301.398 267.948 297.27V293.982C267.948 289.854 266.244 288.222 263.964 288.222C261.684 288.222 260.004 289.854 260.004 293.982V297.27C260.004 301.398 261.684 303.054 263.964 303.054ZM298.794 307.59H297.09V285.438H298.794V307.59ZM291.858 303.942H281.274V287.214H291.858V303.942ZM282.978 288.798V302.358H290.154V288.798H282.978ZM319.824 307.59V285.438H321.528V307.59H319.824ZM310.896 288.894V290.142C310.896 291.942 310.656 293.622 310.2 295.206L316.992 303.126L315.744 304.278L309.552 297.03C308.472 299.67 306.72 302.07 304.392 304.518L303.144 303.342C306.936 299.406 309.192 295.614 309.192 290.142V288.894H304.032V287.334H316.104V288.894H310.896ZM339.03 306.318H326.142V304.974L333.318 297.846C335.694 295.47 336.798 293.814 336.798 291.798C336.798 289.614 335.19 288.246 332.526 288.246C329.862 288.246 328.566 290.166 327.87 292.422L326.214 292.014C326.982 289.254 328.998 286.662 332.526 286.662C336.126 286.662 338.502 288.654 338.502 291.774C338.502 294.414 337.014 296.43 334.59 298.854L328.686 304.734H339.03V306.318Z" fill="white"/>
</svg>
