<svg width="955" height="547" viewBox="0 0 955 547" fill="none" xmlns="http://www.w3.org/2000/svg">
<path fill-rule="evenodd" clip-rule="evenodd" d="M0 0H955V547H0V0Z" fill="#5D5353"/>
<path d="M444.728 290.6H443V268.448H444.728V290.6ZM432.656 287.648C429.536 287.648 426.968 285.56 426.968 280.304V276.992C426.968 271.736 429.536 269.648 432.656 269.648C435.776 269.648 438.344 271.736 438.344 276.992V280.304C438.344 285.56 435.776 287.648 432.656 287.648ZM432.656 286.064C434.936 286.064 436.64 284.408 436.64 280.28V276.992C436.64 272.864 434.936 271.232 432.656 271.232C430.376 271.232 428.696 272.864 428.696 276.992V280.28C428.696 284.408 430.376 286.064 432.656 286.064ZM467.486 290.6H465.782V268.448H467.486V290.6ZM460.55 286.952H449.966V270.224H460.55V286.952ZM451.67 271.808V285.368H458.846V271.808H451.67ZM488.516 290.6V268.448H490.22V290.6H488.516ZM479.588 271.904V273.152C479.588 274.952 479.348 276.632 478.892 278.216L485.684 286.136L484.436 287.288L478.244 280.04C477.164 282.68 475.412 285.08 473.084 287.528L471.836 286.352C475.628 282.416 477.884 278.624 477.884 273.152V271.904H472.724V270.344H484.796V271.904H479.588ZM501.601 289.328H499.849V272.288L495.025 276.2L494.017 274.928L500.065 270.032H501.601V289.328Z" fill="white"/>
</svg>
