<svg width="860" height="170" viewBox="0 0 860 170" fill="none" xmlns="http://www.w3.org/2000/svg">
<path fill-rule="evenodd" clip-rule="evenodd" d="M40 0H820C842.091 0 860 17.9085 860 39.9995V79.9999H0V39.9995C0 17.9085 17.9086 0 40 0Z" fill="#D9D9D9"/>
<path d="M397.732 35.0268V32.9628H402.076V28.1388H404.476V40.2828H402.076V35.0268H397.732ZM398.188 40.1628L392.14 36.1788C391.012 37.7868 389.212 39.2028 386.764 40.5228L385.636 38.6028C389.476 36.4428 391.324 34.2828 391.324 31.3308H386.524V29.1948H398.524V31.3308H393.652C393.652 32.3868 393.484 33.3468 393.148 34.2588L399.388 38.1948L398.188 40.1628ZM394.588 41.4588H399.436C402.7 41.4588 404.764 43.3788 404.764 46.0428C404.764 48.7308 402.7 50.6508 399.436 50.6508H394.588C391.348 50.6508 389.284 48.7308 389.284 46.0428C389.284 43.3788 391.348 41.4588 394.588 41.4588ZM394.972 48.4908H399.076C401.284 48.4908 402.364 47.4588 402.364 46.0428C402.364 44.6268 401.284 43.5948 399.076 43.5948H394.972C392.764 43.5948 391.66 44.6268 391.66 46.0428C391.66 47.4588 392.764 48.4908 394.972 48.4908ZM424.858 50.4108V28.1388H427.234V50.4108H424.858ZM411.61 35.7948H417.922V29.5548H420.274V46.8108H409.234V29.5548H411.61V35.7948ZM411.61 37.9548V44.6268H417.922V37.9548H411.61ZM448.744 36.5148H452.176V38.6988H448.744V50.4108H446.344V28.1388H448.744V36.5148ZM438.352 29.4348V32.3388C438.352 34.2108 438.136 36.0108 437.704 37.7148L444.04 45.6348L442.24 47.1468L436.816 40.3548C435.784 42.8268 434.224 45.1308 432.064 47.3868L430.36 45.8028C434.224 41.7708 436 37.6668 436 32.3388V29.4348H438.352ZM470.35 32.8188V28.1388H472.75V39.7308H470.35V34.9308H466.39C465.982 37.7868 463.51 39.2028 460.486 39.2028C457.15 39.2028 454.51 37.5228 454.51 34.0908V33.7308C454.51 30.2748 457.15 28.6188 460.486 28.6188C463.486 28.6188 465.934 29.9868 466.366 32.8188H470.35ZM464.062 34.0668V33.7548C464.062 31.7388 462.526 30.7308 460.486 30.7308C458.446 30.7308 456.91 31.7388 456.91 33.7548V34.0668C456.91 36.0588 458.446 37.0908 460.486 37.0908C462.526 37.0908 464.062 36.0588 464.062 34.0668ZM460.414 43.4508H470.35V40.8828H472.75V50.4108H458.014V40.8828H460.414V43.4508ZM460.414 45.5628V48.2748H470.35V45.5628H460.414Z" fill="#171717"/>
<path fill-rule="evenodd" clip-rule="evenodd" d="M580 90.0005H860V140C860 156.568 846.569 170 830 170H580V90.0005Z" fill="#D9D9D9"/>
<path d="M655.586 130.851L654.722 128.787C660.098 126.891 662.546 124.707 662.546 122.307H655.922V120.195H671.282V122.307H664.946C664.946 123.195 664.778 124.011 664.394 124.803L672.482 128.835L671.426 130.851L663.122 126.675C661.634 128.259 659.162 129.651 655.586 130.851ZM653.138 132.987H674.066V135.171H664.802V141.675H662.426V135.171H653.138V132.987ZM692.6 127.971V119.139H694.976V141.411H692.6V130.155H686.408C684.752 133.419 681.992 136.347 678.344 138.747L676.904 136.851C682.664 133.155 685.736 128.043 685.736 123.339V123.075H677.384V120.891H688.136V122.859C688.136 124.635 687.848 126.339 687.296 127.971H692.6ZM706.382 120.963H711.614V122.883H698.702V120.963H703.958V118.875H706.382V120.963ZM716.702 119.139V126.795H719.942V129.003H716.702V136.515H714.302V119.139H716.702ZM712.478 132.195L712.718 134.091C709.382 134.547 705.134 134.811 701.966 134.811H698.414L698.318 132.843H702.158C702.734 132.843 703.382 132.843 704.102 132.819V130.971C701.558 130.731 699.71 129.579 699.71 127.587V127.323C699.71 125.043 702.11 123.891 705.206 123.891C708.23 123.891 710.63 125.043 710.63 127.323V127.587C710.63 129.531 708.878 130.659 706.502 130.947V132.699C708.47 132.603 710.606 132.411 712.478 132.195ZM702.11 127.371V127.539C702.11 128.523 703.454 129.099 705.206 129.099C706.886 129.099 708.23 128.523 708.23 127.539V127.371C708.23 126.411 706.886 125.787 705.206 125.787C703.454 125.787 702.11 126.411 702.11 127.371ZM702.206 136.275H704.606V139.299H717.878V141.411H702.206V136.275ZM738.116 124.467H733.076C731.804 127.683 728.348 129.915 723.38 131.475L722.468 129.339C727.772 127.731 730.916 125.187 731.18 122.499H722.972V120.315H733.604V121.563C733.604 121.899 733.58 122.211 733.556 122.523H738.116V119.139H740.492V131.283H738.116V128.763H733.052V126.819H738.116V124.467ZM730.604 132.459H735.476C738.716 132.459 740.804 134.379 740.804 137.043C740.804 139.731 738.716 141.651 735.476 141.651H730.604C727.388 141.651 725.3 139.731 725.3 137.043C725.3 134.379 727.388 132.459 730.604 132.459ZM731.012 139.491H735.092C737.324 139.491 738.404 138.459 738.404 137.043C738.404 135.627 737.324 134.595 735.092 134.595H731.012C728.78 134.595 727.7 135.627 727.7 137.043C727.7 138.459 728.78 139.491 731.012 139.491ZM761.258 127.515V119.139H763.61V141.411H761.258V129.699H758.426V140.955H756.146V119.475H758.426V127.515H761.258ZM751.226 123.075H745.13V120.891H753.554V122.859C753.554 129.171 750.89 134.403 746.33 138.747L744.602 136.995C748.97 133.035 751.226 128.043 751.226 123.339V123.075ZM786.008 135.819H783.632V126.171H778.808V124.035H783.632V119.139H786.008V135.819ZM779.456 132.219L773.624 127.539C772.52 129.387 770.84 131.019 768.512 132.555L767.168 130.707C771.08 128.091 772.856 125.259 772.856 121.683V119.979H775.208V121.683C775.208 123.027 775.016 124.275 774.608 125.451L780.824 130.419L779.456 132.219ZM773.672 134.427V139.227H786.944V141.411H771.296V134.427H773.672Z" fill="#171717"/>
<path fill-rule="evenodd" clip-rule="evenodd" d="M290 90.0005H570V170H290V90.0005Z" fill="#D9D9D9"/>
<path d="M414.363 127.515V119.139H416.691V141.411H414.363V129.699H411.531V140.955H409.251V119.475H411.531V127.515H414.363ZM403.707 123.075V124.251C403.707 125.883 403.563 127.443 403.251 128.931L408.267 136.779L406.323 138.147L402.387 131.979C401.571 134.187 400.395 136.299 398.859 138.387L396.987 136.923C399.915 133.011 401.451 129.219 401.451 124.251V123.075H397.803V120.891H407.499V123.075H403.707ZM436.737 127.347H430.497C428.769 129.651 425.865 131.475 422.097 132.843L421.113 130.779C426.609 128.763 429.777 125.715 429.945 122.619H421.617V120.435H432.369V121.803C432.369 123.027 432.153 124.155 431.721 125.211H436.737V119.139H439.137V135.819H436.737V127.347ZM426.801 134.187V139.227H440.073V141.411H424.401V134.187H426.801ZM445.119 129.675L444.399 127.659C449.535 126.387 451.935 124.827 452.199 123.003H445.575V120.867H452.175V118.779H454.527V120.867H460.935V123.003H454.479C454.431 123.603 454.311 124.179 454.071 124.707L462.111 127.683L461.247 129.675L452.703 126.459C451.239 127.755 448.767 128.787 445.119 129.675ZM463.719 130.851V132.867H454.479V135.171H461.175V141.651H458.775V137.235H445.359V135.171H452.079V132.867H442.791V130.851H463.719Z" fill="#171717"/>
<path fill-rule="evenodd" clip-rule="evenodd" d="M0 90.0005H280V170H30C13.4315 170 0 156.568 0 140V90.0005Z" fill="#D9D9D9"/>
<path d="M124.363 127.515V119.139H126.691V141.411H124.363V129.699H121.531V140.955H119.251V119.475H121.531V127.515H124.363ZM113.707 123.075V124.251C113.707 125.883 113.563 127.443 113.251 128.931L118.267 136.779L116.323 138.147L112.387 131.979C111.571 134.187 110.395 136.299 108.859 138.387L106.987 136.923C109.915 133.011 111.451 129.219 111.451 124.251V123.075H107.803V120.891H117.499V123.075H113.707ZM147.121 127.515V119.139H149.473V141.411H147.121V129.699H144.289V140.955H142.009V119.475H144.289V127.515H147.121ZM137.089 123.075H130.993V120.891H139.417V122.859C139.417 129.171 136.753 134.403 132.193 138.747L130.465 136.995C134.833 133.035 137.089 128.043 137.089 123.339V123.075ZM170.623 119.139V123.315H174.079V125.523H170.623V130.131H168.223V119.139H170.623ZM161.719 119.979H164.023V129.387H153.199V119.979H155.503V122.643H161.719V119.979ZM155.503 124.683V127.347H161.719V124.683H155.503ZM170.623 137.427H158.743V139.515H171.439V141.531H156.367V135.459H168.223V133.491H156.247V131.523H170.623V137.427Z" fill="#171717"/>
</svg>
