<svg width="438" height="328" viewBox="0 0 438 328" fill="none" xmlns="http://www.w3.org/2000/svg">
<path d="M18.024 82.448H19.728V99.272H18.024V82.448ZM14.28 95.264L7.752 90.344C6.624 92.336 4.776 94.088 2.184 95.72L1.272 94.376C5.304 91.76 7.392 88.904 7.392 85.088V83.36H9.096V85.088C9.096 86.432 8.88 87.656 8.448 88.832L15.24 93.944L14.28 95.264ZM7.2 97.856V103.016H20.76V104.6H5.496V97.856H7.2ZM41.5978 91.16L33.1738 87.488C31.7338 88.928 29.3098 90.152 25.8058 91.16L25.2778 89.672C30.4138 88.208 33.0538 86.192 33.0538 83.84V82.76H34.7338V83.84C34.7338 84.656 34.5418 85.448 34.1578 86.144L42.2698 89.744L41.5978 91.16ZM34.6378 90.44V93.296H44.1418V94.832H23.4058V93.296H32.9338V90.44H34.6378ZM39.7498 99.2H26.0938V97.64H41.4778V104.84H39.7498V99.2ZM53.1956 84.944H58.7636V86.432H45.9236V84.944H51.4916V82.16H53.1956V84.944ZM63.2756 82.448V89.24H66.9716V90.848H63.2756V99.488H61.5716V82.448H63.2756ZM57.7316 92.072V92.48C57.7316 95.12 55.3796 96.632 52.3796 96.632C49.3796 96.632 47.0036 95.12 47.0036 92.48V92.072C47.0036 89.432 49.3796 87.968 52.3796 87.968C55.3796 87.968 57.7316 89.432 57.7316 92.072ZM48.7076 92.12V92.456C48.7076 94.088 50.3156 95.12 52.3796 95.12C54.4196 95.12 56.0516 94.088 56.0516 92.456V92.12C56.0516 90.488 54.4196 89.456 52.3796 89.456C50.3156 89.456 48.7076 90.488 48.7076 92.12ZM49.4996 98.624H51.2276V103.016H64.5476V104.576H49.4996V98.624ZM91.1494 91.112H94.8214V92.696H91.1494V104.6H89.4214V82.448H91.1494V91.112ZM80.7334 83.816V86.6C80.7334 88.52 80.4934 90.32 80.0374 92.048L86.6614 100.184L85.3894 101.288L79.4134 93.944C78.3814 96.608 76.7014 99.104 74.3494 101.528L73.1494 100.376C77.0614 96.368 79.0534 92.144 79.0534 86.6V83.816H80.7334ZM113.067 87.416V82.448H114.795V94.016H113.067V88.976H108.507C108.219 91.88 105.771 93.344 102.795 93.344C99.6032 93.344 97.0352 91.688 97.0352 88.4V87.992C97.0352 84.68 99.6032 83.048 102.795 83.048C105.771 83.048 108.219 84.488 108.507 87.416H113.067ZM106.827 88.376V88.016C106.827 85.784 105.123 84.608 102.795 84.608C100.443 84.608 98.7632 85.784 98.7632 88.016V88.376C98.7632 90.584 100.443 91.784 102.795 91.784C105.123 91.784 106.827 90.584 106.827 88.376ZM102.267 98.288H113.067V95.336H114.795V104.6H100.563V95.336H102.267V98.288ZM102.267 99.824V103.04H113.067V99.824H102.267ZM120.729 94.688L120.057 93.2C125.313 91.208 128.097 89 128.097 86.36H121.257V84.8H128.097V82.112H129.801V84.8H136.425V86.36H129.801C129.801 87.2 129.633 87.992 129.273 88.76L137.601 93.224L136.809 94.688L128.361 90.128C126.945 91.808 124.449 93.32 120.729 94.688ZM118.473 96.92H139.209V98.504H129.705V104.816H128.001V98.504H118.473V96.92ZM157.887 82.448H159.591V99.272H157.887V82.448ZM154.071 95.84L147.711 90.776C146.583 92.792 144.711 94.592 142.119 96.32L141.207 94.976C145.071 92.288 147.279 89.6 147.279 85.832V85.304H142.071V83.768H154.167V85.304H148.959V85.832C148.959 87.056 148.767 88.208 148.383 89.288L155.031 94.496L154.071 95.84ZM147.063 97.856V103.016H160.623V104.6H145.359V97.856H147.063ZM175.197 89.792H172.077C168.261 89.792 165.837 88.712 165.837 86.192C165.837 83.696 168.261 82.64 172.077 82.64H175.197C179.037 82.64 181.461 83.696 181.461 86.192C181.461 88.712 179.037 89.792 175.197 89.792ZM172.365 88.328H174.933C178.053 88.328 179.733 87.608 179.733 86.192C179.733 84.776 178.053 84.104 174.933 84.104H172.365C169.245 84.104 167.541 84.776 167.541 86.192C167.541 87.656 169.245 88.328 172.365 88.328ZM184.005 93.152H163.269V91.688H184.005V93.152ZM181.941 104.72H165.957V99.248H179.613V96.752H165.837V95.312H181.341V100.688H167.661V103.256H181.941V104.72ZM208.134 104.6V82.448H209.838V104.6H208.134ZM199.206 85.904V87.152C199.206 88.952 198.966 90.632 198.51 92.216L205.302 100.136L204.054 101.288L197.862 94.04C196.782 96.68 195.03 99.08 192.702 101.528L191.454 100.352C195.246 96.416 197.502 92.624 197.502 87.152V85.904H192.342V84.344H204.414V85.904H199.206ZM223.812 98V96.584H230.556V82.448H232.26V100.184H230.556V98H223.812ZM220.812 91.304C217.596 91.304 215.028 89.96 215.028 87.344V87.032C215.028 84.416 217.596 83.048 220.812 83.048C224.028 83.048 226.596 84.416 226.596 87.032V87.344C226.596 89.96 224.028 91.304 220.812 91.304ZM216.684 87.08V87.296C216.684 88.904 218.412 89.84 220.812 89.84C223.236 89.84 224.964 88.904 224.964 87.296V87.08C224.964 85.472 223.236 84.536 220.812 84.536C218.412 84.536 216.684 85.472 216.684 87.08ZM221.028 98.792L219.348 98.672C219.492 97.448 219.612 96.104 219.684 94.88C218.988 94.904 218.316 94.904 217.692 94.904H213.828L213.756 93.416H217.788C220.524 93.416 224.964 93.152 228.444 92.72L228.612 94.16C226.452 94.472 223.836 94.688 221.388 94.808C221.292 96.104 221.172 97.472 221.028 98.792ZM219.492 99.728V103.016H233.292V104.6H217.788V99.728H219.492ZM253.41 91.112H257.106V92.696H253.41V104.6H251.706V82.448H253.41V91.112ZM241.626 82.472H243.33V85.976H248.898V87.536H236.058V85.976H241.626V82.472ZM242.514 89.816C245.49 89.816 247.842 91.784 247.842 95V96.272C247.842 99.464 245.49 101.48 242.514 101.48C239.514 101.48 237.138 99.464 237.138 96.272V95C237.138 91.784 239.514 89.816 242.514 89.816ZM246.138 96.2V95.072C246.138 92.768 244.53 91.4 242.514 91.4C240.45 91.4 238.866 92.768 238.866 95.072V96.2C238.866 98.504 240.45 99.92 242.514 99.92C244.53 99.92 246.138 98.504 246.138 96.2ZM262.944 90.08H276.36V91.664H261.24V83H262.944V90.08ZM279.072 96.08H258.336V94.496H279.072V96.08ZM276.768 104.6H261.24V98.168H262.944V103.016H276.768V104.6ZM17.976 126.92L16.32 126.68C16.8 124.376 17.04 121.928 17.04 120.8H3.792V119.24H18.744V120.392C18.744 122.144 18.48 124.568 17.976 126.92ZM11.424 123.776V128.36H21.744V129.896H1.008V128.36H9.72V123.776H11.424ZM9 132.488H13.752C17.4 132.488 19.32 134.312 19.32 136.664C19.32 139.04 17.4 140.84 13.752 140.84H9C5.376 140.84 3.456 139.04 3.456 136.664C3.456 134.312 5.376 132.488 9 132.488ZM9.408 139.328H13.344C16.2 139.328 17.592 138.248 17.592 136.64C17.592 135.104 16.2 134 13.344 134H9.408C6.552 134 5.16 135.104 5.16 136.64C5.16 138.248 6.552 139.328 9.408 139.328ZM40.3738 126.92L38.7178 126.68C39.1978 124.376 39.4378 121.928 39.4378 120.8H26.1898V119.24H41.1418V120.392C41.1418 122.144 40.8778 124.568 40.3738 126.92ZM33.8218 123.776V128.36H44.1418V129.896H23.4058V128.36H32.1178V123.776H33.8218ZM31.3978 132.488H36.1498C39.7978 132.488 41.7178 134.312 41.7178 136.664C41.7178 139.04 39.7978 140.84 36.1498 140.84H31.3978C27.7738 140.84 25.8538 139.04 25.8538 136.664C25.8538 134.312 27.7738 132.488 31.3978 132.488ZM31.8058 139.328H35.7418C38.5978 139.328 39.9898 138.248 39.9898 136.64C39.9898 135.104 38.5978 134 35.7418 134H31.8058C28.9498 134 27.5578 135.104 27.5578 136.64C27.5578 138.248 28.9498 139.328 31.8058 139.328ZM62.7956 140.6V118.448H64.4996V140.6H62.7956ZM53.8676 121.904V123.152C53.8676 124.952 53.6276 126.632 53.1716 128.216L59.9636 136.136L58.7156 137.288L52.5236 130.04C51.4436 132.68 49.6916 135.08 47.3636 137.528L46.1156 136.352C49.9076 132.416 52.1636 128.624 52.1636 123.152V121.904H47.0036V120.344H59.0756V121.904H53.8676ZM78.4734 134V132.584H85.2174V118.448H86.9214V136.184H85.2174V134H78.4734ZM75.4734 127.304C72.2574 127.304 69.6894 125.96 69.6894 123.344V123.032C69.6894 120.416 72.2574 119.048 75.4734 119.048C78.6894 119.048 81.2574 120.416 81.2574 123.032V123.344C81.2574 125.96 78.6894 127.304 75.4734 127.304ZM71.3454 123.08V123.296C71.3454 124.904 73.0734 125.84 75.4734 125.84C77.8974 125.84 79.6254 124.904 79.6254 123.296V123.08C79.6254 121.472 77.8974 120.536 75.4734 120.536C73.0734 120.536 71.3454 121.472 71.3454 123.08ZM75.6894 134.792L74.0094 134.672C74.1534 133.448 74.2734 132.104 74.3454 130.88C73.6494 130.904 72.9774 130.904 72.3534 130.904H68.4894L68.4174 129.416H72.4494C75.1854 129.416 79.6254 129.152 83.1054 128.72L83.2734 130.16C81.1134 130.472 78.4974 130.688 76.0494 130.808C75.9534 132.104 75.8334 133.472 75.6894 134.792ZM74.1534 135.728V139.016H87.9534V140.6H72.4494V135.728H74.1534ZM107.927 140.6V118.448H109.607V140.6H107.927ZM99.6952 124.112H103.151V118.808H104.807V140.192H103.151V132.608H98.9992V131.072H103.151V125.672H99.4552C98.5672 130.376 95.9752 134.456 92.3752 137.792L91.1512 136.544C95.3992 132.752 98.0872 127.568 98.0872 122.384V121.904H91.5592V120.344H99.7912V122.048C99.7912 122.744 99.7432 123.44 99.6952 124.112ZM121.229 120.44H126.869V121.856H113.885V120.44H119.501V118.16H121.229V120.44ZM129.989 132.776V118.448H131.693V132.776H129.989ZM127.901 130.352L128.069 131.72C124.733 132.2 120.389 132.464 117.125 132.464H113.285L113.189 131.048H117.221C117.893 131.048 118.685 131.024 119.525 131V129.272C116.885 129.08 114.965 128.072 114.965 126.248V125.984C114.965 123.968 117.341 122.96 120.413 122.96C123.413 122.96 125.789 123.968 125.789 125.984V126.248C125.789 128.072 123.845 129.08 121.253 129.272V130.928C123.437 130.808 125.837 130.616 127.901 130.352ZM116.645 126.056V126.224C116.645 127.256 118.277 127.928 120.413 127.928C122.477 127.928 124.109 127.256 124.109 126.224V126.056C124.109 125.024 122.477 124.328 120.413 124.328C118.277 124.328 116.645 125.024 116.645 126.056ZM129.989 135.848H117.005V134.336H131.693V140.816H129.989V135.848ZM154.115 140.6H152.387V118.448H154.115V140.6ZM142.043 137.648C138.923 137.648 136.355 135.56 136.355 130.304V126.992C136.355 121.736 138.923 119.648 142.043 119.648C145.163 119.648 147.731 121.736 147.731 126.992V130.304C147.731 135.56 145.163 137.648 142.043 137.648ZM142.043 136.064C144.323 136.064 146.027 134.408 146.027 130.28V126.992C146.027 122.864 144.323 121.232 142.043 121.232C139.763 121.232 138.083 122.864 138.083 126.992V130.28C138.083 134.408 139.763 136.064 142.043 136.064ZM175.121 140.6V118.448H176.801V140.6H175.121ZM167.345 127.352H170.345V118.808H172.001V140.192H170.345V128.912H167.345V130.304C167.345 135.56 165.353 137.648 162.809 137.648C160.193 137.648 158.225 135.56 158.225 130.304V126.992C158.225 121.736 160.193 119.648 162.809 119.648C165.353 119.648 167.345 121.736 167.345 126.992V127.352ZM165.689 130.28V126.992C165.689 122.864 164.465 121.232 162.785 121.232C161.105 121.232 159.881 122.864 159.881 126.992V130.28C159.881 134.408 161.105 136.064 162.785 136.064C164.465 136.064 165.689 134.408 165.689 130.28ZM192.166 131.312H188.974C184.942 131.312 182.47 128.816 182.47 125.504C182.47 122.216 184.942 119.72 188.974 119.72H192.166C196.174 119.72 198.694 122.216 198.694 125.504C198.694 128.816 196.174 131.312 192.166 131.312ZM191.878 121.28H189.262C185.998 121.28 184.174 123.104 184.174 125.504C184.174 127.952 185.998 129.776 189.262 129.776H191.878C195.118 129.776 196.966 127.952 196.966 125.504C196.966 123.104 195.118 121.28 191.878 121.28ZM195.358 132.656V137.24H200.926V138.8H180.19V137.24H185.782V132.656H187.486V137.24H193.654V132.656H195.358ZM204.412 139.688C203.668 139.688 203.092 139.088 203.092 138.344C203.092 137.6 203.668 137.024 204.412 137.024C205.156 137.024 205.756 137.6 205.756 138.344C205.756 139.088 205.156 139.688 204.412 139.688ZM13.224 161.024V159.512H18V154.472H19.704V166.568H18V161.024H13.224ZM13.992 166.352L7.656 161.936C6.552 163.688 4.728 165.224 2.16 166.688L1.32 165.32C5.112 163.064 7.248 160.784 7.248 157.52V157.184H2.208V155.648H14.016V157.184H8.928V157.52C8.928 158.6 8.76 159.584 8.4 160.52L14.88 164.936L13.992 166.352ZM10.2 167.912H14.856C18.12 167.912 20.04 169.88 20.04 172.376C20.04 174.896 18.12 176.816 14.856 176.816H10.2C6.936 176.816 5.016 174.896 5.016 172.376C5.016 169.88 6.936 167.912 10.2 167.912ZM10.536 175.28H14.52C17.088 175.28 18.312 174.032 18.312 172.352C18.312 170.744 17.088 169.448 14.52 169.448H10.536C7.968 169.448 6.72 170.744 6.72 172.352C6.72 174.032 7.968 175.28 10.536 175.28ZM40.4218 176.6V154.448H42.1258V176.6H40.4218ZM26.2858 162.56H33.4858V155.984H35.1898V172.952H24.6058V155.984H26.2858V162.56ZM26.2858 164.12V171.368H33.4858V164.12H26.2858ZM63.1316 176.6V154.448H64.8116V176.6H63.1316ZM54.8996 160.112H58.3556V154.808H60.0116V176.192H58.3556V168.608H54.2036V167.072H58.3556V161.672H54.6596C53.7716 166.376 51.1796 170.456 47.5796 173.792L46.3556 172.544C50.6036 168.752 53.2916 163.568 53.2916 158.384V157.904H46.7636V156.344H54.9956V158.048C54.9956 158.744 54.9476 159.44 54.8996 160.112ZM76.4334 156.44H82.0734V157.856H69.0894V156.44H74.7054V154.16H76.4334V156.44ZM85.1934 168.776V154.448H86.8974V168.776H85.1934ZM83.1054 166.352L83.2734 167.72C79.9374 168.2 75.5934 168.464 72.3294 168.464H68.4894L68.3934 167.048H72.4254C73.0974 167.048 73.8894 167.024 74.7294 167V165.272C72.0894 165.08 70.1694 164.072 70.1694 162.248V161.984C70.1694 159.968 72.5454 158.96 75.6174 158.96C78.6174 158.96 80.9934 159.968 80.9934 161.984V162.248C80.9934 164.072 79.0494 165.08 76.4574 165.272V166.928C78.6414 166.808 81.0414 166.616 83.1054 166.352ZM71.8494 162.056V162.224C71.8494 163.256 73.4814 163.928 75.6174 163.928C77.6814 163.928 79.3134 163.256 79.3134 162.224V162.056C79.3134 161.024 77.6814 160.328 75.6174 160.328C73.4814 160.328 71.8494 161.024 71.8494 162.056ZM85.1934 171.848H72.2094V170.336H86.8974V176.816H85.1934V171.848ZM114.483 165.56L105.915 160.592C104.499 162.44 101.979 164.072 98.2592 165.56L97.5632 164.048C103.035 161.888 105.699 159.344 105.699 156.392V154.928H107.403V156.392C107.403 157.352 107.211 158.288 106.803 159.176L115.299 164.096L114.483 165.56ZM96.0752 168.296H116.811V169.88H107.307V176.84H105.603V169.88H96.0752V168.296ZM135.489 166.448V154.448H137.193V166.448H135.489ZM132.825 163.736L133.041 165.2C130.425 165.656 126.801 165.992 123.537 165.992H119.793V159.968H128.409V157.16H119.793V155.648H130.113V161.456H121.473V164.48H123.825C126.537 164.48 130.041 164.192 132.825 163.736ZM124.665 170.552H135.489V167.792H137.193V176.6H122.961V167.792H124.665V170.552ZM124.665 172.064V175.04H135.489V172.064H124.665ZM158.367 154.448V160.328H162.039V161.912H158.367V171.272H156.639V154.448H158.367ZM154.119 164.768L154.311 166.28C151.695 166.712 148.167 167.048 144.975 167.048H141.519V155.768H151.935V157.304H143.223V165.488H145.263C147.903 165.488 151.311 165.2 154.119 164.768ZM144.567 169.856H146.295V175.016H159.615V176.6H144.567V169.856ZM180.597 176.6V154.448H182.277V176.6H180.597ZM172.365 160.112H175.821V154.808H177.477V176.192H175.821V168.608H171.669V167.072H175.821V161.672H172.125C171.237 166.376 168.645 170.456 165.045 173.792L163.821 172.544C168.069 168.752 170.757 163.568 170.757 158.384V157.904H164.229V156.344H172.461V158.048C172.461 158.744 172.413 159.44 172.365 160.112ZM202.994 176.6V154.448H204.674V176.6H202.994ZM195.218 163.352H198.218V154.808H199.874V176.192H198.218V164.912H195.218V166.304C195.218 171.56 193.226 173.648 190.682 173.648C188.066 173.648 186.098 171.56 186.098 166.304V162.992C186.098 157.736 188.066 155.648 190.682 155.648C193.226 155.648 195.218 157.736 195.218 162.992V163.352ZM193.562 166.28V162.992C193.562 158.864 192.338 157.232 190.658 157.232C188.978 157.232 187.754 158.864 187.754 162.992V166.28C187.754 170.408 188.978 172.064 190.658 172.064C192.338 172.064 193.562 170.408 193.562 166.28ZM225.032 162.416V154.448H226.76V176.6H225.032V164H219.344V162.416H225.032ZM215.888 155.816V158.576C215.888 160.496 215.648 162.32 215.168 164.048L222.056 172.16L220.784 173.288L214.544 165.92C213.464 168.608 211.712 171.104 209.264 173.528L208.064 172.352C212.144 168.344 214.208 164.168 214.208 158.576V155.816H215.888ZM252.906 162.416V154.448H254.634V176.6H252.906V164H247.218V162.416H252.906ZM243.762 155.816V158.576C243.762 160.496 243.522 162.32 243.042 164.048L249.93 172.16L248.658 173.288L242.418 165.92C241.338 168.608 239.586 171.104 237.138 173.528L235.938 172.352C240.018 168.344 242.082 164.168 242.082 158.576V155.816H243.762ZM270.264 161.744H267.144C263.328 161.744 260.904 160.688 260.904 158.168C260.904 155.672 263.328 154.64 267.144 154.64H270.264C274.104 154.64 276.528 155.672 276.528 158.168C276.528 160.688 274.104 161.744 270.264 161.744ZM270 156.104H267.432C264.288 156.104 262.608 156.752 262.608 158.192C262.608 159.632 264.288 160.304 267.432 160.304H270C273.12 160.304 274.8 159.584 274.8 158.192C274.8 156.752 273.12 156.104 270 156.104ZM279.072 163.568V165.032H269.568V167.312H276.408V172.688H262.728V175.256H277.008V176.72H261.024V171.248H274.68V168.752H260.904V167.312H267.864V165.032H258.336V163.568H279.072ZM297.702 176.6V154.448H299.43V176.6H297.702ZM288.558 155.816V158.576C288.558 160.496 288.318 162.32 287.838 164.048L294.726 172.16L293.454 173.288L287.214 165.92C286.134 168.608 284.382 171.104 281.934 173.528L280.734 172.352C284.814 168.344 286.878 164.168 286.878 158.576V155.816H288.558ZM320.627 163.112H324.299V164.696H320.627V176.6H318.899V154.448H320.627V163.112ZM312.491 157.904H303.995V156.344H314.195V158.048C314.195 164.312 310.547 169.76 304.667 173.792L303.635 172.448C309.107 168.776 312.491 163.568 312.491 158.384V157.904ZM347.973 162.92L346.317 162.68C346.797 160.376 347.037 157.928 347.037 156.8H333.789V155.24H348.741V156.392C348.741 158.144 348.477 160.568 347.973 162.92ZM341.421 159.776V164.36H351.741V165.896H331.005V164.36H339.717V159.776H341.421ZM338.997 168.488H343.749C347.397 168.488 349.317 170.312 349.317 172.664C349.317 175.04 347.397 176.84 343.749 176.84H338.997C335.373 176.84 333.453 175.04 333.453 172.664C333.453 170.312 335.373 168.488 338.997 168.488ZM339.405 175.328H343.341C346.197 175.328 347.589 174.248 347.589 172.64C347.589 171.104 346.197 170 343.341 170H339.405C336.549 170 335.157 171.104 335.157 172.64C335.157 174.248 336.549 175.328 339.405 175.328ZM370.371 162.92L368.715 162.68C369.195 160.376 369.435 157.928 369.435 156.8H356.187V155.24H371.139V156.392C371.139 158.144 370.875 160.568 370.371 162.92ZM363.819 159.776V164.36H374.139V165.896H353.403V164.36H362.115V159.776H363.819ZM361.395 168.488H366.147C369.795 168.488 371.715 170.312 371.715 172.664C371.715 175.04 369.795 176.84 366.147 176.84H361.395C357.771 176.84 355.851 175.04 355.851 172.664C355.851 170.312 357.771 168.488 361.395 168.488ZM361.803 175.328H365.739C368.595 175.328 369.987 174.248 369.987 172.64C369.987 171.104 368.595 170 365.739 170H361.803C358.947 170 357.555 171.104 357.555 172.64C357.555 174.248 358.947 175.328 361.803 175.328ZM394.497 166.568H392.793V160.448H387.561V158.912H392.793V154.472H394.497V166.568ZM388.641 166.04L382.329 161.552C381.225 163.352 379.425 164.936 376.929 166.376L376.041 164.984C379.905 162.704 381.969 160.136 381.969 156.68V155.24H383.673V156.68C383.673 157.904 383.481 159.032 383.073 160.088L389.553 164.672L388.641 166.04ZM384.993 167.912H389.649C392.913 167.912 394.833 169.88 394.833 172.376C394.833 174.896 392.913 176.816 389.649 176.816H384.993C381.729 176.816 379.809 174.896 379.809 172.376C379.809 169.88 381.729 167.912 384.993 167.912ZM385.329 175.28H389.313C391.881 175.28 393.105 174.032 393.105 172.352C393.105 170.744 391.881 169.448 389.313 169.448H385.329C382.761 169.448 381.513 170.744 381.513 172.352C381.513 174.032 382.761 175.28 385.329 175.28ZM415.887 163.352H419.343V164.912H415.887V176.6H414.183V154.448H415.887V163.352ZM408.471 158.456V157.904H399.399V156.344H410.199V158.024C410.199 161.024 409.743 164.72 409.071 168.176L407.391 167.888C408.063 164.456 408.471 160.712 408.471 158.456ZM404.343 163.112V171.32C406.767 171.224 409.671 171.008 412.071 170.696L412.263 172.208C409.023 172.664 404.751 172.952 401.583 172.952H397.935L397.863 171.368H401.679H402.615V163.112H404.343ZM18.48 199.112H22.152V200.696H18.48V212.6H16.752V190.448H18.48V199.112ZM8.064 191.816V194.6C8.064 196.52 7.824 198.32 7.368 200.048L13.992 208.184L12.72 209.288L6.744 201.944C5.712 204.608 4.032 207.104 1.68 209.528L0.48 208.376C4.392 204.368 6.384 200.144 6.384 194.6V191.816H8.064ZM40.3978 195.416V190.448H42.1258V202.016H40.3978V196.976H35.8378C35.5498 199.88 33.1018 201.344 30.1258 201.344C26.9338 201.344 24.3658 199.688 24.3658 196.4V195.992C24.3658 192.68 26.9338 191.048 30.1258 191.048C33.1018 191.048 35.5498 192.488 35.8378 195.416H40.3978ZM34.1578 196.376V196.016C34.1578 193.784 32.4538 192.608 30.1258 192.608C27.7738 192.608 26.0938 193.784 26.0938 196.016V196.376C26.0938 198.584 27.7738 199.784 30.1258 199.784C32.4538 199.784 34.1578 198.584 34.1578 196.376ZM29.5978 206.288H40.3978V203.336H42.1258V212.6H27.8938V203.336H29.5978V206.288ZM29.5978 207.824V211.04H40.3978V207.824H29.5978ZM64.4996 202.568H62.7956V196.448H57.5636V194.912H62.7956V190.472H64.4996V202.568ZM58.6436 202.04L52.3316 197.552C51.2276 199.352 49.4276 200.936 46.9316 202.376L46.0436 200.984C49.9076 198.704 51.9716 196.136 51.9716 192.68V191.24H53.6756V192.68C53.6756 193.904 53.4836 195.032 53.0756 196.088L59.5556 200.672L58.6436 202.04ZM54.9956 203.912H59.6516C62.9156 203.912 64.8356 205.88 64.8356 208.376C64.8356 210.896 62.9156 212.816 59.6516 212.816H54.9956C51.7316 212.816 49.8116 210.896 49.8116 208.376C49.8116 205.88 51.7316 203.912 54.9956 203.912ZM55.3316 211.28H59.3156C61.8836 211.28 63.1076 210.032 63.1076 208.352C63.1076 206.744 61.8836 205.448 59.3156 205.448H55.3316C52.7636 205.448 51.5156 206.744 51.5156 208.352C51.5156 210.032 52.7636 211.28 55.3316 211.28ZM86.8974 212.6H85.1934V190.448H86.8974V212.6ZM75.4734 203.624C72.2574 203.624 69.6654 201.776 69.6654 197.888V197.384C69.6654 193.496 72.2574 191.648 75.4734 191.648C78.6414 191.648 81.2574 193.496 81.2574 197.384V197.888C81.2574 201.776 78.6414 203.624 75.4734 203.624ZM75.4734 202.04C77.8014 202.04 79.5294 200.624 79.5294 197.864V197.408C79.5294 194.624 77.8014 193.208 75.4734 193.208C73.1214 193.208 71.3934 194.624 71.3934 197.408V197.864C71.3934 200.624 73.1214 202.04 75.4734 202.04ZM72.3294 208.952H68.4894L68.3934 207.368H72.4254C75.1614 207.368 79.6014 207.104 83.0814 206.672L83.2734 208.184C79.9374 208.664 75.5934 208.952 72.3294 208.952ZM112.803 200.576H116.811V202.16H110.595V207.848H108.915V202.16H104.475V207.848H102.771V202.16H96.0752V200.576H111.075C111.603 197.72 111.915 194.72 111.915 193.112V192.8H98.6912V191.24H113.619V192.728C113.619 194.888 113.307 197.792 112.803 200.576ZM98.8592 205.256H100.587V211.04H114.507V212.6H98.8592V205.256ZM126.105 192.704H131.433V194.168H119.073V192.704H124.377V190.16H126.105V192.704ZM131.409 196.904V195.488H135.465V190.448H137.193V203.288H135.465V200.96H131.409V199.544H135.465V196.904H131.409ZM130.401 199.136V199.472C130.401 201.848 128.169 203.12 125.265 203.12C122.361 203.12 120.129 201.848 120.129 199.472V199.136C120.129 196.784 122.361 195.512 125.265 195.512C128.169 195.512 130.401 196.784 130.401 199.136ZM121.785 199.208V199.448C121.785 200.816 123.297 201.68 125.265 201.68C127.233 201.68 128.745 200.816 128.745 199.448V199.208C128.745 197.84 127.233 196.952 125.265 196.952C123.297 196.952 121.785 197.84 121.785 199.208ZM127.665 204.608H132.321C135.585 204.608 137.505 206.36 137.505 208.736C137.505 211.112 135.585 212.816 132.321 212.816H127.665C124.401 212.816 122.481 211.112 122.481 208.736C122.481 206.36 124.401 204.608 127.665 204.608ZM128.001 211.28H131.985C134.553 211.28 135.801 210.224 135.801 208.712C135.801 207.224 134.553 206.168 131.985 206.168H128.001C125.433 206.168 124.185 207.224 124.185 208.712C124.185 210.224 125.433 211.28 128.001 211.28ZM152.799 197.792H149.679C145.863 197.792 143.439 196.712 143.439 194.192C143.439 191.696 145.863 190.64 149.679 190.64H152.799C156.639 190.64 159.063 191.696 159.063 194.192C159.063 196.712 156.639 197.792 152.799 197.792ZM149.967 196.328H152.535C155.655 196.328 157.335 195.608 157.335 194.192C157.335 192.776 155.655 192.104 152.535 192.104H149.967C146.847 192.104 145.143 192.776 145.143 194.192C145.143 195.656 146.847 196.328 149.967 196.328ZM161.607 201.152H140.871V199.688H161.607V201.152ZM159.543 212.72H143.559V207.248H157.215V204.752H143.439V203.312H158.943V208.688H145.263V211.256H159.543V212.72ZM187.465 212.6H185.737V190.448H187.465V212.6ZM175.393 209.648C172.273 209.648 169.705 207.56 169.705 202.304V198.992C169.705 193.736 172.273 191.648 175.393 191.648C178.513 191.648 181.081 193.736 181.081 198.992V202.304C181.081 207.56 178.513 209.648 175.393 209.648ZM175.393 208.064C177.673 208.064 179.377 206.408 179.377 202.28V198.992C179.377 194.864 177.673 193.232 175.393 193.232C173.113 193.232 171.433 194.864 171.433 198.992V202.28C171.433 206.408 173.113 208.064 175.393 208.064ZM194.046 195.224H207.27V192.488H193.926V191H208.998V196.688H195.75V199.448H209.454V200.936H194.046V195.224ZM191.142 205.064V203.552H211.878V205.064H202.374V208.784H200.67V205.064H191.142ZM193.926 207.056H195.654V211.04H209.574V212.6H193.926V207.056ZM236.512 199.112H240.184V200.696H236.512V212.6H234.784V190.448H236.512V199.112ZM228.376 193.904H219.88V192.344H230.08V194.048C230.08 200.312 226.432 205.76 220.552 209.792L219.52 208.448C224.992 204.776 228.376 199.568 228.376 194.384V193.904ZM260.134 212.6H258.406V190.448H260.134V212.6ZM248.062 209.648C244.942 209.648 242.374 207.56 242.374 202.304V198.992C242.374 193.736 244.942 191.648 248.062 191.648C251.182 191.648 253.75 193.736 253.75 198.992V202.304C253.75 207.56 251.182 209.648 248.062 209.648ZM248.062 208.064C250.342 208.064 252.046 206.408 252.046 202.28V198.992C252.046 194.864 250.342 193.232 248.062 193.232C245.782 193.232 244.102 194.864 244.102 198.992V202.28C244.102 206.408 245.782 208.064 248.062 208.064ZM266.5 192.08H281.668V193.664H268.204V202.112H281.884V203.672H266.5V192.08ZM284.548 210.824H263.812V209.24H284.548V210.824ZM303.706 199.112H307.378V200.696H303.706V212.6H301.978V190.448H303.706V199.112ZM288.562 207.824H290.77C293.458 207.824 296.746 207.536 299.434 207.104L299.65 208.616C297.106 209.072 293.698 209.384 290.482 209.384H286.858V199.904H295.114V193.784H286.858V192.224H296.818V201.464H288.562V207.824ZM327.351 207.272H325.623V190.448H327.351V207.272ZM315.351 203.288C312.159 203.288 309.567 201.416 309.567 197.504V197C309.567 193.064 312.159 191.168 315.351 191.168C318.495 191.168 321.087 193.064 321.087 197V197.504C321.087 201.416 318.495 203.288 315.351 203.288ZM315.351 201.752C317.655 201.752 319.383 200.312 319.383 197.48V197C319.383 194.168 317.655 192.704 315.351 192.704C313.023 192.704 311.295 194.168 311.295 197V197.48C311.295 200.312 313.023 201.752 315.351 201.752ZM328.383 212.6H313.095V205.52H314.823V211.016H328.383V212.6ZM342.933 197.792H339.813C335.997 197.792 333.573 196.712 333.573 194.192C333.573 191.696 335.997 190.64 339.813 190.64H342.933C346.773 190.64 349.197 191.696 349.197 194.192C349.197 196.712 346.773 197.792 342.933 197.792ZM340.101 196.328H342.669C345.789 196.328 347.469 195.608 347.469 194.192C347.469 192.776 345.789 192.104 342.669 192.104H340.101C336.981 192.104 335.277 192.776 335.277 194.192C335.277 195.656 336.981 196.328 340.101 196.328ZM351.741 201.152H331.005V199.688H351.741V201.152ZM349.677 212.72H333.693V207.248H347.349V204.752H333.573V203.312H349.077V208.688H335.397V211.256H349.677V212.72ZM376.183 212.6V190.448H377.863V212.6H376.183ZM367.495 198.896H371.407V190.808H373.063V212.192H371.407V200.456H367.495V198.896ZM364.975 193.904V195.368C364.975 197.12 364.807 198.776 364.447 200.336L369.751 208.28L368.383 209.264L363.847 202.472C363.007 204.896 361.711 207.2 359.959 209.528L358.639 208.472C361.663 204.512 363.343 200.696 363.343 195.368V193.904H359.407V192.344H368.983V193.904H364.975ZM398.245 212.6V190.448H399.973V212.6H398.245ZM389.101 191.816V194.576C389.101 196.496 388.861 198.32 388.381 200.048L395.269 208.16L393.997 209.288L387.757 201.92C386.677 204.608 384.925 207.104 382.477 209.528L381.277 208.352C385.357 204.344 387.421 200.168 387.421 194.576V191.816H389.101ZM421.147 199.112H424.843V200.696H421.147V212.6H419.443V190.448H421.147V199.112ZM409.363 190.472H411.067V193.976H416.635V195.536H403.795V193.976H409.363V190.472ZM410.251 197.816C413.227 197.816 415.579 199.784 415.579 203V204.272C415.579 207.464 413.227 209.48 410.251 209.48C407.251 209.48 404.875 207.464 404.875 204.272V203C404.875 199.784 407.251 197.816 410.251 197.816ZM413.875 204.2V203.072C413.875 200.768 412.267 199.4 410.251 199.4C408.187 199.4 406.603 200.768 406.603 203.072V204.2C406.603 206.504 408.187 207.92 410.251 207.92C412.267 207.92 413.875 206.504 413.875 204.2ZM17.496 230.576V229.88H3.336V228.32H19.2V230.192C19.2 233.312 18.672 237.536 17.976 241.328L16.296 241.016C16.992 237.296 17.496 233 17.496 230.576ZM10.728 235.856V245.24H21.744V246.824H1.008V245.24H9.024V235.856H10.728ZM25.3258 251.528H23.9098L24.4138 245.168H26.1418L25.3258 251.528ZM50.9507 234.92L49.2947 234.68C49.7747 232.376 50.0147 229.928 50.0147 228.8H36.7667V227.24H51.7187V228.392C51.7187 230.144 51.4547 232.568 50.9507 234.92ZM44.3987 231.776V236.36H54.7187V237.896H33.9827V236.36H42.6947V231.776H44.3987ZM41.9747 240.488H46.7267C50.3747 240.488 52.2947 242.312 52.2947 244.664C52.2947 247.04 50.3747 248.84 46.7267 248.84H41.9747C38.3507 248.84 36.4307 247.04 36.4307 244.664C36.4307 242.312 38.3507 240.488 41.9747 240.488ZM42.3827 247.328H46.3187C49.1747 247.328 50.5667 246.248 50.5667 244.64C50.5667 243.104 49.1747 242 46.3187 242H42.3827C39.5267 242 38.1347 243.104 38.1347 244.64C38.1347 246.248 39.5267 247.328 42.3827 247.328ZM73.3485 234.92L71.6925 234.68C72.1725 232.376 72.4125 229.928 72.4125 228.8H59.1645V227.24H74.1165V228.392C74.1165 230.144 73.8525 232.568 73.3485 234.92ZM66.7965 231.776V236.36H77.1165V237.896H56.3805V236.36H65.0925V231.776H66.7965ZM64.3725 240.488H69.1245C72.7725 240.488 74.6925 242.312 74.6925 244.664C74.6925 247.04 72.7725 248.84 69.1245 248.84H64.3725C60.7485 248.84 58.8285 247.04 58.8285 244.664C58.8285 242.312 60.7485 240.488 64.3725 240.488ZM64.7805 247.328H68.7165C71.5725 247.328 72.9645 246.248 72.9645 244.64C72.9645 243.104 71.5725 242 68.7165 242H64.7805C61.9245 242 60.5325 243.104 60.5325 244.64C60.5325 246.248 61.9245 247.328 64.7805 247.328ZM96.4663 235.352H99.9223V236.912H96.4663V248.6H94.7623V226.448H96.4663V235.352ZM89.0503 230.456V229.904H79.9783V228.344H90.7783V230.024C90.7783 233.024 90.3223 236.72 89.6503 240.176L87.9703 239.888C88.6423 236.456 89.0503 232.712 89.0503 230.456ZM84.9223 235.112V243.32C87.3463 243.224 90.2503 243.008 92.6503 242.696L92.8423 244.208C89.6023 244.664 85.3303 244.952 82.1623 244.952H78.5143L78.4423 243.368H82.2583H83.1943V235.112H84.9223ZM125.396 243.272H123.668V226.448H125.396V243.272ZM118.46 238.712H107.852V227.768H118.46V238.712ZM109.532 229.304V237.176H116.78V229.304H109.532ZM126.428 248.6H111.164V241.856H112.868V247.016H126.428V248.6ZM146.546 226.448V232.328H150.218V233.912H146.546V243.272H144.818V226.448H146.546ZM140.114 227.888V229.064C140.114 233.912 136.346 237.536 130.274 239.96L129.53 238.496C134.978 236.336 138.41 232.976 138.41 229.448H129.914V227.888H140.114ZM132.746 241.52H134.474V247.016H147.794V248.6H132.746V241.52ZM170.168 248.6H168.44V226.448H170.168V248.6ZM158.096 245.648C154.976 245.648 152.408 243.56 152.408 238.304V234.992C152.408 229.736 154.976 227.648 158.096 227.648C161.216 227.648 163.784 229.736 163.784 234.992V238.304C163.784 243.56 161.216 245.648 158.096 245.648ZM158.096 244.064C160.376 244.064 162.08 242.408 162.08 238.28V234.992C162.08 230.864 160.376 229.232 158.096 229.232C155.816 229.232 154.136 230.864 154.136 234.992V238.28C154.136 242.408 155.816 244.064 158.096 244.064ZM197.465 235.832L189.113 231.776C187.697 233.336 185.273 234.704 181.769 235.832L181.169 234.344C186.329 232.664 188.969 230.48 188.969 227.96V226.76H190.649V227.96C190.649 228.824 190.457 229.64 190.073 230.408L198.185 234.416L197.465 235.832ZM190.553 235.112V238.472H200.057V240.056H179.321V238.472H188.849V235.112H190.553ZM182.225 242.168H183.929V247.016H197.753V248.6H182.225V242.168ZM213.647 233.792H210.527C206.711 233.792 204.287 232.712 204.287 230.192C204.287 227.696 206.711 226.64 210.527 226.64H213.647C217.487 226.64 219.911 227.696 219.911 230.192C219.911 232.712 217.487 233.792 213.647 233.792ZM210.815 232.328H213.383C216.503 232.328 218.183 231.608 218.183 230.192C218.183 228.776 216.503 228.104 213.383 228.104H210.815C207.695 228.104 205.991 228.776 205.991 230.192C205.991 231.656 207.695 232.328 210.815 232.328ZM222.455 237.152H201.719V235.688H222.455V237.152ZM220.391 248.72H204.407V243.248H218.063V240.752H204.287V239.312H219.791V244.688H206.111V247.256H220.391V248.72ZM247.065 231.176H250.737V232.736H247.065V237.992H245.361V226.448H247.065V231.176ZM241.761 237.872L235.545 233.696C234.465 235.4 232.641 236.912 230.049 238.352L229.257 236.936C232.977 234.776 235.065 232.544 235.065 229.448V229.184H230.097V227.648H241.761V229.184H236.745V229.448C236.745 230.456 236.577 231.368 236.265 232.256L242.649 236.48L241.761 237.872ZM234.993 242.288H245.361V239.336H247.065V248.6H233.265V239.336H234.993V242.288ZM234.993 243.824V247.04H245.361V243.824H234.993ZM269.463 235.112H273.159V236.696H269.463V248.6H267.759V226.448H269.463V235.112ZM257.871 227.648C260.943 227.648 263.439 229.736 263.439 234.992V238.304C263.439 243.56 260.943 245.648 257.871 245.648C254.775 245.648 252.279 243.56 252.279 238.304V234.992C252.279 229.736 254.775 227.648 257.871 227.648ZM261.711 238.28V234.992C261.711 230.864 260.079 229.232 257.871 229.232C255.639 229.232 253.983 230.864 253.983 234.992V238.28C253.983 242.408 255.639 244.064 257.871 244.064C260.079 244.064 261.711 242.408 261.711 238.28ZM291.817 237.272H288.673C284.713 237.272 282.265 235.304 282.265 232.256C282.265 229.256 284.713 227.288 288.673 227.288H291.817C295.753 227.288 298.249 229.256 298.249 232.256C298.249 235.304 295.753 237.272 291.817 237.272ZM291.529 228.824H288.937C285.769 228.824 283.969 230.216 283.969 232.256C283.969 234.344 285.769 235.736 288.937 235.736H291.529C294.721 235.736 296.521 234.32 296.521 232.256C296.521 230.216 294.721 228.824 291.529 228.824ZM279.865 240.488H300.601V242.048H295.057V248.84H293.329V242.048H287.161V248.84H285.433V242.048H279.865V240.488ZM319.278 235.928H314.262C313.422 238.184 311.358 239.288 308.982 239.288C305.79 239.288 303.222 237.416 303.222 233.504V233C303.222 229.064 305.79 227.168 308.982 227.168C311.094 227.168 312.966 228.032 313.95 229.832H319.278V226.448H321.006V243.272H319.278V235.928ZM304.95 233V233.48C304.95 236.312 306.654 237.752 308.982 237.752C311.262 237.752 312.966 236.312 312.966 233.48V233C312.966 230.168 311.262 228.704 308.982 228.704C306.654 228.704 304.95 230.168 304.95 233ZM319.278 234.488V231.32H314.502C314.598 231.824 314.67 232.4 314.67 233V233.504C314.67 233.84 314.646 234.176 314.622 234.488H319.278ZM308.478 241.52V247.016H322.038V248.6H306.75V241.52H308.478ZM332.052 228.944H337.62V230.432H324.78V228.944H330.348V226.16H332.052V228.944ZM342.132 226.448V233.24H345.828V234.848H342.132V243.488H340.428V226.448H342.132ZM336.588 236.072V236.48C336.588 239.12 334.236 240.632 331.236 240.632C328.236 240.632 325.86 239.12 325.86 236.48V236.072C325.86 233.432 328.236 231.968 331.236 231.968C334.236 231.968 336.588 233.432 336.588 236.072ZM327.564 236.12V236.456C327.564 238.088 329.172 239.12 331.236 239.12C333.276 239.12 334.908 238.088 334.908 236.456V236.12C334.908 234.488 333.276 233.456 331.236 233.456C329.172 233.456 327.564 234.488 327.564 236.12ZM328.356 242.624H330.084V247.016H343.404V248.576H328.356V242.624ZM363.766 239.432V245.24H373.27V246.824H352.534V245.24H362.062V239.432H355.222V228.08H370.39V229.64H356.926V237.896H370.606V239.432H363.766ZM391.9 248.6V226.448H393.628V248.6H391.9ZM382.756 227.816V230.576C382.756 232.496 382.516 234.32 382.036 236.048L388.924 244.16L387.652 245.288L381.412 237.92C380.332 240.608 378.58 243.104 376.132 245.528L374.932 244.352C379.012 240.344 381.076 236.168 381.076 230.576V227.816H382.756ZM414.658 248.6V226.448H416.338V248.6H414.658ZM406.426 232.112H409.882V226.808H411.538V248.192H409.882V240.608H405.73V239.072H409.882V233.672H406.186C405.298 238.376 402.706 242.456 399.106 245.792L397.882 244.544C402.13 240.752 404.818 235.568 404.818 230.384V229.904H398.29V228.344H406.522V230.048C406.522 230.744 406.474 231.44 406.426 232.112ZM9.24 264.44H14.88V265.856H1.896V264.44H7.512V262.16H9.24V264.44ZM18 276.776V262.448H19.704V276.776H18ZM15.912 274.352L16.08 275.72C12.744 276.2 8.4 276.464 5.136 276.464H1.296L1.2 275.048H5.232C5.904 275.048 6.696 275.024 7.536 275V273.272C4.896 273.08 2.976 272.072 2.976 270.248V269.984C2.976 267.968 5.352 266.96 8.424 266.96C11.424 266.96 13.8 267.968 13.8 269.984V270.248C13.8 272.072 11.856 273.08 9.264 273.272V274.928C11.448 274.808 13.848 274.616 15.912 274.352ZM4.656 270.056V270.224C4.656 271.256 6.288 271.928 8.424 271.928C10.488 271.928 12.12 271.256 12.12 270.224V270.056C12.12 269.024 10.488 268.328 8.424 268.328C6.288 268.328 4.656 269.024 4.656 270.056ZM18 279.848H5.016V278.336H19.704V284.816H18V279.848ZM41.0938 271.352H44.5498V272.912H41.0938V284.6H39.3898V262.448H41.0938V271.352ZM33.6778 266.456V265.904H24.6058V264.344H35.4058V266.024C35.4058 269.024 34.9498 272.72 34.2778 276.176L32.5978 275.888C33.2698 272.456 33.6778 268.712 33.6778 266.456ZM29.5498 271.112V279.32C31.9738 279.224 34.8778 279.008 37.2778 278.696L37.4698 280.208C34.2298 280.664 29.9578 280.952 26.7898 280.952H23.1418L23.0698 279.368H26.8858H27.8218V271.112H29.5498ZM68.1276 274.4H72.0156V275.984H66.4716V284.864H64.7436V275.984H58.5756V284.864H56.8476V275.984H51.2796V274.4H66.3996C66.9756 271.208 67.3596 267.728 67.3596 265.784V265.28H53.6556V263.696H69.0636V265.4C69.0636 267.92 68.6796 271.256 68.1276 274.4ZM90.9814 284.6V262.448H92.6614V284.6H90.9814ZM82.2934 270.896H86.2054V262.808H87.8614V284.192H86.2054V272.456H82.2934V270.896ZM79.7734 265.904V267.368C79.7734 269.12 79.6054 270.776 79.2454 272.336L84.5494 280.28L83.1814 281.264L78.6454 274.472C77.8054 276.896 76.5094 279.2 74.7574 281.528L73.4374 280.472C76.4614 276.512 78.1414 272.696 78.1414 267.368V265.904H74.2054V264.344H83.7814V265.904H79.7734ZM107.307 276.488V281.24H116.811V282.824H96.0752V281.24H105.603V276.488H98.7632V269.48H112.419V265.64H98.6432V264.08H114.147V271.016H100.467V274.952H114.627V276.488H107.307ZM136.189 268.496V266.96H140.965V262.448H142.669V273.296H140.965V268.496H136.189ZM136.981 273.296L130.621 269.312C129.517 270.944 127.669 272.336 125.053 273.656L124.285 272.24C128.077 270.224 130.189 268.184 130.189 265.232V265.064H125.149V263.528H136.957V265.064H131.869V265.232C131.869 266.216 131.701 267.104 131.365 267.944L137.845 271.856L136.981 273.296ZM130.141 280.472V283.208H143.581V284.72H128.437V278.984H140.965V276.344H128.317V274.88H142.669V280.472H130.141ZM163.819 271.112H167.491V272.696H163.819V284.6H162.091V262.448H163.819V271.112ZM153.499 267.8V268.136C153.499 269.648 153.307 271.088 152.923 272.456L159.427 280.136L158.131 281.288L152.275 274.304C151.219 276.824 149.515 279.176 147.211 281.552L145.987 280.352C149.635 276.584 151.795 272.936 151.795 268.136V267.8H146.731V266.24H151.819V262.472H153.523V266.24H158.635V267.8H153.499ZM187.057 271.208H171.649V266.384H184.873V264.272H171.529V262.88H186.601V267.728H173.353V269.864H187.057V271.208ZM189.481 274.4H168.745V273.008H189.481V274.4ZM187.417 284.72H171.433V279.728H185.089V277.616H171.313V276.224H186.817V281.12H173.137V283.304H187.417V284.72ZM214.474 271.112H217.906V272.696H214.474V284.6H212.818V262.448H214.474V271.112ZM204.226 270.632H207.802V264.104H209.386V280.952H197.506V264.104H199.09V270.632H202.666V264.104H204.226V270.632ZM202.666 272.144H199.09V279.392H202.666V272.144ZM204.226 272.144V279.392H207.802V272.144H204.226ZM237.568 276.728H221.704V269.6H235.36V265.64H221.584V264.08H237.088V271.136H223.408V275.168H237.568V276.728ZM239.752 282.824H219.016V281.24H239.752V282.824ZM258.742 284.6V262.448H260.422V284.6H258.742ZM249.814 271.592H253.966V262.808H255.622V284.192H253.966V273.152H249.286C247.99 276.416 245.878 279.32 243.19 281.792L241.966 280.544C246.214 276.752 248.926 271.568 248.926 266.384V265.904H242.374V264.344H250.63V266.048C250.63 267.992 250.342 269.84 249.814 271.592ZM286.304 262.448H288.008V279.272H286.304V262.448ZM282.488 275.84L276.128 270.776C275 272.792 273.128 274.592 270.536 276.32L269.624 274.976C273.488 272.288 275.696 269.6 275.696 265.832V265.304H270.488V263.768H282.584V265.304H277.376V265.832C277.376 267.056 277.184 268.208 276.8 269.288L283.448 274.496L282.488 275.84ZM275.48 277.856V283.016H289.04V284.6H273.776V277.856H275.48ZM297.877 264.704H302.269V266.144H291.781V264.704H296.149V262.16H297.877V264.704ZM309.037 269.672H305.677V275.048H304.045V262.688H305.677V268.112H309.037V262.448H310.693V275.288H309.037V269.672ZM301.405 271.088V271.424C301.405 273.776 299.605 275.048 297.061 275.048C294.469 275.048 292.669 273.776 292.669 271.424V271.088C292.669 268.76 294.469 267.488 297.061 267.488C299.605 267.488 301.405 268.76 301.405 271.088ZM294.277 271.16V271.376C294.277 272.744 295.381 273.584 297.061 273.584C298.693 273.584 299.797 272.744 299.797 271.376V271.16C299.797 269.84 298.693 268.952 297.061 268.952C295.381 268.952 294.277 269.84 294.277 271.16ZM300.973 276.608H305.797C309.085 276.608 311.005 278.36 311.005 280.712C311.005 283.112 309.085 284.816 305.797 284.816H300.973C297.661 284.816 295.741 283.112 295.741 280.712C295.741 278.36 297.661 276.608 300.973 276.608ZM301.309 283.28H305.437C308.053 283.28 309.277 282.224 309.277 280.712C309.277 279.224 308.053 278.168 305.437 278.168H301.309C298.717 278.168 297.469 279.224 297.469 280.712C297.469 282.224 298.717 283.28 301.309 283.28ZM331.555 271.112H335.251V272.696H331.555V284.6H329.851V262.448H331.555V271.112ZM319.771 262.472H321.475V265.976H327.043V267.536H314.203V265.976H319.771V262.472ZM320.659 269.816C323.635 269.816 325.987 271.784 325.987 275V276.272C325.987 279.464 323.635 281.48 320.659 281.48C317.659 281.48 315.283 279.464 315.283 276.272V275C315.283 271.784 317.659 269.816 320.659 269.816ZM324.283 276.2V275.072C324.283 272.768 322.675 271.4 320.659 271.4C318.595 271.4 317.011 272.768 317.011 275.072V276.2C317.011 278.504 318.595 279.92 320.659 279.92C322.675 279.92 324.283 278.504 324.283 276.2ZM353.857 262.472H355.513V274.568H353.857V262.472ZM349.201 269.912H344.377C342.985 271.88 340.729 273.44 337.873 274.688L337.057 273.296C341.377 271.376 344.209 268.496 344.281 265.352H337.465V263.768H345.985V264.872C345.985 266.144 345.745 267.296 345.265 268.352H349.201V262.688H350.833V274.568H349.201V269.912ZM352.657 279.584L357.457 283.568L356.425 284.816L351.961 281.024C351.193 282.296 349.921 283.592 347.953 284.816L343.489 281.024C342.721 282.272 341.449 283.568 339.481 284.816L338.569 283.52C342.121 281.192 342.961 278.984 342.961 277.184V276.032H344.641V277.184C344.641 277.904 344.521 278.72 344.209 279.584L348.073 282.8C350.761 280.736 351.409 278.792 351.409 277.184V276.032H353.089V277.184C353.089 277.904 352.969 278.72 352.657 279.584ZM376.375 271.112H380.047V272.696H376.375V284.6H374.647V262.448H376.375V271.112ZM361.255 279.344H363.271C365.911 279.344 369.319 279.032 372.127 278.624L372.319 280.136C369.703 280.592 366.175 280.904 362.983 280.904H359.527V264.224H369.943V265.808H361.255V279.344ZM385.885 270.08H399.301V271.664H384.181V263H385.885V270.08ZM402.013 276.08H381.277V274.496H402.013V276.08ZM399.709 284.6H384.181V278.168H385.885V283.016H399.709V284.6ZM427.846 284.6H426.142V262.448H427.846V284.6ZM416.422 275.624C413.206 275.624 410.614 273.776 410.614 269.888V269.384C410.614 265.496 413.206 263.648 416.422 263.648C419.59 263.648 422.206 265.496 422.206 269.384V269.888C422.206 273.776 419.59 275.624 416.422 275.624ZM416.422 274.04C418.75 274.04 420.478 272.624 420.478 269.864V269.408C420.478 266.624 418.75 265.208 416.422 265.208C414.07 265.208 412.342 266.624 412.342 269.408V269.864C412.342 272.624 414.07 274.04 416.422 274.04ZM413.278 280.952H409.438L409.342 279.368H413.374C416.11 279.368 420.55 279.104 424.03 278.672L424.222 280.184C420.886 280.664 416.542 280.952 413.278 280.952ZM18 320.6V298.448H19.704V320.6H18ZM9.072 301.904V303.152C9.072 304.952 8.832 306.632 8.376 308.216L15.168 316.136L13.92 317.288L7.728 310.04C6.648 312.68 4.896 315.08 2.568 317.528L1.32 316.352C5.112 312.416 7.368 308.624 7.368 303.152V301.904H2.208V300.344H14.28V301.904H9.072ZM34.6378 312.488V317.24H44.1418V318.824H23.4058V317.24H32.9338V312.488H26.0938V305.48H39.7498V301.64H25.9738V300.08H41.4778V307.016H27.7978V310.952H41.9578V312.488H34.6378ZM68.2956 320.6V298.448H69.9996V320.6H68.2956ZM61.5276 301.904H52.7916V300.344H63.2556V302.048C63.2556 308.312 59.5116 313.784 53.4636 317.792L52.4556 316.448C58.0716 312.8 61.5276 307.568 61.5276 302.384V301.904ZM81.9094 300.44H87.5494V301.856H74.5654V300.44H80.1814V298.16H81.9094V300.44ZM90.6694 312.776V298.448H92.3734V312.776H90.6694ZM88.5814 310.352L88.7494 311.72C85.4134 312.2 81.0694 312.464 77.8054 312.464H73.9654L73.8694 311.048H77.9014C78.5734 311.048 79.3654 311.024 80.2054 311V309.272C77.5654 309.08 75.6454 308.072 75.6454 306.248V305.984C75.6454 303.968 78.0214 302.96 81.0934 302.96C84.0934 302.96 86.4694 303.968 86.4694 305.984V306.248C86.4694 308.072 84.5254 309.08 81.9334 309.272V310.928C84.1174 310.808 86.5174 310.616 88.5814 310.352ZM77.3254 306.056V306.224C77.3254 307.256 78.9574 307.928 81.0934 307.928C83.1574 307.928 84.7894 307.256 84.7894 306.224V306.056C84.7894 305.024 83.1574 304.328 81.0934 304.328C78.9574 304.328 77.3254 305.024 77.3254 306.056ZM90.6694 315.848H77.6854V314.336H92.3734V320.816H90.6694V315.848ZM113.715 306.128H110.475V311.504H108.843V298.568H110.475V304.592H113.715V298.472H115.347V311.504H113.715V306.128ZM107.163 308.864L107.331 310.328C104.547 310.712 101.115 310.904 98.4992 310.904H96.0032L95.9312 309.392H98.5712C99.1952 309.392 99.9632 309.368 100.779 309.344V306.608H97.0832V299.408H105.723V300.872H98.6912V305.168H105.939V306.608H102.411V309.272C103.971 309.176 105.627 309.056 107.163 308.864ZM112.467 316.04L117.243 319.544L116.355 320.816L111.747 317.408C110.979 318.56 109.683 319.712 107.643 320.816L103.131 317.36C102.339 318.536 101.043 319.712 99.0032 320.816L98.1632 319.496C101.763 317.48 102.603 315.584 102.603 313.928V312.944H104.235V313.928C104.235 314.576 104.139 315.296 103.851 316.016L107.763 318.944C110.571 317.144 111.195 315.44 111.195 313.928V312.944H112.851V313.928C112.851 314.576 112.755 315.296 112.467 316.04ZM135.465 307.352V298.448H137.193V320.6H135.465V308.912H130.809V310.304C130.809 315.56 128.241 317.648 125.121 317.648C122.001 317.648 119.433 315.56 119.433 310.304V306.992C119.433 301.736 122.001 299.648 125.121 299.648C128.241 299.648 130.809 301.736 130.809 306.992V307.352H135.465ZM129.105 310.28V306.992C129.105 302.864 127.401 301.232 125.121 301.232C122.841 301.232 121.161 302.864 121.161 306.992V310.28C121.161 314.408 122.841 316.064 125.121 316.064C127.401 316.064 129.105 314.408 129.105 310.28ZM152.847 311.312H149.655C145.623 311.312 143.151 308.816 143.151 305.504C143.151 302.216 145.623 299.72 149.655 299.72H152.847C156.855 299.72 159.375 302.216 159.375 305.504C159.375 308.816 156.855 311.312 152.847 311.312ZM152.559 301.28H149.943C146.679 301.28 144.855 303.104 144.855 305.504C144.855 307.952 146.679 309.776 149.943 309.776H152.559C155.799 309.776 157.647 307.952 157.647 305.504C157.647 303.104 155.799 301.28 152.559 301.28ZM156.039 312.656V317.24H161.607V318.8H140.871V317.24H146.463V312.656H148.167V317.24H154.335V312.656H156.039ZM165.093 319.688C164.349 319.688 163.773 319.088 163.773 318.344C163.773 317.6 164.349 317.024 165.093 317.024C165.837 317.024 166.437 317.6 166.437 318.344C166.437 319.088 165.837 319.688 165.093 319.688Z" fill="#171717"/>
<path d="M26.424 1.136H29.988V26.156H26.424V1.136ZM20.916 20.576L11.7 13.7C9.972 16.472 7.344 18.92 3.708 21.26L1.728 18.452C7.848 14.528 10.584 10.316 10.584 4.988V2.396H14.112V4.988C14.112 6.968 13.824 8.84 13.212 10.568L22.932 17.84L20.916 20.576ZM11.484 24.068V31.268H31.392V34.544H7.92V24.068H11.484ZM62.9727 14.312L50.2287 9.272C47.9607 11.324 44.3607 12.98 39.1767 14.312L38.0967 11.216C46.0887 9.056 49.6527 6.212 49.6527 2.972V1.496H53.1447V2.972C53.1447 4.232 52.8927 5.42 52.3527 6.5L64.3047 11.324L62.9727 14.312ZM53.0007 13.196V17.084H66.8967V20.18H35.5047V17.084H49.4367V13.196H53.0007ZM59.4807 27.02H39.3567V23.78H63.0807V34.904H59.4807V27.02ZM87.1374 16.256V18.848H101.033V21.764H69.6414V18.848H83.5734V16.256H73.8174V1.856H96.8574V4.808H77.4174V7.508H96.8574V10.424H77.4174V13.304H97.5414V16.256H87.1374ZM81.4134 24.14H89.2614C94.6254 24.14 97.5414 26.336 97.5414 29.54C97.5414 32.78 94.6254 34.904 89.2614 34.904H81.4134C76.0494 34.904 73.1334 32.78 73.1334 29.54C73.1334 26.336 76.0494 24.14 81.4134 24.14ZM82.2414 31.952H88.4694C92.2854 31.952 93.9774 31.088 93.9774 29.504C93.9774 27.956 92.2854 27.056 88.4694 27.056H82.2414C78.4254 27.056 76.7334 27.956 76.7334 29.504C76.7334 31.088 78.4254 31.952 82.2414 31.952ZM115.442 4.016H123.398V6.932H103.85V4.016H111.806V0.739999H115.442V4.016ZM130.526 8.804H135.71V12.08H130.526V19.64H126.926V1.136H130.526V8.804ZM121.922 13.952V14.384C121.922 17.948 118.286 19.784 113.678 19.784C109.034 19.784 105.398 17.948 105.398 14.384V13.952C105.398 10.352 109.034 8.552 113.678 8.552C118.286 8.552 121.922 10.352 121.922 13.952ZM108.926 14.024V14.312C108.926 15.932 110.978 16.868 113.678 16.868C116.342 16.868 118.43 15.932 118.43 14.312V14.024C118.43 12.476 116.342 11.432 113.678 11.432C110.978 11.432 108.926 12.476 108.926 14.024ZM112.706 24.752H126.926V21.368H130.526V34.544H109.106V21.368H112.706V24.752ZM112.706 27.884V31.376H126.926V27.884H112.706ZM162.971 34.544V1.136H166.535V34.544H162.971ZM152.675 7.04H140.147V3.764H156.275V6.716C156.275 16.184 150.875 24.428 141.587 30.548L139.427 27.704C148.067 22.16 152.675 14.492 152.675 7.436V7.04ZM184.976 3.692H193.04V6.464H173.312V3.692H181.376V0.739999H184.976V3.692ZM197.072 22.664V1.136H200.672V22.664H197.072ZM194.336 18.632L194.66 21.404C189.548 22.124 182.996 22.484 178.1 22.484H172.52L172.376 19.64H178.424C179.324 19.64 180.332 19.64 181.412 19.604V17.408C177.632 17.048 174.86 15.536 174.86 12.8V12.476C174.86 9.272 178.532 7.796 183.212 7.796C187.82 7.796 191.528 9.272 191.528 12.476V12.8C191.528 15.536 188.72 17.048 184.976 17.408V19.424C188.072 19.28 191.384 18.992 194.336 18.632ZM178.352 12.548V12.764C178.352 13.988 180.476 14.78 183.212 14.78C185.876 14.78 188 13.988 188 12.764V12.548C188 11.288 185.876 10.496 183.212 10.496C180.476 10.496 178.352 11.288 178.352 12.548ZM197.072 27.848H177.884V24.788H200.672V34.904H197.072V27.848ZM224.476 15.284H219.328C213.64 15.284 209.86 12.764 209.86 8.372C209.86 4.016 213.64 1.496 219.328 1.496H224.476C230.164 1.496 233.908 4.016 233.908 8.372C233.908 12.764 230.164 15.284 224.476 15.284ZM219.94 12.152H223.864C228.004 12.152 230.344 10.712 230.344 8.408C230.344 6.032 228.004 4.628 223.864 4.628H219.94C215.8 4.628 213.46 6.032 213.46 8.408C213.46 10.712 215.8 12.152 219.94 12.152ZM237.58 21.98H206.188V18.704H237.58V21.98ZM234.268 34.544H210.364V24.86H213.964V31.196H234.268V34.544Z" fill="#171717"/>
</svg>
