<svg width="217" height="364" viewBox="0 0 217 364" fill="none" xmlns="http://www.w3.org/2000/svg">
<path d="M64.2 177.7H10.5V172.1L40.4 142.4C50.3 132.5 54.9 125.6 54.9 117.2C54.9 108.1 48.2 102.4 37.1 102.4C26 102.4 20.6 110.4 17.7 119.8L10.8 118.1C14 106.6 22.4 95.8 37.1 95.8C52.1 95.8 62 104.1 62 117.1C62 128.1 55.8 136.5 45.7 146.6L21.1 171.1H64.2V177.7ZM84.8392 172.914L72.4192 142.026H76.5232L86.7832 168.378L97.1512 142.026H101.201L87.2692 176.802C85.5952 181.176 83.2732 183.228 79.9252 183.228C77.7652 183.228 75.4972 182.688 73.6612 181.932L74.6872 178.692C76.4152 179.286 77.8732 179.718 79.4392 179.718C81.0592 179.718 82.5172 178.962 83.5972 176.1L84.8392 172.914ZM131.598 156.12V159.036H107.622V159.468C107.622 166.596 112.428 170.538 117.882 170.538C121.986 170.538 125.982 168.432 127.548 164.328L131.166 165.57C129.114 171.24 123.552 174.048 117.882 174.048C110.484 174.048 103.788 169.08 103.788 159.63V155.634C103.788 146.184 110.322 141.216 117.666 141.216C125.28 141.216 131.598 146.292 131.598 156.12ZM117.666 144.726C112.158 144.726 107.73 148.614 107.622 155.58H127.71C127.71 148.776 123.552 144.726 117.666 144.726ZM150.561 141.216C157.743 141.216 162.765 145.698 162.765 153.258V173.238H159.255L158.985 168.918C157.203 172.05 153.801 174.048 149.319 174.048H147.213C141.219 174.048 136.899 169.944 136.899 164.382C136.899 158.766 141.273 154.878 149.049 154.878H158.877V153.528C158.877 148.236 155.907 144.834 150.291 144.834C146.241 144.834 143.325 146.724 141.705 149.748L138.195 148.128C140.301 144.024 144.891 141.216 150.561 141.216ZM147.861 170.43H149.859C154.233 170.43 158.337 167.73 158.877 163.464V158.388H149.319C143.325 158.388 140.787 160.872 140.787 164.382C140.787 168.162 143.595 170.43 147.861 170.43ZM182.566 141.216C184.132 141.216 185.536 141.432 186.724 141.864L185.806 145.374C184.51 145.05 183.16 144.834 181.972 144.834C177.49 144.834 174.628 149.424 174.628 154.716V173.238H170.686V142.026H174.304L174.52 146.94C176.086 143.538 178.84 141.216 182.566 141.216ZM188.255 166.056L191.387 164.112C193.709 168.54 197.381 170.646 201.917 170.646C206.399 170.646 209.909 168.918 209.909 165.57C209.909 162.33 207.317 160.98 203.537 159.846L199.271 158.604C194.303 157.146 190.361 154.824 190.361 149.586C190.361 144.348 195.059 141.216 201.053 141.216C206.939 141.216 211.043 143.916 213.527 148.452L210.503 150.45C208.451 146.886 205.211 144.618 200.999 144.618C196.787 144.618 194.141 146.616 194.141 149.586C194.141 152.556 196.247 154.014 199.919 155.148L204.185 156.39C209.153 157.848 213.689 160.062 213.689 165.57C213.689 171.186 208.181 174.048 201.863 174.048C195.707 174.048 190.901 171.348 188.255 166.056Z" fill="#171717"/>
<path opacity="0.5" d="M29.552 27.264C40.784 27.264 48.344 35.112 48.344 46.2C48.344 57.216 40.352 65.064 28.544 65.064C20.408 65.064 12.704 61.464 9.392 54.264L13.856 51.816C16.376 57.648 22.208 60.312 28.4 60.312C37.112 60.312 43.232 54.768 43.232 46.2C43.232 37.56 37.472 32.088 28.904 32.088C22.424 32.088 18.104 35.76 16.016 41.304H11.048L14.864 6.096H46.256V10.848H19.328L16.808 33.168C19.76 29.28 24.44 27.264 29.552 27.264ZM62.5516 60.276L54.2716 39.684H57.0076L63.8476 57.252L70.7596 39.684H73.4596L64.1716 62.868C63.0556 65.784 61.5076 67.152 59.2756 67.152C57.8356 67.152 56.3236 66.792 55.0996 66.288L55.7836 64.128C56.9356 64.524 57.9076 64.812 58.9516 64.812C60.0316 64.812 61.0036 64.308 61.7236 62.4L62.5516 60.276ZM93.724 49.08V51.024H77.74V51.312C77.74 56.064 80.944 58.692 84.58 58.692C87.316 58.692 89.98 57.288 91.024 54.552L93.436 55.38C92.068 59.16 88.36 61.032 84.58 61.032C79.648 61.032 75.184 57.72 75.184 51.42V48.756C75.184 42.456 79.54 39.144 84.436 39.144C89.512 39.144 93.724 42.528 93.724 49.08ZM84.436 41.484C80.764 41.484 77.812 44.076 77.74 48.72H91.132C91.132 44.184 88.36 41.484 84.436 41.484ZM106.366 39.144C111.154 39.144 114.502 42.132 114.502 47.172V60.492H112.162L111.982 57.612C110.794 59.7 108.526 61.032 105.538 61.032H104.134C100.138 61.032 97.2579 58.296 97.2579 54.588C97.2579 50.844 100.174 48.252 105.358 48.252H111.91V47.352C111.91 43.824 109.93 41.556 106.186 41.556C103.486 41.556 101.542 42.816 100.462 44.832L98.1219 43.752C99.5259 41.016 102.586 39.144 106.366 39.144ZM104.566 58.62H105.898C108.814 58.62 111.55 56.82 111.91 53.976V50.592H105.538C101.542 50.592 99.8499 52.248 99.8499 54.588C99.8499 57.108 101.722 58.62 104.566 58.62ZM127.703 39.144C128.747 39.144 129.683 39.288 130.475 39.576L129.863 41.916C128.999 41.7 128.099 41.556 127.307 41.556C124.319 41.556 122.411 44.616 122.411 48.144V60.492H119.783V39.684H122.195L122.339 42.96C123.383 40.692 125.219 39.144 127.703 39.144ZM131.496 55.704L133.584 54.408C135.132 57.36 137.58 58.764 140.604 58.764C143.592 58.764 145.932 57.612 145.932 55.38C145.932 53.22 144.204 52.32 141.684 51.564L138.84 50.736C135.528 49.764 132.9 48.216 132.9 44.724C132.9 41.232 136.032 39.144 140.028 39.144C143.952 39.144 146.688 40.944 148.344 43.968L146.328 45.3C144.96 42.924 142.8 41.412 139.992 41.412C137.184 41.412 135.42 42.744 135.42 44.724C135.42 46.704 136.824 47.676 139.272 48.432L142.116 49.26C145.428 50.232 148.452 51.708 148.452 55.38C148.452 59.124 144.78 61.032 140.568 61.032C136.464 61.032 133.26 59.232 131.496 55.704Z" fill="#171717"/>
<line y1="49" x2="159" y2="49" stroke="#8B8B8B" stroke-width="2"/>
<path d="M23.024 226.448H24.728V243.272H23.024V226.448ZM19.28 239.264L12.752 234.344C11.624 236.336 9.776 238.088 7.184 239.72L6.272 238.376C10.304 235.76 12.392 232.904 12.392 229.088V227.36H14.096V229.088C14.096 230.432 13.88 231.656 13.448 232.832L20.24 237.944L19.28 239.264ZM12.2 241.856V247.016H25.76V248.6H10.496V241.856H12.2ZM45.2538 238.4H49.1418V239.984H43.5978V248.864H41.8698V239.984H35.7018V248.864H33.9738V239.984H28.4058V238.4H43.5258C44.1018 235.208 44.4858 231.728 44.4858 229.784V229.28H30.7818V227.696H46.1898V229.4C46.1898 231.92 45.8058 235.256 45.2538 238.4ZM73.5836 235.112V226.448H75.2636V248.6H73.5836V236.696H70.1516V248.192H68.4956V226.808H70.1516V235.112H73.5836ZM62.3996 229.904V231.368C62.3996 233.12 62.2316 234.752 61.8716 236.312L67.1516 244.256L65.7596 245.264L61.2476 238.472C60.4076 240.92 59.1116 243.2 57.3836 245.528L56.0156 244.448C59.0396 240.512 60.7436 236.696 60.7436 231.368V229.904H56.8076V228.344H66.3836V229.904H62.3996ZM96.0054 235.112V226.448H97.6854V248.6H96.0054V236.696H92.5734V248.192H90.8934V226.808H92.5734V235.112H96.0054ZM86.1894 229.904H79.6374V228.344H87.8934V230.048C87.8934 236.312 84.9414 241.64 80.4534 245.792L79.2294 244.544C83.4774 240.752 86.1894 235.568 86.1894 230.384V229.904ZM118.571 226.448V230.936H122.243V232.52H118.571V237.416H116.843V226.448H118.571ZM110.291 227.408H111.971V236.528H101.603V227.408H103.283V230.384H110.291V227.408ZM103.283 231.896V235.016H110.291V231.896H103.283ZM118.571 244.52H106.499V247.208H119.483V248.72H104.771V243.056H116.843V240.464H104.651V238.976H118.571V244.52ZM140.465 248.6V226.448H142.169V248.6H140.465ZM131.537 229.904V231.152C131.537 232.952 131.297 234.632 130.841 236.216L137.633 244.136L136.385 245.288L130.193 238.04C129.113 240.68 127.361 243.08 125.033 245.528L123.785 244.352C127.577 240.416 129.833 236.624 129.833 231.152V229.904H124.673V228.344H136.745V229.904H131.537ZM162.863 229.496V226.472H164.591V238.928H162.863V235.136H157.775C156.863 237.008 154.871 237.92 152.567 237.92C149.375 237.92 146.831 236.216 146.831 232.736V232.256C146.831 228.776 149.375 227.072 152.567 227.072C154.727 227.072 156.599 227.864 157.583 229.496H162.863ZM156.551 232.688V232.304C156.551 229.88 154.871 228.608 152.567 228.608C150.239 228.608 148.559 229.88 148.559 232.304V232.688C148.559 235.112 150.239 236.384 152.567 236.384C154.871 236.384 156.551 235.112 156.551 232.688ZM158.207 233.672H162.863V230.96H158.159C158.231 231.368 158.279 231.8 158.279 232.256V232.736C158.279 233.072 158.255 233.384 158.207 233.672ZM162.863 242.048H150.119V240.488H164.591V248.816H162.863V242.048ZM186.965 248.6H185.261V226.448H186.965V248.6ZM175.541 239.624C172.325 239.624 169.733 237.776 169.733 233.888V233.384C169.733 229.496 172.325 227.648 175.541 227.648C178.709 227.648 181.325 229.496 181.325 233.384V233.888C181.325 237.776 178.709 239.624 175.541 239.624ZM175.541 238.04C177.869 238.04 179.597 236.624 179.597 233.864V233.408C179.597 230.624 177.869 229.208 175.541 229.208C173.189 229.208 171.461 230.624 171.461 233.408V233.864C171.461 236.624 173.189 238.04 175.541 238.04ZM172.397 244.952H168.557L168.461 243.368H172.493C175.229 243.368 179.669 243.104 183.149 242.672L183.341 244.184C180.005 244.664 175.661 244.952 172.397 244.952ZM18.224 269.024V267.512H23V262.472H24.704V274.568H23V269.024H18.224ZM18.992 274.352L12.656 269.936C11.552 271.688 9.728 273.224 7.16 274.688L6.32 273.32C10.112 271.064 12.248 268.784 12.248 265.52V265.184H7.208V263.648H19.016V265.184H13.928V265.52C13.928 266.6 13.76 267.584 13.4 268.52L19.88 272.936L18.992 274.352ZM15.2 275.912H19.856C23.12 275.912 25.04 277.88 25.04 280.376C25.04 282.896 23.12 284.816 19.856 284.816H15.2C11.936 284.816 10.016 282.896 10.016 280.376C10.016 277.88 11.936 275.912 15.2 275.912ZM15.536 283.28H19.52C22.088 283.28 23.312 282.032 23.312 280.352C23.312 278.744 22.088 277.448 19.52 277.448H15.536C12.968 277.448 11.72 278.744 11.72 280.352C11.72 282.032 12.968 283.28 15.536 283.28ZM45.4218 284.6V262.448H47.1258V284.6H45.4218ZM31.2858 270.56H38.4858V263.984H40.1898V280.952H29.6058V263.984H31.2858V270.56ZM31.2858 272.12V279.368H38.4858V272.12H31.2858ZM67.6516 274.4H71.5396V275.984H62.0356V284.864H60.3316V275.984H50.8036V274.4H65.9236C66.4996 271.208 66.8836 267.728 66.8836 265.784V265.28H53.1796V263.696H68.5876V265.4C68.5876 267.92 68.2036 271.256 67.6516 274.4ZM90.1934 265.496V262.472H91.9214V274.928H90.1934V271.136H85.1054C84.1934 273.008 82.2014 273.92 79.8974 273.92C76.7054 273.92 74.1614 272.216 74.1614 268.736V268.256C74.1614 264.776 76.7054 263.072 79.8974 263.072C82.0574 263.072 83.9294 263.864 84.9134 265.496H90.1934ZM83.8814 268.688V268.304C83.8814 265.88 82.2014 264.608 79.8974 264.608C77.5694 264.608 75.8894 265.88 75.8894 268.304V268.688C75.8894 271.112 77.5694 272.384 79.8974 272.384C82.2014 272.384 83.8814 271.112 83.8814 268.688ZM85.5374 269.672H90.1934V266.96H85.4894C85.5614 267.368 85.6094 267.8 85.6094 268.256V268.736C85.6094 269.072 85.5854 269.384 85.5374 269.672ZM90.1934 278.048H77.4494V276.488H91.9214V284.816H90.1934V278.048ZM118.067 284.6V262.448H119.771V284.6H118.067ZM109.139 265.904V267.152C109.139 268.952 108.899 270.632 108.443 272.216L115.235 280.136L113.987 281.288L107.795 274.04C106.715 276.68 104.963 279.08 102.635 281.528L101.387 280.352C105.179 276.416 107.435 272.624 107.435 267.152V265.904H102.275V264.344H114.347V265.904H109.139ZM135.689 269.024V267.512H140.465V262.472H142.169V274.568H140.465V269.024H135.689ZM136.457 274.352L130.121 269.936C129.017 271.688 127.193 273.224 124.625 274.688L123.785 273.32C127.577 271.064 129.713 268.784 129.713 265.52V265.184H124.673V263.648H136.481V265.184H131.393V265.52C131.393 266.6 131.225 267.584 130.865 268.52L137.345 272.936L136.457 274.352ZM132.665 275.912H137.321C140.585 275.912 142.505 277.88 142.505 280.376C142.505 282.896 140.585 284.816 137.321 284.816H132.665C129.401 284.816 127.481 282.896 127.481 280.376C127.481 277.88 129.401 275.912 132.665 275.912ZM133.001 283.28H136.985C139.553 283.28 140.777 282.032 140.777 280.352C140.777 278.744 139.553 277.448 136.985 277.448H133.001C130.433 277.448 129.185 278.744 129.185 280.352C129.185 282.032 130.433 283.28 133.001 283.28ZM163.487 271.112H167.159V272.696H163.487V284.6H161.807V262.448H163.487V271.112ZM150.215 265.904H146.639V264.344H151.895V266.048C151.895 271.112 150.383 276.248 147.575 281.48L146.135 280.64C148.823 275.672 150.215 270.512 150.215 266.384V265.904ZM156.647 265.904H153.143V264.344H158.327V266.048C158.327 271.28 156.863 277.16 154.007 282.392L152.591 281.552C155.303 276.584 156.647 270.704 156.647 266.384V265.904ZM185.261 284.6V262.448H186.965V284.6H185.261ZM176.333 265.904V267.152C176.333 268.952 176.093 270.632 175.637 272.216L182.429 280.136L181.181 281.288L174.989 274.04C173.909 276.68 172.157 279.08 169.829 281.528L168.581 280.352C172.373 276.416 174.629 272.624 174.629 267.152V265.904H169.469V264.344H181.541V265.904H176.333ZM19.112 303.104V301.688H23V298.472H24.704V310.808H23V306.824H19.112V305.408H23V303.104H19.112ZM20.216 307.784L20.408 309.272C17.144 309.776 13.208 310.088 9.92 310.088H6.584L6.488 308.528H9.296V301.208H6.752V299.648H19.328V301.208H16.52V308.216C17.768 308.096 19.04 307.952 20.216 307.784ZM14.864 308.336V301.208H10.976V308.528C12.152 308.504 13.472 308.432 14.864 308.336ZM15.2 312.152H19.856C23.12 312.152 25.04 314.024 25.04 316.496C25.04 318.968 23.12 320.816 19.856 320.816H15.2C11.936 320.816 10.016 318.968 10.016 316.496C10.016 314.024 11.936 312.152 15.2 312.152ZM15.536 319.28H19.52C22.088 319.28 23.336 318.08 23.336 316.472C23.336 314.888 22.088 313.688 19.52 313.688H15.536C12.968 313.688 11.72 314.888 11.72 316.472C11.72 318.08 12.968 319.28 15.536 319.28ZM45.1338 308.576H49.1418V310.16H42.9258V315.848H41.2458V310.16H36.8058V315.848H35.1018V310.16H28.4058V308.576H43.4058C43.9338 305.72 44.2458 302.72 44.2458 301.112V300.8H31.0218V299.24H45.9498V300.728C45.9498 302.888 45.6378 305.792 45.1338 308.576ZM31.1898 313.256H32.9178V319.04H46.8378V320.6H31.1898V313.256ZM74.8076 311.96L66.1676 306.056C64.7516 308.192 62.1836 310.16 58.3196 311.96L57.5276 310.472C63.2156 307.784 65.9036 304.904 65.9036 301.472V299.72H67.6076V301.472C67.6076 302.552 67.3916 303.584 66.9596 304.592L75.7676 310.544L74.8076 311.96ZM67.5116 311.336V317.24H77.0156V318.8H56.2796V317.24H65.8076V311.336H67.5116ZM90.6534 311.312H87.4614C83.4294 311.312 80.9574 308.816 80.9574 305.504C80.9574 302.216 83.4294 299.72 87.4614 299.72H90.6534C94.6614 299.72 97.1814 302.216 97.1814 305.504C97.1814 308.816 94.6614 311.312 90.6534 311.312ZM90.3654 301.28H87.7494C84.4854 301.28 82.6614 303.104 82.6614 305.504C82.6614 307.952 84.4854 309.776 87.7494 309.776H90.3654C93.6054 309.776 95.4534 307.952 95.4534 305.504C95.4534 303.104 93.6054 301.28 90.3654 301.28ZM93.8454 312.656V317.24H99.4134V318.8H78.6774V317.24H84.2694V312.656H85.9734V317.24H92.1414V312.656H93.8454ZM113.727 307.088C117.471 307.088 119.991 309.704 119.991 313.4C119.991 317.072 117.327 319.688 113.391 319.688C110.679 319.688 108.111 318.488 107.007 316.088L108.495 315.272C109.335 317.216 111.279 318.104 113.343 318.104C116.247 318.104 118.287 316.256 118.287 313.4C118.287 310.52 116.367 308.696 113.511 308.696C111.351 308.696 109.911 309.92 109.215 311.768H107.559L108.831 300.032H119.295V301.616H110.319L109.479 309.056C110.463 307.76 112.023 307.088 113.727 307.088ZM141.107 315.272H139.403V307.112H133.523V305.672H139.403V302.936H133.523V301.52H139.403V298.448H141.107V315.272ZM135.587 308.816L135.803 310.328C133.283 310.736 130.091 311.048 127.091 311.048H123.923V299.768H125.651V309.464H127.379C129.827 309.464 132.947 309.2 135.587 308.816ZM128.579 313.856V319.016H142.139V320.6H126.875V313.856H128.579ZM162.089 320.6V298.448H163.769V320.6H162.089ZM154.313 307.352H157.313V298.808H158.969V320.192H157.313V308.912H154.313V310.304C154.313 315.56 152.321 317.648 149.777 317.648C147.161 317.648 145.193 315.56 145.193 310.304V306.992C145.193 301.736 147.161 299.648 149.777 299.648C152.321 299.648 154.313 301.736 154.313 306.992V307.352ZM152.657 310.28V306.992C152.657 302.864 151.433 301.232 149.753 301.232C148.073 301.232 146.849 302.864 146.849 306.992V310.28C146.849 314.408 148.073 316.064 149.753 316.064C151.433 316.064 152.657 314.408 152.657 310.28ZM184.127 306.416V298.448H185.855V320.6H184.127V308H178.439V306.416H184.127ZM174.983 299.816V302.576C174.983 304.496 174.743 306.32 174.263 308.048L181.151 316.16L179.879 317.288L173.639 309.92C172.559 312.608 170.807 315.104 168.359 317.528L167.159 316.352C171.239 312.344 173.303 308.168 173.303 302.576V299.816H174.983ZM19.448 355.328H6.56V353.984L13.736 346.856C16.112 344.48 17.216 342.824 17.216 340.808C17.216 338.624 15.608 337.256 12.944 337.256C10.28 337.256 8.984 339.176 8.288 341.432L6.632 341.024C7.4 338.264 9.416 335.672 12.944 335.672C16.544 335.672 18.92 337.664 18.92 340.784C18.92 343.424 17.432 345.44 15.008 347.864L9.104 353.744H19.448V355.328ZM40.5404 351.272H38.8364V343.112H32.9564V341.672H38.8364V338.936H32.9564V337.52H38.8364V334.448H40.5404V351.272ZM35.0204 344.816L35.2364 346.328C32.7164 346.736 29.5244 347.048 26.5244 347.048H23.3564V335.768H25.0844V345.464H26.8124C29.2604 345.464 32.3804 345.2 35.0204 344.816ZM28.0124 349.856V355.016H41.5724V356.6H26.3084V349.856H28.0124ZM56.1222 348.032H53.0022C48.9462 348.032 46.4502 345.296 46.4502 341.864C46.4502 338.432 48.9462 335.72 53.0022 335.72H56.1222C60.1782 335.72 62.6982 338.432 62.6982 341.864C62.6982 345.296 60.1782 348.032 56.1222 348.032ZM53.2662 346.448H55.8582C59.0982 346.448 60.9703 344.456 60.9703 341.864C60.9703 339.272 59.0982 337.304 55.8582 337.304H53.2662C50.0262 337.304 48.1542 339.272 48.1542 341.864C48.1542 344.456 50.0262 346.448 53.2662 346.448ZM64.9302 354.8H44.1942V353.24H64.9302V354.8ZM77.8241 348.488V353.24H87.3281V354.824H66.5921V353.24H76.1201V348.488H69.2801V341.48H82.9361V337.64H69.1601V336.08H84.6641V343.016H70.9841V346.952H85.1441V348.488H77.8241ZM111.962 334.448V340.328H115.634V341.912H111.962V351.272H110.234V334.448H111.962ZM107.714 344.768L107.906 346.28C105.29 346.712 101.762 347.048 98.5698 347.048H95.1138V335.768H105.53V337.304H96.8178V345.488H98.8578C101.498 345.488 104.906 345.2 107.714 344.768ZM98.1618 349.856H99.8898V355.016H113.21V356.6H98.1618V349.856ZM119.12 344.888L118.592 343.424C123.728 341.984 126.416 340.208 126.512 338.024H119.768V336.464H126.488V334.112H128.168V336.464H134.72V338.024H128.168C128.144 338.72 127.976 339.368 127.664 339.992L135.848 343.472L135.176 344.888L126.728 341.24C125.312 342.68 122.84 343.856 119.12 344.888ZM137.6 346.376V347.864H128.096V350.552H134.936V356.816H133.208V352.064H119.552V350.552H126.392V347.864H116.864V346.376H137.6Z" fill="#171717"/>
</svg>
