<svg width="659" height="612" viewBox="0 0 659 612" fill="none" xmlns="http://www.w3.org/2000/svg">
<path fill-rule="evenodd" clip-rule="evenodd" d="M273.402 0C273.402 0 285.089 130.869 235.608 135.896C235.608 135.896 176.503 150.62 93.2782 108.556C93.2782 108.556 185.4 193.268 174.495 211.484C174.495 211.484 161.042 230.054 96.4948 224.349H0C0 224.349 114.409 260.616 113.381 295.917C113.381 295.917 96.3464 326.159 24.9278 344.164C24.9278 344.164 143.269 351.011 156 382.762C156 382.762 164.598 410.793 121.423 447.895L49.8556 502.576C49.8556 502.576 215.985 444.22 226.763 468.803C226.763 468.803 244.526 463.329 229.979 611.937C229.979 611.937 264.267 489.519 299.134 496.948C299.134 496.948 333.703 494.893 383.567 599.875C383.567 599.875 378.988 492.54 406.886 483.278C406.886 483.278 423.804 476.191 447.896 506.596L480.061 540.37C480.061 540.37 462.371 376.863 584.597 502.576C584.597 502.576 540.607 413.896 570.927 394.02C570.927 394.02 575.839 374.884 651.339 383.566C651.339 383.566 569.258 344.929 588.618 325.669C588.618 325.669 607.344 297.504 658.576 283.855C658.576 283.855 566.166 279.282 547.607 266.165C547.607 266.165 511.745 239.779 599.875 192.184C599.875 192.184 475.692 222.352 510.618 156.804C510.618 156.804 538.385 109.813 595.855 68.3506C595.855 68.3506 478.282 146.025 423.773 143.938C423.773 143.938 395.354 146.54 421.36 105.34L466.391 23.3188C466.391 23.3188 391.246 116.219 353.01 101.319C353.01 101.319 319.962 89.685 273.402 0Z" fill="white"/>
<path d="M246.596 222.919C244.612 222.919 243.62 222.311 243.62 221.095L245.012 217.399C244.788 213.239 244.324 211.159 243.62 211.159C242.5 211.159 240.58 211.543 237.86 212.311H237.14C235.764 212.311 235.076 211.015 235.076 208.423C235.268 207.495 236.5 207.031 238.772 207.031C239.028 207.191 239.332 207.271 239.684 207.271C240.612 207.271 242.148 206.807 244.292 205.879C246.916 205.879 248.228 206.951 248.228 209.095C248.644 210.055 249.028 212.439 249.38 216.247C249.38 219.447 248.452 221.671 246.596 222.919ZM230.228 229.159C229.556 229.159 228.948 228.007 228.404 225.703C228.404 224.711 229.556 224.167 231.86 224.071H234.404C235.332 224.071 235.796 223.767 235.796 223.159C235.476 220.055 235.316 218.295 235.316 217.879C235.732 216.631 236.644 216.007 238.052 216.007C239.14 216.007 239.924 216.775 240.404 218.311C240.244 220.007 240.164 221.703 240.164 223.399C240.164 223.655 240.548 223.879 241.316 224.071C241.604 223.943 241.828 223.879 241.988 223.879C242.308 223.879 242.468 223.943 242.468 224.071L244.052 223.879H251.444C252.5 223.879 253.956 223.719 255.812 223.399C257.508 223.399 258.356 224.327 258.356 226.183C258.356 227.399 257.508 228.167 255.812 228.487C252.132 228.103 250.292 227.863 250.292 227.767L249.14 228.007C245.172 228.007 242.324 228.087 240.596 228.247L239.252 228.007C235.988 228.327 232.98 228.711 230.228 229.159ZM241.076 246.679C239.7 246.679 237.86 245.063 235.556 241.831C235.076 240.455 234.836 239.543 234.836 239.095C234.836 237.111 236.068 235.031 238.532 232.855C239.46 232.375 240.084 232.135 240.404 232.135H241.076C243.7 232.583 245.78 233.671 247.316 235.399C247.316 235.591 247.844 236.359 248.9 237.703L249.14 239.095C249.14 242.967 247.076 245.415 242.948 246.439C242.788 246.599 242.164 246.679 241.076 246.679ZM241.988 241.831C242.756 241.831 243.524 241.143 244.292 239.767C244.1 237.911 243.412 236.983 242.228 236.983C241.364 236.983 240.516 237.687 239.684 239.095V239.527C240.004 241.063 240.772 241.831 241.988 241.831ZM284.247 245.047C282.903 245.047 282.135 244.215 281.943 242.551C282.551 242.551 283.079 233.943 283.527 216.727C283.527 214.199 283.383 212.039 283.095 210.247C283.543 208.423 284.007 207.511 284.487 207.511C286.343 207.511 287.415 208.727 287.703 211.159C287.703 212.023 287.623 212.871 287.463 213.703C287.623 215.495 287.703 217.879 287.703 220.855C287.703 221.463 288.935 221.847 291.399 222.007C293.191 222.583 295.575 222.967 298.551 223.159C299.607 223.927 300.135 224.695 300.135 225.463C299.975 227.159 299.287 228.007 298.071 228.007C296.983 228.007 293.527 227.463 287.703 226.375C287.383 226.439 287.223 226.647 287.223 226.999C287.223 227.575 287.303 227.991 287.463 228.247C286.919 239.159 286.311 244.615 285.639 244.615C285.127 244.903 284.663 245.047 284.247 245.047ZM276.855 235.399H275.463C274.791 235.399 272.423 233.095 268.359 228.487H267.879C266.695 230.055 265.847 231.591 265.335 233.095C264.759 233.543 264.231 233.767 263.751 233.767C262.695 233.767 261.991 232.919 261.639 231.223C266.663 221.719 269.815 216.887 271.095 216.727C272.471 217.047 273.159 217.431 273.159 217.879V219.223C273.159 219.863 272.311 221.335 270.615 223.639C270.615 224.471 272.551 227.079 276.423 231.463C277.095 231.463 277.783 232.087 278.487 233.335C278.487 234.167 277.943 234.855 276.855 235.399ZM329.468 244.135C328.22 243.559 327.596 242.263 327.596 240.247C327.596 239.895 327.676 239.575 327.836 239.287C327.836 239.127 327.756 238.903 327.596 238.615L328.316 228.007H328.076L328.316 227.575C328.316 225.303 328.396 223.767 328.556 222.967L328.316 222.487L328.748 216.487C328.62 215.879 328.556 215.271 328.556 214.663H328.748L328.556 214.183C328.556 213.351 328.62 212.807 328.748 212.551C328.46 211.111 328.316 210.199 328.316 209.815C328.508 208.887 328.892 208.423 329.468 208.423C331.132 208.423 331.964 210.263 331.964 213.943C332.156 214.743 332.252 215.671 332.252 216.727H331.964L332.252 217.159L331.964 218.791L332.684 219.271H336.38C338.524 219.271 340.14 220.119 341.228 221.815C341.228 223.031 340.46 223.639 338.924 223.639L336.86 223.399C336.316 223.559 335.996 223.639 335.9 223.639C334.908 223.479 333.756 223.399 332.444 223.399C332.22 223.399 331.996 223.639 331.772 224.119C331.612 232.247 331.452 236.311 331.292 236.311C331.452 237.271 331.532 239.271 331.532 242.311C331.532 243.527 330.844 244.135 329.468 244.135ZM319.532 213.943C319.276 213.943 318.828 213.799 318.188 213.511C314.188 213.799 310.108 213.943 305.948 213.943C304.252 213.943 303.404 213.255 303.404 211.879C303.404 210.919 303.708 210.295 304.316 210.007C306.78 210.007 308.86 210.103 310.556 210.295L312.86 209.815C317.884 209.815 320.732 210.727 321.404 212.551C321.404 213.191 320.78 213.655 319.532 213.943ZM314.012 233.767H311.708C309.084 233.767 307.548 231.767 307.1 227.767C307.1 225.911 308.556 224.311 311.468 222.967C312.556 222.967 313.1 222.423 313.1 221.335L306.62 219.511C306.012 218.679 305.708 217.991 305.708 217.447C305.804 216.359 306.044 215.815 306.428 215.815C316.86 218.279 322.076 220.119 322.076 221.335V221.815C322.076 222.007 321.852 222.231 321.404 222.487L318.38 222.247C320.076 223.943 320.924 225.783 320.924 227.767C320.924 230.935 318.62 232.935 314.012 233.767ZM312.62 230.311C316.332 229.927 318.188 228.775 318.188 226.855C318.188 225.575 317.404 224.807 315.836 224.551H315.644C315.516 224.775 314.364 225.463 312.188 226.615C311.452 227.447 310.908 228.295 310.556 229.159C310.78 229.927 311.324 230.311 312.188 230.311H312.62ZM365.49 220.327L363.426 220.087C363.266 220.087 363.186 220.167 363.186 220.327L362.034 220.087C361.49 220.087 360.802 220.167 359.97 220.327C359.81 220.327 359.73 220.247 359.73 220.087C358.674 220.247 357.906 220.327 357.426 220.327C354.802 220.327 353.49 219.319 353.49 217.303C353.266 213.303 353.042 211.303 352.818 211.303C352.978 209.159 353.362 208.087 353.97 208.087H355.362C356.418 208.087 357.186 208.695 357.666 209.911C357.538 211.223 357.458 212.535 357.426 213.847C357.426 214.839 358.034 215.463 359.25 215.719L359.73 215.479C365.426 215.479 368.274 216.087 368.274 217.303C368.402 217.303 368.466 217.527 368.466 217.975C368.466 219.543 367.474 220.327 365.49 220.327ZM364.818 244.519C358.802 244.519 355.794 243.671 355.794 241.975C355.346 241.975 354.818 238.599 354.21 231.847C353.89 231.239 353.65 230.935 353.49 230.935C351.314 230.935 349.938 230.855 349.362 230.695L347.97 230.935C345.666 230.935 344.514 230.007 344.514 228.151V227.479C344.514 226.615 344.898 225.991 345.666 225.607C345.858 225.607 347.394 225.911 350.274 226.519C361.058 226.071 367.122 225.383 368.466 224.455H368.946C371.09 225.415 372.162 226.343 372.162 227.239V227.671C371.458 229.207 370.386 229.975 368.946 229.975C368.306 229.975 367.458 229.895 366.402 229.735C361.186 230.055 358.578 230.455 358.578 230.935L358.338 231.367C358.946 236.455 359.57 238.999 360.21 238.999C360.754 239.287 361.362 239.431 362.034 239.431H364.578C367.17 239.431 368.466 240.199 368.466 241.735C368.466 243.335 367.25 244.263 364.818 244.519ZM416.484 232.711C414.212 231.847 408.836 231.239 400.356 230.887L398.964 230.647C395.988 230.807 393.764 231.031 392.292 231.319C390.596 231.319 389.748 230.631 389.748 229.255V228.583C389.94 227.047 390.244 226.279 390.66 226.279C394.788 226.439 397.332 226.519 398.292 226.519L399.204 226.279C399.46 226.439 399.844 226.519 400.356 226.519C401.572 226.519 402.18 225.367 402.18 223.063C402.5 223.063 402.66 222.135 402.66 220.279C402.66 219.991 402.5 219.847 402.18 219.847C401.38 219.847 400.852 219.911 400.596 220.039C397.524 219.815 395.988 218.743 395.988 216.823C395.988 215.959 395.908 215.111 395.748 214.279C396.068 213.063 396.228 212.135 396.228 211.495C395.684 210.279 395.364 209.671 395.268 209.671C395.268 207.207 395.892 205.975 397.14 205.975C398.1 205.687 398.708 205.543 398.964 205.543C399.988 205.991 400.724 206.215 401.172 206.215C402.228 206.215 405.108 205.911 409.812 205.303C411.348 206.263 412.116 207.175 412.116 208.039C411.348 209.287 410.58 209.911 409.812 209.911L405.204 210.391V210.151L404.724 210.391H403.812C401.508 210.391 400.356 210.855 400.356 211.783C400.196 212.583 400.116 213.271 400.116 213.847C400.116 214.743 400.58 215.191 401.508 215.191C401.86 215.191 404.772 214.807 410.244 214.039H412.788C412.98 214.039 413.684 214.727 414.9 216.103C414.9 217.799 414.196 218.647 412.788 218.647H410.244C407.972 218.647 406.836 219.655 406.836 221.671C406.836 222.439 406.436 224.055 405.636 226.519C406.436 226.807 407.828 226.951 409.812 226.951C411.636 226.951 412.548 227.031 412.548 227.191C412.708 227.191 412.788 227.111 412.788 226.951C416.084 226.951 418.164 227.655 419.028 229.063L419.508 229.735C418.964 231.719 417.956 232.711 416.484 232.711ZM404.052 247.255H403.092C401.972 247.255 400.74 246.711 399.396 245.623C398.884 245.047 398.436 243.591 398.052 241.255C398.372 238.471 399.364 236.007 401.028 233.863L401.94 233.431C403.508 234.199 404.436 234.583 404.724 234.583L405.636 234.343C409.956 234.823 412.116 236.663 412.116 239.863V241.927C412.116 243.271 411.412 244.423 410.004 245.383C409.396 246.631 407.412 247.255 404.052 247.255ZM404.052 242.647C406.292 242.647 407.668 241.959 408.18 240.583C407.892 239.815 407.284 239.431 406.356 239.431C405.972 239.431 404.82 239.511 402.9 239.671L402.66 241.255C402.66 241.415 402.74 241.879 402.9 242.647H404.052ZM446.555 233.047H446.075C445.627 233.047 445.243 232.359 444.923 230.983C444.923 228.487 444.843 227.095 444.683 226.807C444.843 225.751 445.003 225.223 445.163 225.223C445.003 224.935 444.923 224.711 444.923 224.551C444.923 221.735 445.147 219.735 445.595 218.551C445.467 218.007 445.403 217.687 445.403 217.591L445.595 216.487C445.595 216.327 445.531 216.087 445.403 215.767C445.531 214.935 445.595 214.023 445.595 213.031C445.307 210.759 445.163 209.527 445.163 209.335C445.323 208.087 445.931 207.463 446.987 207.463C448.523 207.463 449.291 208.775 449.291 211.399C449.291 213.127 449.147 215.575 448.859 218.743C449.147 219.063 451.835 219.687 456.923 220.615C457.531 221.063 457.835 221.367 457.835 221.527V222.919C457.579 223.527 457.035 223.831 456.203 223.831C455.883 223.575 454.731 223.351 452.747 223.159L451.595 223.399H448.619L448.379 224.551C448.379 226.407 448.459 227.479 448.619 227.767L448.379 228.199C448.571 229.799 448.731 230.727 448.859 230.983C448.283 232.359 447.515 233.047 446.555 233.047ZM428.315 225.463C425.723 225.463 423.963 224.311 423.035 222.007L422.795 220.615V218.551C422.795 216.407 423.563 215.015 425.099 214.375C426.027 213.767 427.099 213.319 428.315 213.031C432.475 213.031 434.555 215.175 434.555 219.463C433.819 221.831 432.891 223.367 431.771 224.071C430.427 224.999 429.275 225.463 428.315 225.463ZM428.315 221.767C429.755 221.767 430.763 220.919 431.339 219.223C431.339 218.583 430.955 217.815 430.187 216.919L429.707 217.159H428.555C428.395 217.159 428.091 216.855 427.643 216.247C426.555 216.855 426.011 217.783 426.011 219.031C426.363 220.855 427.131 221.767 428.315 221.767ZM440.075 245.047C438.219 245.047 436.763 244.967 435.707 244.807L435.227 245.047C434.427 244.887 433.435 244.807 432.251 244.807C430.875 243.815 430.187 242.583 430.187 241.111L430.427 240.679C430.427 237.383 430.347 235.223 430.187 234.199C430.347 230.839 430.875 229.159 431.771 229.159H432.251C433.467 229.159 434.075 229.927 434.075 231.463V236.071C434.075 238.983 434.459 240.439 435.227 240.439C440.315 240.727 442.859 241.415 442.859 242.503V243.655C442.315 244.583 441.387 245.047 440.075 245.047ZM190.721 288.823C189.633 288.823 188.849 287.895 188.369 286.039C188.369 283.799 188.449 282.263 188.609 281.431C188.449 281.143 188.369 280.919 188.369 280.759C188.529 278.583 188.689 277.495 188.849 277.495C188.849 277.367 188.769 277.303 188.609 277.303C188.769 276.279 188.849 275.271 188.849 274.279C188.849 271.719 188.321 269.031 187.265 266.215C187.297 264.839 187.985 264.151 189.329 264.151C191.761 264.151 192.977 267.303 192.977 273.607C193.169 273.927 194.865 274.535 198.065 275.431C199.281 276.167 200.289 276.935 201.089 277.735V279.367L199.937 279.607H198.305C196.129 279.127 194.817 278.887 194.369 278.887C193.313 278.887 192.785 279.815 192.785 281.671C192.785 282.823 192.929 284.119 193.217 285.559C193.025 287.735 192.193 288.823 190.721 288.823ZM167.441 285.799C166.193 285.223 165.569 284.151 165.569 282.583C170.561 275.895 173.553 271.975 174.545 270.823C174.961 269.735 175.505 269.191 176.177 269.191C178.001 269.447 178.913 270.151 178.913 271.303C178.913 271.783 178.161 272.999 176.657 274.951C176.017 275.879 175.697 276.583 175.697 277.063C176.657 279.015 178.513 280.551 181.265 281.671L181.457 282.103V282.823C180.913 283.751 180.001 284.215 178.721 284.215C176.289 283.447 174.289 282.215 172.721 280.519C171.185 281.671 169.953 283.287 169.025 285.367C168.737 285.367 168.209 285.511 167.441 285.799ZM184.241 308.407C179.281 308.407 176.433 307.399 175.697 305.383C174.929 304.583 174.545 303.047 174.545 300.775C174.545 297.863 175.313 296.407 176.849 296.407H179.633L181.025 296.167C181.281 296.327 181.665 296.407 182.177 296.407C182.497 296.407 182.657 296.263 182.657 295.975V295.495C182.657 295.207 182.193 294.903 181.265 294.583C178.577 295.031 176.961 295.255 176.417 295.255C175.009 294.775 174.305 293.927 174.305 292.711V292.039C174.305 290.791 175.617 290.167 178.241 290.167C180.321 290.167 182.161 290.023 183.761 289.735C185.777 290.279 186.785 291.815 186.785 294.343V296.167L187.457 298.519V299.191C187.457 300.247 185.009 300.775 180.113 300.775C179.473 301.095 179.153 301.335 179.153 301.495C179.153 302.871 180.433 303.639 182.993 303.799C184.433 303.639 185.153 303.479 185.153 303.319C186.849 303.735 187.697 304.503 187.697 305.623C187.697 307.255 186.545 308.183 184.241 308.407ZM226.51 302.167C225.198 302.167 224.43 301.399 224.206 299.863L224.446 298.471C224.446 298.343 224.366 298.279 224.206 298.279C224.814 291.719 225.118 287.639 225.118 286.039L224.878 285.607C225.806 277.575 226.43 272.807 226.75 271.303C226.814 270.695 227.038 270.391 227.422 270.391H228.142C229.518 270.647 230.206 271.255 230.206 272.215C229.598 276.727 229.134 280.567 228.814 283.735C228.814 284.407 230.27 284.871 233.182 285.127C235.966 285.703 237.502 286.311 237.79 286.951V287.863C237.79 288.791 234.878 289.255 229.054 289.255C228.574 289.415 228.334 289.879 228.334 290.647C228.334 294.231 228.27 296.695 228.142 298.039C228.27 298.583 228.334 299.415 228.334 300.535C228.046 301.623 227.438 302.167 226.51 302.167ZM208.942 294.343H208.462C205.87 293.543 204.574 292.231 204.574 290.407C204.574 289.671 204.494 288.759 204.334 287.671C204.814 285.399 206.126 283.015 208.27 280.519C208.75 280.199 209.198 280.039 209.614 280.039C210.446 280.199 210.91 280.279 211.006 280.279C211.326 280.279 211.79 279.751 212.398 278.695C212.654 278.535 212.958 278.455 213.31 278.455C217.31 280.311 219.31 283.687 219.31 288.583C217.422 292.423 213.966 294.343 208.942 294.343ZM209.422 290.887C212.718 290.887 215.086 289.815 216.526 287.671V286.519C215.438 283.287 214.062 281.671 212.398 281.671C212.398 282.791 211.63 283.559 210.094 283.975C208.718 285.863 208.03 287.591 208.03 289.159C208.03 290.311 208.494 290.887 209.422 290.887ZM265.901 291.463C264.237 290.855 263.405 289.783 263.405 288.247C264.333 285.527 264.797 282.071 264.797 277.879C264.925 277.879 265.069 277.335 265.229 276.247C265.069 275.415 264.989 274.039 264.989 272.119L265.229 270.727C265.229 269.191 264.461 267.127 262.925 264.535C262.637 263.959 262.493 263.335 262.493 262.663C262.493 262.151 263.101 261.543 264.317 260.839C266.781 261.767 268.013 263.063 268.013 264.727C268.909 265.943 269.357 268.023 269.357 270.967C269.389 271.735 269.469 272.503 269.597 273.271H273.533C277.693 273.271 279.773 274.263 279.773 276.247V276.727C279.773 277.175 278.765 277.559 276.749 277.879C275.373 277.783 274.685 277.623 274.685 277.399C270.845 277.591 268.925 278.055 268.925 278.791C268.605 284.839 268.445 288.535 268.445 289.879C268.445 290.583 267.597 291.111 265.901 291.463ZM246.317 286.663H246.077C244.701 286.439 244.013 285.735 244.013 284.551C244.013 283.335 245.485 280.727 248.429 276.727V276.247L246.797 276.055H243.821C242.221 276.055 241.293 274.903 241.037 272.599C241.037 271.351 241.725 270.727 243.101 270.727C248.477 271.655 251.549 272.119 252.317 272.119C253.853 273.143 254.621 274.071 254.621 274.903C251.325 280.183 249.405 283.479 248.861 284.791C248.253 286.039 247.405 286.663 246.317 286.663ZM268.925 311.767C260.157 311.351 255.773 310.039 255.773 307.831L253.709 300.919C254.317 298.007 255.309 296.551 256.685 296.551C258.061 296.711 258.909 296.791 259.229 296.791C260.221 296.471 260.765 296.311 260.861 296.311V295.879C260.861 295.559 260.701 295.399 260.381 295.399C258.301 295.559 256.845 295.639 256.013 295.639C254.477 294.871 253.709 293.943 253.709 292.855C254.061 291.895 254.685 291.207 255.581 290.791C257.693 290.791 259.597 290.871 261.293 291.031L262.493 290.791C263.869 290.791 265.005 292.103 265.901 294.727V295.639C265.613 298.871 265.085 300.487 264.317 300.487C262.717 300.935 260.877 301.303 258.797 301.591C258.797 305.143 260.029 306.919 262.493 306.919C262.493 307.239 263.485 307.399 265.469 307.399C265.661 307.399 266.813 307.239 268.925 306.919C270.621 307.911 271.469 308.919 271.469 309.943C271.469 311.159 270.621 311.767 268.925 311.767ZM321.141 305.191C320.213 305.191 319.589 304.119 319.269 301.975C320.165 299.959 320.933 291.351 321.573 276.151C321.573 275.703 321.189 273.479 320.421 269.479V268.759C320.965 267.831 321.669 267.367 322.533 267.367H322.965C324.757 267.367 325.829 268.839 326.181 271.783L325.941 272.215L326.181 275.719C326.021 280.135 325.797 282.583 325.509 283.063C325.669 283.671 325.973 283.975 326.421 283.975C327.349 283.975 328.965 283.911 331.269 283.783C332.229 283.783 333.541 284.471 335.205 285.847V286.279C335.205 287.975 334.117 288.823 331.941 288.823H330.357C326.965 288.823 325.269 289.127 325.269 289.735C325.109 290.023 325.029 290.327 325.029 290.647C325.029 293.271 324.885 296.503 324.597 300.343C324.725 301.207 324.789 301.831 324.789 302.215C324.245 304.199 323.029 305.191 321.141 305.191ZM309.813 292.999H306.597C304.709 292.999 303.557 291.527 303.141 288.583C303.461 286.951 303.701 284.423 303.861 280.999L303.381 280.759C301.205 281.079 299.669 281.239 298.773 281.239C298.133 281.015 297.669 280.631 297.381 280.087C297.381 277.623 298.229 276.391 299.925 276.391L311.685 275.719C313.669 276.135 314.661 276.887 314.661 277.975V278.887C314.661 279.559 313.509 280.263 311.205 280.999C309.989 280.903 309.381 280.743 309.381 280.519C308.613 280.519 308.069 282.439 307.749 286.279C307.749 287.687 308.357 288.391 309.573 288.391C311.493 288.391 313.957 287.767 316.965 286.519C318.213 286.679 318.837 286.983 318.837 287.431V289.063C316.629 291.687 313.621 292.999 309.813 292.999ZM354.618 287.431C352.474 286.343 351.402 284.967 351.402 283.303C351.146 283.303 350.986 282.903 350.922 282.103C350.922 278.135 351.546 276.151 352.794 276.151C352.954 275.671 353.418 275.431 354.186 275.431H360.186C361.242 275.431 361.77 274.359 361.77 272.215V270.583C361.642 270.583 361.578 270.503 361.578 270.343C359.914 270.503 358.522 270.807 357.402 271.255C355.418 270.999 354.426 269.703 354.426 267.367C354.458 266.887 354.986 266.423 356.01 265.975L358.314 266.215C359.914 266.215 361.466 266.055 362.97 265.735C365.818 265.735 367.354 266.503 367.578 268.039C367.578 269.479 366.57 271.943 364.554 275.431V275.671C364.81 275.671 365.114 275.975 365.466 276.583V278.215C365.466 279.591 362.394 280.279 356.25 280.279L355.578 281.191V281.911C355.578 282.359 355.882 282.583 356.49 282.583C362.538 281.655 365.914 281.191 366.618 281.191C368.314 281.703 369.162 282.551 369.162 283.735C369.162 285.111 368.314 285.799 366.618 285.799C365.85 285.799 365.466 285.719 365.466 285.559C360.634 286.807 357.018 287.431 354.618 287.431ZM366.618 306.823H363.642C358.426 306.823 355.818 304.439 355.818 299.671V297.319C355.818 296.519 355.498 295.991 354.858 295.735C352.394 295.735 350.634 295.815 349.578 295.975L349.098 295.735L342.186 296.215C339.722 295.767 338.49 294.599 338.49 292.711C338.81 291.815 339.434 291.367 340.362 291.367C342.026 291.367 343.786 291.511 345.642 291.799C347.082 291.639 349.85 291.559 353.946 291.559L355.578 291.367V291.559C355.866 291.431 356.09 291.367 356.25 291.367C356.794 291.367 357.482 291.431 358.314 291.559L360.186 291.367C360.698 291.367 361.082 291.431 361.338 291.559C367.482 291.431 371.546 291.127 373.53 290.647C375.386 290.999 376.314 291.927 376.314 293.431C376.314 295.127 374.698 295.975 371.466 295.975C367.85 295.975 365.386 295.895 364.074 295.735C363.946 295.735 363.882 295.815 363.882 295.975L362.682 295.735H360.618C360.33 295.767 360.186 295.927 360.186 296.215C360.186 300.023 360.954 301.927 362.49 301.927C363.93 302.119 365.386 302.215 366.858 302.215C367.21 302.215 368.17 302.055 369.738 301.735C371.978 301.735 373.098 302.503 373.098 304.039C373.098 305.895 370.938 306.823 366.618 306.823ZM421.352 298.279C420.712 298.055 420.264 297.671 420.008 297.127V296.887C421.992 280.887 422.984 271.127 422.984 267.607L422.744 266.695C422.968 265.159 423.592 264.391 424.616 264.391C425.992 264.391 427.064 265.239 427.832 266.935C426.296 282.359 425.288 291.735 424.808 295.063C424.2 297.207 423.048 298.279 421.352 298.279ZM410.744 282.151C409.272 281.799 407.048 280.247 404.072 277.495H403.88C400.104 280.599 397.864 282.151 397.16 282.151C396.072 282.151 395.528 281.383 395.528 279.847C395.528 278.727 396.536 277.639 398.552 276.583C401.304 273.895 402.68 271.975 402.68 270.823C401.016 270.823 399.096 271.063 396.92 271.543H395.768C394.712 271.543 394.104 270.695 393.944 268.999V268.759C394.2 267.223 394.664 266.455 395.336 266.455C398.632 266.455 402.168 266.215 405.944 265.735C408.248 266.151 409.4 267.079 409.4 268.519C409.4 268.967 408.856 270.423 407.768 272.887V273.367C407.768 274.263 409.464 276.263 412.856 279.367C413.016 280.135 413.096 280.599 413.096 280.759C412.552 281.687 411.768 282.151 410.744 282.151ZM409.592 308.215H407.768C405.208 308.215 403.128 306.743 401.528 303.799C401.688 301.719 401.768 299.575 401.768 297.367C401.768 294.903 401.688 292.663 401.528 290.647C401.752 289.431 402.376 288.823 403.4 288.823C405.544 289.463 406.616 290.759 406.616 292.711C406.648 293.959 406.952 294.583 407.528 294.583H411.224C411.896 294.583 412.52 294.743 413.096 295.063C413.096 294.903 413.16 294.823 413.288 294.823C413.16 293.287 413.096 292.215 413.096 291.607C413.096 289.271 413.624 288.103 414.68 288.103C416.152 288.103 417.224 288.951 417.896 290.647C417.896 291.607 417.976 294.151 418.136 298.279C418.136 298.439 418.056 298.519 417.896 298.519L418.136 299.671V304.711C418.136 305.767 417.288 306.775 415.592 307.735C414.024 307.575 412.808 307.495 411.944 307.495L409.592 308.215ZM406.376 303.559C410.984 303.559 413.288 302.791 413.288 301.255C413.448 300.679 413.528 299.831 413.528 298.711C413.528 298.423 413.384 298.279 413.096 298.279C412.52 298.791 410.36 299.319 406.616 299.863C406.296 301.815 406.136 302.967 406.136 303.319C406.296 303.319 406.376 303.399 406.376 303.559ZM456.699 302.407H456.267C454.251 301.863 453.243 300.631 453.243 298.711C453.243 298.423 453.323 298.279 453.483 298.279L452.811 289.975C452.811 289.847 452.875 289.383 453.003 288.583C452.715 288.007 452.571 287.303 452.571 286.471L452.811 284.887C452.491 284.375 452.331 283.879 452.331 283.399C452.331 280.583 452.171 278.775 451.851 277.975L452.091 277.495C452.091 277.207 451.707 275.287 450.939 271.735C451.259 270.775 451.643 270.247 452.091 270.151H452.811C454.955 270.631 456.027 271.703 456.027 273.367C456.187 275.415 456.267 277.191 456.267 278.695H456.027L456.267 279.127C456.267 280.951 456.411 285.095 456.699 291.559H456.939C456.939 291.719 456.859 291.799 456.699 291.799C457.179 295.575 457.643 298.503 458.091 300.583C458.091 301.159 457.627 301.767 456.699 302.407ZM436.635 292.951H435.963C434.331 292.951 432.875 291.799 431.595 289.495C431.275 288.535 431.115 287.767 431.115 287.191C431.787 283.031 432.555 280.951 433.419 280.951C433.643 280.599 433.947 279.607 434.331 277.975L435.243 277.255C438.571 277.255 441.275 279.415 443.355 283.735C443.643 284.343 443.787 285.351 443.787 286.759C443.787 289.319 441.403 291.383 436.635 292.951ZM436.203 288.823C439.115 288.055 440.571 286.583 440.571 284.407C440.571 283.639 439.643 282.951 437.787 282.343C436.155 284.103 435.307 285.799 435.243 287.431C435.243 288.359 435.563 288.823 436.203 288.823ZM498.734 297.127C497.838 296.071 497.39 295.463 497.39 295.303C497.39 294.439 497.454 293.591 497.582 292.759C497.134 284.055 496.91 276.215 496.91 269.239C496.91 268.407 497.214 267.863 497.822 267.607H498.494C499.774 267.607 500.702 268.311 501.278 269.719C501.118 271.095 500.974 271.927 500.846 272.215C501.454 286.519 501.758 294.135 501.758 295.063C501.758 296.439 500.75 297.127 498.734 297.127ZM479.39 286.759C477.086 286.023 475.934 284.711 475.934 282.823C475.774 282.823 475.694 282.679 475.694 282.391C476.59 276.375 478.046 273.367 480.062 273.367C480.894 272.951 481.742 272.727 482.606 272.695C485.326 272.695 487.166 274.007 488.126 276.631C488.126 280.535 487.214 282.983 485.39 283.975C483.406 285.831 481.406 286.759 479.39 286.759ZM480.974 281.911C483.278 280.631 484.43 279.399 484.43 278.215V277.063C484.43 276.839 484.206 276.615 483.758 276.391H482.174L480.302 281.671C480.59 281.831 480.814 281.911 480.974 281.911ZM496.91 304.951H496.19C495.71 304.951 493.95 303.415 490.91 300.343H490.43C489.054 303.127 487.678 304.519 486.302 304.519C484.446 304.519 483.134 303.287 482.366 300.823H481.454C480.75 303.127 479.902 304.279 478.91 304.279C477.214 304.119 476.366 303.431 476.366 302.215V301.543C478.67 295.591 480.062 292.199 480.542 291.367L481.214 290.935H481.694C483.678 290.935 484.67 292.471 484.67 295.543C484.99 295.543 485.374 296.375 485.822 298.039H486.302C488.062 294.839 489.134 293.159 489.518 292.999H490.67C492.046 292.999 492.974 294.151 493.454 296.455L498.734 301.735L498.974 302.887C498.782 304.263 498.094 304.951 496.91 304.951ZM525.341 288.343H523.949C523.021 287.959 522.557 287.351 522.557 286.519C523.037 284.663 523.277 283.431 523.277 282.823C523.277 277.959 522.653 275.495 521.405 275.431L515.405 276.823H514.493C513.213 276.823 512.365 275.895 511.949 274.039V273.607C511.949 272.775 514.797 272.007 520.493 271.303C520.493 271.111 521.421 270.871 523.277 270.583C525.581 270.583 526.733 272.887 526.733 277.495C527.021 277.495 527.325 279.575 527.645 283.735C527.037 286.807 526.269 288.343 525.341 288.343ZM531.533 301.927H531.341C528.173 301.031 524.013 300.583 518.861 300.583C518.861 300.423 518.013 300.343 516.317 300.343C513.149 300.343 510.461 300.567 508.253 301.015H507.101C505.949 301.015 505.261 300.247 505.037 298.711C505.037 297.015 506.349 296.167 508.973 296.167L509.405 296.407C509.501 296.407 509.805 296.327 510.317 296.167C510.445 296.167 510.909 296.247 511.709 296.407C513.565 296.407 514.493 295.863 514.493 294.775C514.653 294.199 514.733 293.591 514.733 292.951C514.733 289.143 514.189 286.375 513.101 284.647C513.485 283.431 514.253 282.823 515.405 282.823H515.885C517.325 282.823 518.157 284.199 518.381 286.951C518.669 287.527 518.909 289.687 519.101 293.431C518.941 294.519 518.861 295.431 518.861 296.167C519.437 296.423 522.285 296.743 527.405 297.127C528.365 296.967 530.285 296.887 533.165 296.887C534.381 297.559 534.989 298.327 534.989 299.191C534.989 300.695 533.837 301.607 531.533 301.927ZM195.256 344.359C193.72 344.359 192.952 343.735 192.952 342.487V342.055C196.024 339.335 197.72 337.335 198.04 336.055C197.88 336.055 197.8 335.975 197.8 335.815C195.016 336.423 193.4 336.727 192.952 336.727C191.896 336.247 191.368 335.479 191.368 334.423C191.368 333.367 194.36 332.839 200.344 332.839C201.272 332.391 201.736 332.071 201.736 331.879C197.224 330.951 194.296 330.263 192.952 329.815C192.344 329.815 191.88 328.887 191.56 327.031C191.848 326.135 192.776 325.687 194.344 325.687C200.04 327.799 202.888 329.399 202.888 330.487C202.568 331.127 202.408 331.591 202.408 331.879C203.4 331.879 204.024 332.583 204.28 333.991C204.28 334.663 203.736 335.575 202.648 336.727C203.576 338.167 205.576 339.399 208.648 340.423C209.096 340.999 209.32 341.543 209.32 342.055C209.032 342.759 208.728 343.127 208.408 343.159C205.112 342.551 202.648 341.639 201.016 340.423C201.016 340.135 200.632 339.991 199.864 339.991C197.336 342.903 195.8 344.359 195.256 344.359ZM201.976 366.919C200.728 366.919 199.72 365.847 198.952 363.703C199.112 362.391 199.192 361.271 199.192 360.343C199.192 359.767 199.112 359.351 198.952 359.095C199.272 357.271 199.512 354.583 199.672 351.031C198.328 351.031 197.24 350.951 196.408 350.791L195.976 351.031C194.92 350.871 193.96 350.791 193.096 350.791C192.232 350.791 191.272 350.871 190.216 351.031L189.736 350.791L188.344 351.031C185.304 351.031 183.464 350.487 182.824 349.399C182.824 349.271 182.744 348.663 182.584 347.575C182.808 346.807 183.352 346.423 184.216 346.423C186.456 346.711 187.672 346.855 187.864 346.855C189.688 346.855 191.16 346.791 192.28 346.663C193.592 346.791 195.288 346.855 197.368 346.855C198.616 346.855 200.152 346.711 201.976 346.423L202.408 346.663C204.264 346.343 207.336 346.183 211.624 346.183C212.008 346.183 212.696 346.023 213.688 345.703C215.672 346.247 216.824 346.935 217.144 347.767C217.144 349.079 216.392 349.927 214.888 350.311C214.568 350.311 213.944 350.247 213.016 350.119C212.856 350.119 212.776 350.183 212.776 350.311L211.432 350.119C210.12 350.119 207.8 350.183 204.472 350.311C204.184 350.439 203.656 352.759 202.888 357.271V360.487C202.888 360.903 203.192 361.975 203.8 363.703V363.943C203.384 365.927 202.776 366.919 201.976 366.919ZM244.172 363.655C242.476 363.111 241.628 362.423 241.628 361.591L241.868 361.111C241.868 359.479 241.948 358.327 242.108 357.655C241.948 350.519 241.548 343.911 240.908 337.831C239.404 334.375 238.652 332.071 238.652 330.919C238.876 329.543 239.484 328.855 240.476 328.855C242.524 328.855 243.98 330.391 244.844 333.463C245.452 338.871 245.836 341.863 245.996 342.439C247.852 342.919 249.548 343.159 251.084 343.159C252.332 342.871 253.1 342.727 253.388 342.727C254.796 342.727 255.868 343.559 256.604 345.223C256.604 346.919 255.148 347.767 252.236 347.767C249.772 347.767 247.772 347.687 246.236 347.527C246.076 347.847 245.996 348.087 245.996 348.247C245.996 352.503 246.236 356.951 246.716 361.591C246.716 362.583 245.868 363.271 244.172 363.655ZM228.044 356.311C226.764 356.311 225.836 355.463 225.26 353.767C225.26 352.839 226.028 351.143 227.564 348.679C228.94 345.927 229.628 343.623 229.628 341.767C229.628 341.447 228.86 341.223 227.324 341.095C225.052 341.383 223.596 341.767 222.956 342.247C221.548 342.247 220.7 341.239 220.412 339.223C220.412 337.815 221.26 336.983 222.956 336.727C223.116 336.727 223.34 336.791 223.628 336.919C225.132 336.631 227.82 336.487 231.692 336.487C233.324 337.319 234.252 338.231 234.476 339.223C234.476 344.439 232.716 349.895 229.196 355.591C228.428 355.943 228.044 356.183 228.044 356.311ZM283.681 343.063C282.753 343.063 282.145 342.215 281.857 340.519C282.177 338.983 283.329 338.215 285.313 338.215C287.617 337.991 288.913 337.831 289.201 337.735C289.361 337.735 289.441 337.815 289.441 337.975C291.457 337.975 292.465 337.511 292.465 336.583V334.519L291.313 334.279H288.289C286.913 334.279 286.225 334.967 286.225 336.343C286.225 336.823 285.921 337.367 285.313 337.975C283.905 337.975 283.201 336.359 283.201 333.127C283.201 327.911 283.969 325.303 285.505 325.303C287.073 325.463 287.857 325.847 287.857 326.455L287.377 329.431C289.201 330.519 290.897 331.063 292.465 331.063C292.465 330.903 292.529 330.823 292.657 330.823C292.529 328.967 292.465 327.895 292.465 327.607C292.625 326.455 292.929 325.831 293.377 325.735H294.529C296.001 325.735 296.849 326.663 297.073 328.519C297.073 331.591 296.289 335.975 294.721 341.671L294.049 342.103C291.777 341.943 290.241 341.863 289.441 341.863C289.089 341.863 287.169 342.263 283.681 343.063ZM288.961 367.255C285.985 367.255 284.225 366.023 283.681 363.559C283.201 362.055 282.961 360.711 282.961 359.527C283.025 356.679 283.729 355.031 285.073 354.583C286.449 354.583 287.137 356.423 287.137 360.103C287.745 361.383 288.433 362.231 289.201 362.647C289.521 362.615 289.825 362.535 290.113 362.407L289.921 361.975V361.687C289.665 356.023 289.201 353.191 288.529 353.191L281.857 352.711C281.697 352.711 281.617 352.791 281.617 352.951C276.689 352.951 274.225 351.879 274.225 349.735V349.015C274.225 348.695 274.769 348.311 275.857 347.863L289.201 349.015C289.361 349.015 289.441 348.951 289.441 348.823C290.017 348.823 293.329 349.047 299.377 349.495L299.809 349.255C301.345 349.735 302.113 350.583 302.113 351.799V352.471C301.729 353.239 301.041 353.623 300.049 353.623C297.521 353.335 295.521 353.191 294.049 353.191C293.697 353.191 293.473 353.575 293.377 354.343C293.665 355.239 293.889 356.999 294.049 359.623C293.729 361.191 293.569 362.119 293.569 362.407C293.889 362.567 294.129 362.647 294.289 362.647C294.609 362.647 295.761 362.487 297.745 362.167C299.889 362.743 300.961 363.367 300.961 364.039V364.471C300.961 365.623 300.113 366.471 298.417 367.015C297.905 367.015 297.521 366.935 297.265 366.775C295.953 366.935 294.385 367.015 292.561 367.015C291.025 367.015 289.825 367.095 288.961 367.255ZM320.853 367.831C320.693 367.831 320.453 367.751 320.133 367.591C318.565 367.751 317.029 367.831 315.525 367.831C314.629 367.831 313.941 367.223 313.461 366.007C312.981 365.687 312.517 364.839 312.069 363.463C312.357 362.535 312.597 358.615 312.789 351.703C313.269 350.935 313.877 350.551 314.613 350.551C315.989 351.063 317.061 351.671 317.829 352.375C319.429 352.375 320.741 352.295 321.765 352.135C323.621 352.615 324.613 352.855 324.741 352.855C326.149 343.447 326.853 336.135 326.853 330.919C326.853 330.631 326.693 329.559 326.373 327.703C326.693 325.719 327.317 324.727 328.245 324.727C330.389 325.623 331.461 326.471 331.461 327.271C331.301 328.615 331.221 329.383 331.221 329.575L331.461 330.007L330.741 338.311C336.053 338.311 339.205 339.239 340.197 341.095V342.007C340.197 342.199 339.669 342.743 338.613 343.639L337.221 343.399C336.197 343.399 334.661 343.319 332.613 343.159C331.077 343.159 330.309 343.703 330.309 344.791C329.797 351.543 329.029 354.919 328.005 354.919C328.005 355.143 327.765 355.367 327.285 355.591L325.701 355.399C325.541 355.655 325.381 356.423 325.221 357.703C325.221 358.023 325.301 358.855 325.461 360.199C325.461 363.879 324.693 366.119 323.157 366.919L320.853 367.831ZM313.941 345.703C310.197 345.703 307.973 344.471 307.269 342.007C307.109 340.791 306.869 339.879 306.549 339.271C306.709 337.671 306.789 336.359 306.789 335.335C305.861 334.471 305.397 333.319 305.397 331.879C305.781 330.631 306.165 330.007 306.549 330.007C307.541 330.007 309.077 330.087 311.157 330.247C313.461 330.087 315.157 330.007 316.245 330.007C317.813 330.007 318.965 330.551 319.701 331.639V332.791C319.573 334.007 319.029 334.615 318.069 334.615C316.725 334.455 315.877 334.375 315.525 334.375L314.613 334.615C314.453 334.615 314.373 334.535 314.373 334.375C312.677 334.375 311.685 335.079 311.397 336.487L311.157 337.639C311.157 339.943 312.149 341.095 314.133 341.095H318.069C318.709 341.095 319.557 340.855 320.613 340.375C322.309 340.375 323.157 341.223 323.157 342.919C322.357 344.775 319.285 345.703 313.941 345.703ZM319.941 362.743C320.293 362.743 320.597 362.135 320.853 360.919C320.853 358.455 320.245 357.223 319.029 357.223C317.621 357.543 316.917 358.311 316.917 359.527V362.311C316.981 362.599 317.141 362.743 317.397 362.743H319.941ZM371.587 347.095C370.243 346.679 367.395 346.295 363.043 345.943C362.499 346.231 361.811 346.375 360.979 346.375C360.083 346.375 359.235 346.311 358.435 346.183C357.827 346.311 357.283 346.375 356.803 346.375L355.459 346.183C354.627 346.311 353.939 346.375 353.395 346.375C352.851 346.375 352.451 346.311 352.195 346.183C351.395 346.311 349.331 346.375 346.003 346.375C344.307 346.375 343.459 345.543 343.459 343.879C343.459 342.983 343.843 342.295 344.611 341.815L357.523 342.247C358.259 342.087 359.331 342.007 360.739 342.007V341.815C359.811 340.919 359.347 340.135 359.347 339.463C360.115 338.247 360.723 335.495 361.171 331.207C360.883 331.207 360.739 331.047 360.739 330.727C359.043 330.727 356.499 331.111 353.107 331.879C352.051 331.431 351.523 330.663 351.523 329.575V328.903C351.523 327.655 352.531 327.031 354.547 327.031C357.587 326.871 359.107 326.647 359.107 326.359L359.587 326.599C361.123 326.279 362.435 326.119 363.523 326.119C364.259 326.119 365.027 326.887 365.827 328.423C365.827 332.071 365.059 336.151 363.523 340.663C362.275 341.335 361.651 341.783 361.651 342.007L362.131 342.247C365.779 342.247 368.547 342.167 370.435 342.007C373.795 342.007 375.475 342.855 375.475 344.551C375.475 346.247 374.179 347.095 371.587 347.095ZM353.827 366.439C351.523 366.439 350.371 365.367 350.371 363.223C349.443 362.647 348.835 361.799 348.547 360.679C348.707 353.607 349.475 350.071 350.851 350.071H351.523C352.003 350.071 353.075 350.775 354.739 352.183C357.011 352.183 359.251 352.023 361.459 351.703C362.163 351.703 362.915 352.391 363.715 353.767C364.035 356.711 364.195 358.871 364.195 360.247C362.979 363.415 362.211 365.015 361.891 365.047C361.731 365.527 361.235 365.767 360.403 365.767C357.587 365.767 355.395 365.991 353.827 366.439ZM358.195 361.399C359.283 360.759 359.827 359.831 359.827 358.615C359.827 357.399 359.363 356.791 358.435 356.791L357.043 356.551C354.419 356.743 353.107 357.047 353.107 357.463V360.247C353.107 360.375 353.043 360.439 352.915 360.439C353.139 361.079 353.363 361.399 353.587 361.399H358.195ZM412.204 369.559C411.916 369.399 411.692 369.319 411.532 369.319C411.244 369.319 411.1 369.399 411.1 369.559C406.172 369.207 403.708 368.583 403.708 367.687C402.3 366.503 401.596 363.895 401.596 359.863C402.044 357.719 402.828 356.647 403.948 356.647L406.012 356.887V356.647L406.444 356.887C407.596 356.887 408.364 356.503 408.748 355.735V355.495C408.3 355.015 405.852 354.551 401.404 354.103C400.924 353.335 400.684 352.423 400.684 351.367C400.684 350.439 401.372 349.655 402.748 349.015C403.548 349.335 405.932 349.495 409.9 349.495C409.9 348.887 409.756 348.199 409.468 347.431C409.916 345.831 410.14 344.215 410.14 342.583C410.14 338.167 410.06 335.175 409.9 333.607C410.06 333.319 410.14 333.079 410.14 332.887C409.82 329.943 409.66 327.335 409.66 325.063C409.884 323.687 410.588 322.999 411.772 322.999C412.924 322.999 413.852 323.767 414.556 325.303C414.364 326.999 414.268 328.759 414.268 330.583C414.268 331.671 415.356 332.215 417.532 332.215H419.164C420.22 332.215 420.748 331.287 420.748 329.431C420.748 326.967 421.212 325.735 422.14 325.735H422.812C424.092 325.735 424.94 326.743 425.356 328.759C423.82 342.263 423.052 349.799 423.052 351.367C422.188 352.583 421.34 353.191 420.508 353.191H420.076C418.828 352.423 418.204 351.495 418.204 350.407C419.132 346.407 419.82 341.959 420.268 337.063L419.596 336.583C416.492 337.031 414.812 337.255 414.556 337.255C414.556 338.983 414.46 340.151 414.268 340.759L414.556 341.671C414.364 343.943 414.268 346.007 414.268 347.863C413.884 348.727 413.132 349.655 412.012 350.647C413.164 351.607 414.012 352.919 414.556 354.583L414.268 355.015V356.647C414.908 357.287 415.228 357.895 415.228 358.471V359.191C414.748 360.407 413.596 361.015 411.772 361.015C408.38 361.303 406.684 361.767 406.684 362.407C406.684 363.783 407.836 364.471 410.14 364.471V364.231L410.62 364.471C411.1 364.471 412.252 364.247 414.076 363.799C415.772 363.895 416.62 364.663 416.62 366.103C416.62 367.703 415.148 368.855 412.204 369.559ZM399.532 344.215C395.692 344.215 393.772 342.375 393.772 338.695L394.012 336.343C393.404 334.007 393.1 332.551 393.1 331.975C393.1 330.599 393.708 329.911 394.924 329.911C396.94 330.519 397.948 331.591 397.948 333.127C398.204 336.967 398.668 338.887 399.34 338.887C400.524 339.047 401.74 339.127 402.988 339.127C403.66 339.127 404.364 338.983 405.1 338.695C406.636 339.271 407.404 339.959 407.404 340.759C407.404 343.063 404.78 344.215 399.532 344.215ZM464.191 366.583L458.191 366.103C457.935 366.263 457.631 366.343 457.279 366.343C454.527 366.343 452.975 364.423 452.623 360.583C452.623 356.999 452.943 354.151 453.583 352.039C453.359 351.431 453.135 351.127 452.911 351.127C449.935 351.127 447.087 351.207 444.367 351.367C443.439 350.951 442.975 350.407 442.975 349.735L443.215 349.255V347.191C443.215 346.967 443.663 346.663 444.559 346.279C446.543 346.599 448.399 346.759 450.127 346.759H453.823C454.431 346.759 454.815 345.607 454.975 343.303C454.975 341.767 453.743 340.999 451.279 340.999C450.351 340.487 449.887 339.255 449.887 337.303C449.887 336.279 450.047 334.743 450.367 332.695C450.367 331.639 449.663 330.871 448.255 330.391L448.063 329.239C448.063 327.223 448.367 326.135 448.975 325.975C452.015 326.295 454.159 326.455 455.407 326.455C458.639 326.455 460.255 326.295 460.255 325.975C461.535 326.295 462.463 326.839 463.039 327.607V328.519C463.039 329.607 462.415 330.391 461.167 330.871C459.951 330.743 459.343 330.583 459.343 330.391C456.111 330.615 454.495 330.999 454.495 331.543C454.207 332.311 454.063 333.687 454.063 335.671C454.063 336.279 454.367 336.583 454.975 336.583C455.487 336.583 455.871 336.519 456.127 336.391C456.959 336.519 457.567 336.583 457.951 336.583C459.583 336.295 460.655 336.151 461.167 336.151H464.431C465.807 337.207 466.495 337.895 466.495 338.215C466.079 340.071 465.151 340.999 463.711 340.999H460.255C459.327 340.999 458.863 341.687 458.863 343.063C458.575 344.183 458.431 345.415 458.431 346.759L461.167 346.999L462.799 346.759L463.231 346.999C463.391 346.999 463.471 346.919 463.471 346.759L466.255 346.999L471.103 346.759C472.639 347.879 473.407 348.567 473.407 348.823V349.975C473.407 350.295 472.639 350.983 471.103 352.039C468.351 351.431 463.967 351.127 457.951 351.127V351.799C457.183 354.871 456.799 357.639 456.799 360.103C456.799 361.031 457.727 361.495 459.583 361.495C462.271 361.335 463.951 361.255 464.623 361.255C466.031 361.767 466.735 362.695 466.735 364.039C465.839 365.735 464.991 366.583 464.191 366.583ZM502.262 362.407H501.83C499.814 361.863 498.806 360.631 498.806 358.711C498.806 358.423 498.886 358.279 499.046 358.279L498.374 349.975C498.374 349.847 498.438 349.383 498.566 348.583C498.278 348.007 498.134 347.303 498.134 346.471L498.374 344.887C498.054 344.375 497.894 343.879 497.894 343.399C497.894 340.583 497.734 338.775 497.414 337.975L497.654 337.495C497.654 337.207 497.27 335.287 496.502 331.735C496.822 330.775 497.206 330.247 497.654 330.151H498.374C500.518 330.631 501.59 331.703 501.59 333.367C501.75 335.415 501.83 337.191 501.83 338.695H501.59L501.83 339.127C501.83 340.951 501.974 345.095 502.262 351.559H502.502C502.502 351.719 502.422 351.799 502.262 351.799C502.742 355.575 503.206 358.503 503.654 360.583C503.654 361.159 503.19 361.767 502.262 362.407ZM482.198 352.951H481.526C479.894 352.951 478.438 351.799 477.158 349.495C476.838 348.535 476.678 347.767 476.678 347.191C477.35 343.031 478.118 340.951 478.982 340.951C479.206 340.599 479.51 339.607 479.894 337.975L480.806 337.255C484.134 337.255 486.838 339.415 488.918 343.735C489.206 344.343 489.35 345.351 489.35 346.759C489.35 349.319 486.966 351.383 482.198 352.951ZM481.766 348.823C484.678 348.055 486.134 346.583 486.134 344.407C486.134 343.639 485.206 342.951 483.35 342.343C481.718 344.103 480.87 345.799 480.806 347.431C480.806 348.359 481.126 348.823 481.766 348.823ZM256.835 417.127C255.939 416.071 255.491 415.463 255.491 415.303C255.491 414.439 255.555 413.591 255.683 412.759C255.235 404.055 255.011 396.215 255.011 389.239C255.011 388.407 255.315 387.863 255.923 387.607H256.595C257.875 387.607 258.803 388.311 259.379 389.719C259.219 391.095 259.075 391.927 258.947 392.215C259.555 406.519 259.859 414.135 259.859 415.063C259.859 416.439 258.851 417.127 256.835 417.127ZM237.491 406.759C235.187 406.023 234.035 404.711 234.035 402.823C233.875 402.823 233.795 402.679 233.795 402.391C234.691 396.375 236.147 393.367 238.163 393.367C238.995 392.951 239.843 392.727 240.707 392.695C243.427 392.695 245.267 394.007 246.227 396.631C246.227 400.535 245.315 402.983 243.491 403.975C241.507 405.831 239.507 406.759 237.491 406.759ZM239.075 401.911C241.379 400.631 242.531 399.399 242.531 398.215V397.063C242.531 396.839 242.307 396.615 241.859 396.391H240.275L238.403 401.671C238.691 401.831 238.915 401.911 239.075 401.911ZM255.011 424.951H254.291C253.811 424.951 252.051 423.415 249.011 420.343H248.531C247.155 423.127 245.779 424.519 244.403 424.519C242.547 424.519 241.235 423.287 240.467 420.823H239.555C238.851 423.127 238.003 424.279 237.011 424.279C235.315 424.119 234.467 423.431 234.467 422.215V421.543C236.771 415.591 238.163 412.199 238.643 411.367L239.315 410.935H239.795C241.779 410.935 242.771 412.471 242.771 415.543C243.091 415.543 243.475 416.375 243.923 418.039H244.403C246.163 414.839 247.235 413.159 247.619 412.999H248.771C250.147 412.999 251.075 414.151 251.555 416.455L256.835 421.735L257.075 422.887C256.883 424.263 256.195 424.951 255.011 424.951ZM278.595 404.791H278.115C275.299 404.791 273.683 403.559 273.267 401.095C273.011 401.095 272.851 400.551 272.787 399.463C273.075 395.335 274.083 393.271 275.811 393.271C275.811 393.111 275.891 393.031 276.051 393.031C277.267 393.287 277.875 393.511 277.875 393.703C279.251 392.647 280.179 392.119 280.659 392.119C283.507 392.119 285.651 394.039 287.091 397.879V398.551C287.091 401.079 285.331 402.919 281.811 404.071C280.627 404.551 279.555 404.791 278.595 404.791ZM278.115 401.095C280.291 401.095 282.211 400.167 283.875 398.311V397.399C283.331 396.471 282.643 396.007 281.811 396.007C280.947 396.007 279.571 396.935 277.683 398.791C277.395 398.919 277.075 398.983 276.723 398.983V400.183C276.723 400.407 277.043 400.711 277.683 401.095H278.115ZM294.963 420.439C293.107 419.831 291.027 419.447 288.723 419.287C288.467 419.447 288.163 419.527 287.811 419.527L287.331 419.287C287.043 419.287 286.899 419.367 286.899 419.527L284.115 419.287C281.267 419.287 279.427 419.223 278.595 419.095C278.339 419.223 277.955 419.287 277.443 419.287C276.643 419.287 275.939 419.223 275.331 419.095C273.891 419.223 271.987 419.287 269.619 419.287C267.891 419.287 266.499 419.367 265.443 419.527C263.907 418.919 263.139 417.991 263.139 416.743V415.591C263.523 414.855 264.211 414.487 265.203 414.487C265.875 414.935 267.875 415.239 271.203 415.399L272.355 415.159C274.691 415.319 279.219 415.463 285.939 415.591L286.419 415.399C286.675 415.527 286.979 415.591 287.331 415.591L289.635 415.399C289.795 415.399 289.875 415.463 289.875 415.591L291.027 415.399H293.331C295.635 415.847 296.787 416.615 296.787 417.703C296.787 419.143 296.179 420.055 294.963 420.439ZM325.373 419.095C324.189 419.095 323.501 418.167 323.309 416.311C324.845 409.495 325.613 405.655 325.613 404.791L325.181 404.551C323.613 404.551 321.757 404.775 319.613 405.223C317.949 404.679 317.117 403.911 317.117 402.919V401.335C317.117 401.111 317.501 400.711 318.269 400.135C319.165 400.135 320.541 400.231 322.397 400.423C323.837 400.231 325.213 400.135 326.525 400.135C326.845 399.527 327.005 398.999 327.005 398.551C326.685 398.551 326.525 398.391 326.525 398.071C323.677 398.071 321.453 398.535 319.853 399.463C318.029 398.951 317.117 397.879 317.117 396.247V395.095C317.117 394.775 317.565 394.471 318.461 394.183C318.621 394.183 318.701 394.263 318.701 394.423L319.853 394.183H324.221L325.613 393.943C325.869 394.103 326.413 394.183 327.245 394.183C327.853 394.183 328.157 393.095 328.157 390.919V389.335C327.677 387.319 327.437 386.247 327.437 386.119V384.487C327.885 383.719 328.509 383.335 329.309 383.335C331.325 383.943 332.333 384.935 332.333 386.311C332.621 387.111 332.765 388.535 332.765 390.583C332.765 393.911 331.469 401.719 328.877 414.007C328.877 416.759 328.029 418.359 326.333 418.807C325.981 418.807 325.661 418.903 325.373 419.095ZM309.725 411.223H307.181C306.317 411.223 305.309 410.615 304.157 409.399V409.159L303.053 409.831C301.037 409.831 300.029 408.599 300.029 406.135C300.477 398.935 301.245 395.335 302.333 395.335C303.261 395.463 303.805 395.527 303.965 395.527C304.509 395.079 305.053 394.855 305.597 394.855H309.005L310.397 395.095C310.653 394.935 311.037 394.855 311.549 394.855C313.725 394.855 315.037 395.623 315.485 397.159C315.485 406.087 314.717 410.551 313.181 410.551C311.805 410.999 310.653 411.223 309.725 411.223ZM308.573 407.095C309.949 407.095 310.637 404.711 310.637 399.943C310.637 399.559 310.413 399.255 309.965 399.031C309.037 399.031 307.885 399.255 306.509 399.703C306.221 399.543 305.917 399.463 305.597 399.463C305.117 399.943 304.877 402.407 304.877 406.855C305.389 406.535 305.853 406.375 306.269 406.375C306.429 406.375 307.197 406.615 308.573 407.095ZM318.941 429.223H318.029C315.469 428.455 313.917 428.071 313.373 428.071C311.101 427.175 309.117 424.487 307.421 420.007C307.101 420.007 306.941 419.543 306.941 418.615C306.941 417.943 307.485 417.399 308.573 416.983C310.685 416.983 312.141 418.055 312.941 420.199C313.485 422.663 315.021 423.895 317.549 423.895C322.765 423.895 325.373 424.663 325.373 426.199C325.373 428.055 324.605 428.983 323.069 428.983C322.589 428.983 322.205 428.903 321.917 428.743C321.245 429.063 320.253 429.223 318.941 429.223ZM362.565 400.279C361.189 399.703 360.501 398.775 360.501 397.495C360.501 396.951 362.421 395.351 366.261 392.695L369.717 388.759V388.279L368.565 388.087C368.405 388.087 368.181 388.151 367.893 388.279C364.981 388.023 363.525 387.175 363.525 385.735L363.285 384.823C363.285 384.279 363.829 383.751 364.917 383.239L368.133 383.911C370.213 383.911 372.277 383.607 374.325 382.999C375.861 382.999 376.789 384.151 377.109 386.455L375.237 389.911C375.237 390.743 377.397 391.975 381.717 393.607C382.485 394.407 382.869 395.095 382.869 395.671V396.343C382.453 397.271 381.685 397.735 380.565 397.735C379.829 397.127 377.989 396.439 375.045 395.671C373.829 394.967 372.837 394.279 372.069 393.607H371.829C367.253 397.799 364.165 400.023 362.565 400.279ZM373.413 429.559C369.445 429.559 367.061 427.559 366.261 423.559C366.261 423.111 366.197 422.887 366.069 422.887C366.069 421.575 366.757 419.735 368.133 417.367C365.509 417.367 364.197 416.519 364.197 414.823V413.191C364.197 412.871 364.741 412.647 365.829 412.519C368.293 412.807 369.749 412.951 370.197 412.951C370.357 412.663 370.437 412.439 370.437 412.279C369.829 411.511 369.445 410.199 369.285 408.343L368.805 408.103C367.717 408.103 366.421 408.183 364.917 408.343V408.103L364.437 408.343C361.237 408.343 359.237 408.263 358.437 408.103C357.605 408.263 356.997 408.343 356.613 408.343C352.773 408.343 350.853 407.815 350.853 406.759C350.533 405.735 350.373 405.031 350.373 404.647C350.469 403.751 350.693 403.303 351.045 403.303C351.557 403.303 353.253 403.527 356.133 403.975C362.437 403.975 365.589 404.055 365.589 404.215L366.069 403.975C367.317 403.975 368.085 404.055 368.373 404.215C370.197 404.215 371.109 402.439 371.109 398.887C371.269 398.887 371.349 397.975 371.349 396.151C371.349 395.895 371.653 395.591 372.261 395.239C374.437 395.655 375.525 396.343 375.525 397.303C375.653 397.591 375.717 397.815 375.717 397.975C375.269 400.663 375.045 402.359 375.045 403.063C375.045 403.671 375.205 403.975 375.525 403.975C384.357 403.975 390.501 403.895 393.957 403.735C395.173 404.215 395.781 405.143 395.781 406.519V407.431C395.781 407.783 395.093 408.167 393.717 408.583C392.725 408.263 392.037 408.103 391.653 408.103C389.349 408.103 387.189 408.183 385.173 408.343C384.405 408.055 383.877 407.911 383.589 407.911L378.741 408.343C376.725 408.247 375.717 408.103 375.717 407.911L375.237 408.103H372.981V408.583C373.525 409.127 374.373 410.503 375.525 412.711C380.741 412.711 383.349 413.639 383.349 415.495C383.125 416.135 382.741 416.599 382.197 416.887C381.397 416.855 380.629 416.775 379.893 416.647C379.573 416.807 379.333 416.887 379.173 416.887L377.589 416.647C377.269 416.807 377.029 416.887 376.869 416.887C379.045 419.159 380.133 420.455 380.133 420.775C380.261 421.639 380.325 422.375 380.325 422.983C380.325 426.599 379.253 428.711 377.109 429.319C375.509 429.319 374.277 429.399 373.413 429.559ZM372.741 425.671C375.205 425.671 376.437 424.743 376.437 422.887V422.167C376.437 420.951 375.429 420.343 373.413 420.343C373.125 420.343 372.517 421.111 371.589 422.647C370.949 422.647 370.629 423.111 370.629 424.039C370.629 424.967 371.333 425.511 372.741 425.671ZM427.157 414.007C426.485 414.007 426.101 413.079 426.005 411.223C426.453 409.271 427.141 403.207 428.069 393.031C428.069 390.311 427.525 388.535 426.437 387.703C425.829 386.615 425.525 385.783 425.525 385.207C425.781 384.279 426.325 383.815 427.157 383.815C429.397 383.815 431.157 386.119 432.437 390.727V391.207C431.413 404.711 430.645 411.463 430.133 411.463C430.133 412.711 429.141 413.559 427.157 414.007ZM421.637 411.223C420.933 411.223 420.229 410.231 419.525 408.247C419.525 408.087 420.069 405.319 421.157 399.943C421.157 399.175 420.229 398.791 418.373 398.791C416.997 399.239 415.701 399.463 414.485 399.463C414.005 399.463 413.461 398.471 412.853 396.487C412.853 395.399 413.461 394.855 414.677 394.855C414.837 394.855 414.917 394.935 414.917 395.095L416.069 394.855H419.525C420.709 394.855 421.413 394.551 421.637 393.943V391.399C421.157 389.895 420.917 389.047 420.917 388.855C421.269 387.959 421.573 387.511 421.829 387.511H423.221C425.237 388.119 426.245 389.111 426.245 390.487L425.765 394.663C425.765 394.791 425.845 394.855 426.005 394.855C424.789 403.847 424.181 408.695 424.181 409.399C423.509 410.615 422.661 411.223 421.637 411.223ZM405.461 405.703H404.789C403.701 404.903 403.157 404.135 403.157 403.399C403.989 401.543 405.141 399.319 406.613 396.727V396.247C406.613 394.711 404.693 393.943 400.853 393.943C399.637 393.239 399.029 392.327 399.029 391.207C399.157 390.599 399.685 390.135 400.613 389.815C403.461 389.815 406.469 390.887 409.637 393.031C410.405 394.279 410.789 395.575 410.789 396.919C410.789 398.327 409.637 400.951 407.333 404.791C406.661 405.399 406.037 405.703 405.461 405.703ZM426.245 428.743C425.253 428.743 423.477 426.903 420.917 423.223L420.005 422.551C417.189 425.623 415.349 427.159 414.485 427.159H413.765C412.677 426.327 412.133 425.479 412.133 424.615C412.293 423.815 412.373 423.351 412.373 423.223C411.957 422.199 411.509 421.591 411.029 421.399C409.237 423.991 407.925 425.287 407.093 425.287H406.613C405.909 425.287 405.141 424.679 404.309 423.463V422.071C407.701 418.711 409.397 415.639 409.397 412.855C409.909 412.087 410.517 411.703 411.221 411.703C412.117 411.703 413.045 412.391 414.005 413.767C414.005 414.247 413.925 415.239 413.765 416.743C414.149 417.095 414.613 418.103 415.157 419.767H415.829C416.213 419.767 416.837 418.615 417.701 416.311L417.461 415.159C418.005 413.783 418.549 413.095 419.093 413.095C420.725 413.095 421.941 414.007 422.741 415.831C422.613 416.119 422.469 416.887 422.309 418.135C424.773 421.079 426.693 423.095 428.069 424.183C428.517 425.335 428.741 426.167 428.741 426.679C428.645 427.287 427.813 427.975 426.245 428.743ZM439.862 406.807C439.382 406.743 438.998 406.295 438.71 405.463C438.806 404.471 440.566 402.471 443.99 399.463C445.142 398.279 446.294 396.903 447.446 395.335V394.615C444.63 394.775 442.326 395.079 440.534 395.527C438.71 395.527 437.798 394.839 437.798 393.463C437.99 392.823 438.358 392.359 438.902 392.071C440.182 392.071 440.966 392.151 441.254 392.311C441.51 392.151 441.814 392.071 442.166 392.071C442.71 392.071 443.398 392.151 444.23 392.311C444.742 392.023 445.206 391.879 445.622 391.879C445.782 391.879 446.006 391.943 446.294 392.071C447.926 391.943 449.318 391.719 450.47 391.399C451.846 391.591 452.534 392.279 452.534 393.463C451.83 394.711 450.982 396.023 449.99 397.399V397.831C452.006 399.239 454.006 400.007 455.99 400.135C460.278 400.519 462.422 401.287 462.422 402.439V402.919C462.07 403.687 461.622 404.071 461.078 404.071C455.414 403.623 452.022 402.935 450.902 402.007C450.486 402.007 449.414 401.383 447.686 400.135H447.206C443.462 404.583 441.014 406.807 439.862 406.807ZM452.054 421.111H450.662C450.054 420.823 449.75 420.599 449.75 420.439C444.374 420.599 440.39 420.823 437.798 421.111C436.39 420.535 435.686 419.463 435.686 417.895C435.974 417.191 436.278 416.807 436.598 416.743C438.166 416.743 439.254 416.823 439.862 416.983L443.75 416.503V412.615C443.75 409.895 444.454 408.055 445.862 407.095H446.534C447.59 407.703 448.118 408.231 448.118 408.679C447.35 411.143 446.966 413.687 446.966 416.311L447.686 416.743C449.286 416.743 450.134 416.519 450.23 416.071C450.23 410.087 450.534 407.095 451.142 407.095H452.054C453.206 407.863 453.894 408.615 454.118 409.351C454.118 409.511 454.054 409.751 453.926 410.071C454.054 412.215 454.118 414.055 454.118 415.591C454.118 415.975 454.358 416.279 454.838 416.503C457.334 416.503 458.71 416.439 458.966 416.311L459.446 416.503L464.294 415.831C465.51 416.279 466.342 416.807 466.79 417.415V419.767C466.406 420.535 465.766 420.919 464.87 420.919C463.078 420.439 461.35 420.199 459.686 420.199C455.11 420.199 452.566 420.503 452.054 421.111Z" fill="#171717"/>
</svg>
