<svg width="447" height="283" viewBox="0 0 447 283" fill="none" xmlns="http://www.w3.org/2000/svg">
<path fill-rule="evenodd" clip-rule="evenodd" d="M289.986 70.8122C289.986 70.8122 326.895 83.4172 324.711 100.089C324.711 100.089 323.681 103.947 317.902 108.941L278.411 144.348C278.411 144.348 315.303 117.03 328.796 120.516C328.796 120.516 333.82 123.462 329.477 134.815L315.179 172.945C315.179 172.945 342.357 131.604 352.627 130.729C352.627 130.729 361.875 129.341 375.777 166.135C375.777 166.135 376.396 120.556 388.714 113.027C388.714 113.027 398.995 102.353 433.652 108.26C433.652 108.26 399.464 94.0911 398.927 83.7485C398.927 83.7485 399.705 74.349 415.268 61.96L446.589 35.4052C446.589 35.4052 407.757 58.4334 396.204 53.1087C396.204 53.1087 391.408 50.9158 394.842 36.7678L407.098 0C407.098 0 372.664 59.8739 366.926 46.9807C366.926 46.9807 352.221 33.4699 346.499 10.8942C346.499 10.8942 350.248 62.3871 338.329 69.4497C338.329 69.4497 338.866 73.7033 289.986 70.8122Z" fill="#398DFF"/>
<path d="M2.88 129.897V122.985H28.8V114.129H36V122.985H61.632V129.897H2.88ZM3.672 111.825C18.432 108.729 25.776 104.625 28.584 101.385V97.8567H4.968V91.2327H59.328V97.8567H35.712V101.241C38.664 104.049 46.008 107.721 60.624 110.745L59.184 117.369C45.36 114.417 36.792 110.601 32.328 107.073C27.936 111.105 19.296 115.425 5.112 118.449L3.672 111.825ZM115.451 112.329V90.5127H122.651V91.9527H129.203V98.7927H122.651V112.329H115.451ZM66.7069 105.993C66.7069 101.457 71.5309 99.0087 89.6029 99.0087C107.603 99.0087 112.139 101.457 112.139 105.993C112.139 110.241 107.747 113.049 89.6029 113.049C71.2429 113.049 66.7069 110.241 66.7069 105.993ZM67.6429 97.5687V91.5927H85.8589V89.7927H92.9149V91.5927H111.131V97.5687H67.6429ZM68.7949 131.337V114.849H75.9949V117.153H115.451V114.849H122.651V131.337H68.7949ZM73.9069 105.993C73.9069 106.569 74.9869 107.073 89.6029 107.073C104.003 107.073 104.939 106.641 104.939 105.993C104.939 105.489 104.291 104.985 89.6029 104.985C74.8429 104.985 73.9069 105.417 73.9069 105.993ZM75.9949 125.001H115.451V123.489H75.9949V125.001ZM152.618 106.929V90.5127H206.258V97.4247H159.818V100.017H207.842V106.929H184.154V108.441H209.93V114.849H151.178V108.441H176.954V106.929H152.618ZM150.818 124.569C150.818 119.385 157.514 116.505 180.41 116.505C203.594 116.505 209.93 119.529 209.93 124.569C209.93 129.753 203.306 132.633 180.41 132.633C157.298 132.633 150.818 129.753 150.818 124.569ZM158.018 124.569C158.018 125.217 158.81 126.081 180.41 126.081C202.01 126.081 202.73 125.217 202.73 124.569C202.73 123.921 202.01 123.129 180.41 123.129C158.81 123.129 158.018 123.921 158.018 124.569ZM240.556 112.905C253.3 112.905 256.756 109.737 256.756 104.985C256.756 100.161 253.3 96.9927 240.556 96.9927C227.74 96.9927 224.356 100.161 224.356 104.985C224.356 109.809 227.74 112.905 240.556 112.905ZM217.156 104.985C217.156 96.7767 224.212 90.0807 240.556 90.0807C256.828 90.0807 263.956 96.7767 263.956 104.985C263.956 113.265 256.828 119.817 240.556 119.817C224.212 119.817 217.156 113.193 217.156 104.985ZM217.228 131.337V124.425H268.78V90.4407H275.98V131.337H217.228ZM283.146 112.905V106.713H341.898V112.905H327.714V114.561H341.394V123.489C338.874 124.137 298.626 126.081 290.85 125.865V126.513H342.402V131.409H283.65V121.257C302.802 121.257 330.522 120.393 334.194 119.745V119.025L284.514 119.673V114.561H297.33V112.905H283.146ZM283.29 97.5687C283.29 92.6007 288.618 89.8647 312.522 89.8647C336.282 89.8647 341.754 92.6007 341.754 97.5687C341.754 102.609 336.138 105.345 312.522 105.345C288.762 105.345 283.29 102.609 283.29 97.5687ZM290.49 97.5687C290.49 98.0727 292.074 98.8647 312.522 98.8647C332.97 98.8647 334.554 98.0727 334.554 97.5687C334.554 97.1367 332.97 96.3447 312.522 96.3447C292.074 96.3447 290.49 97.1367 290.49 97.5687ZM304.53 114.561H320.514V112.905H304.53V114.561Z" fill="white"/>
<path d="M80.4 192.223L38.4 275.773H22.2L57.45 205.723H4.5V192.223H80.4ZM88.2375 192.223H154.088V205.723H103.388V221.473H119.287C149.588 221.473 160.388 237.973 158.887 252.073C156.488 274.873 133.388 276.373 123.638 276.673C109.388 276.973 93.7875 273.823 81.1875 264.673L88.8375 253.573C99.4875 261.673 110.438 263.173 123.638 263.173C135.038 263.173 142.688 258.973 143.888 251.473C144.938 245.323 137.738 234.973 118.538 234.973C99.7875 234.973 90.7875 234.973 88.2375 234.823V192.223ZM176.653 277.057L172.693 272.881L201.061 236.233L205.669 239.545L176.653 277.057ZM170.029 253.801C167.221 250.921 166.573 247.033 171.181 242.425C175.501 238.105 179.389 238.537 182.197 241.561C185.005 244.225 185.581 248.113 181.189 252.577C176.581 257.041 172.693 256.609 170.029 253.801ZM174.349 249.337C175.141 250.201 176.293 250.273 177.517 249.049C178.741 247.681 178.669 246.601 177.805 245.881C177.013 244.945 175.933 244.873 174.709 246.097C173.413 247.465 173.485 248.545 174.349 249.337ZM194.509 273.313C191.701 270.433 191.053 266.545 195.661 261.937C199.981 257.617 203.869 258.049 206.677 261.073C209.485 263.737 210.061 267.625 205.669 272.089C201.061 276.553 197.173 276.121 194.509 273.313ZM198.829 268.849C199.621 269.713 200.773 269.785 201.997 268.561C203.221 267.193 203.149 266.113 202.285 265.393C201.493 264.457 200.413 264.385 199.189 265.609C197.893 266.977 197.965 268.057 198.829 268.849Z" fill="white"/>
</svg>
