<svg width="80" height="202" viewBox="0 0 80 202" fill="none" xmlns="http://www.w3.org/2000/svg">
<path d="M1.50107 194.099C1.62341 193.56 2.15908 193.223 2.69736 193.345C3.23593 193.467 3.57354 194.003 3.45126 194.542C3.21997 195.561 2.98026 196.533 2.73544 197.396C2.56962 197.98 2.42557 198.457 2.32724 198.866C2.27927 199.066 2.24908 199.224 2.23349 199.348C2.217 199.478 2.22287 199.526 2.22177 199.519C2.23368 199.595 2.23575 199.67 2.23056 199.744C4.95331 199.778 7.86245 199.785 12.2833 199.579C17.3772 199.341 24.3878 198.821 31.9454 198.155C32.4955 198.107 32.9809 198.513 33.0294 199.063C33.0776 199.613 32.671 200.099 32.1212 200.147C24.553 200.814 17.5103 201.337 12.3761 201.577C7.2322 201.817 4.10074 201.773 0.98642 201.729C0.434321 201.722 -0.00743838 201.268 9.15527e-05 200.716C0.00392917 200.443 0.116192 200.196 0.29599 200.019C0.273632 199.958 0.256579 199.894 0.246185 199.827C0.173398 199.361 0.280489 198.825 0.382904 198.398C0.493861 197.937 0.658251 197.387 0.810638 196.85C1.04259 196.032 1.27445 195.097 1.50107 194.099ZM9.56259 193.853C10.0117 193.531 10.6367 193.635 10.9581 194.084C11.2794 194.533 11.1758 195.158 10.7267 195.479C9.94687 196.037 9.16747 196.6 8.39072 197.169C7.58588 197.758 6.86978 198.27 6.23447 198.71C5.78053 199.024 5.15737 198.912 4.84286 198.458C4.52849 198.004 4.64199 197.381 5.09579 197.066C5.71341 196.638 6.41502 196.137 7.21005 195.555C7.99307 194.981 8.7775 194.414 9.56259 193.853ZM19.0968 187.248C19.5537 186.938 20.1754 187.057 20.4854 187.514C20.7955 187.971 20.6759 188.593 20.2188 188.903C18.6336 189.979 17.0421 191.064 15.4493 192.164C14.9949 192.478 14.3716 192.364 14.0577 191.909C13.744 191.455 13.8584 190.832 14.3126 190.519C15.9122 189.413 17.5092 188.325 19.0968 187.248ZM3.5079 183.772C3.60733 183.229 4.12889 182.87 4.67197 182.969C5.21502 183.068 5.5749 183.59 5.47568 184.133C5.37315 184.694 5.2596 185.309 5.13388 185.994C4.97692 186.85 4.8004 187.819 4.60947 188.839C4.5078 189.382 3.98525 189.739 3.44247 189.638C2.89977 189.536 2.54199 189.013 2.64365 188.471C2.8337 187.456 3.00857 186.492 3.16611 185.633C3.29266 184.943 3.40534 184.334 3.5079 183.772ZM28.6583 180.744C29.1126 180.43 29.7359 180.544 30.0499 180.998C30.3638 181.452 30.2502 182.076 29.796 182.39C28.2187 183.479 26.6209 184.568 25.0108 185.659C24.5539 185.969 23.9321 185.849 23.6222 185.393C23.3124 184.936 23.4318 184.313 23.8888 184.003C25.4967 182.913 27.0884 181.829 28.6583 180.744ZM5.4747 177.354C6.02316 177.418 6.41624 177.914 6.35263 178.463C6.27222 179.154 6.19235 179.772 6.10751 180.365C6.02922 180.912 5.52235 181.291 4.97568 181.213C4.42921 181.135 4.04901 180.629 4.12704 180.082C4.20916 179.508 4.28774 178.908 4.3663 178.232C4.43014 177.684 4.92623 177.291 5.4747 177.354ZM37.9981 174C38.4364 173.664 39.0645 173.747 39.4005 174.186C39.7363 174.624 39.6533 175.252 39.2149 175.588C37.6903 176.756 36.1298 177.908 34.5421 179.05C34.0938 179.372 33.4689 179.27 33.1466 178.821C32.8244 178.373 32.9262 177.748 33.3741 177.426C34.9487 176.293 36.4924 175.153 37.9981 174ZM46.7765 166.62C47.1789 166.242 47.8113 166.262 48.1895 166.664C48.5677 167.067 48.548 167.699 48.1456 168.077C46.7388 169.399 45.277 170.687 43.7696 171.948C43.3461 172.302 42.7158 172.247 42.3614 171.823C42.0073 171.4 42.0633 170.769 42.4864 170.415C43.9681 169.175 45.4009 167.913 46.7765 166.62ZM54.4649 158.209C54.8007 157.771 55.4289 157.687 55.8673 158.022C56.3057 158.358 56.3886 158.986 56.0528 159.425C54.8658 160.974 53.6012 162.47 52.2696 163.919C51.8959 164.325 51.263 164.352 50.8565 163.979C50.4502 163.605 50.4237 162.972 50.797 162.565C52.0915 161.157 53.3172 159.707 54.4649 158.209ZM60.3663 148.539C60.5991 148.038 61.1937 147.821 61.6944 148.054C62.1951 148.287 62.4125 148.881 62.1798 149.382C61.343 151.181 60.4097 152.91 59.3897 154.575C59.1012 155.046 58.4856 155.194 58.0147 154.905C57.544 154.617 57.3963 154.001 57.6847 153.53C58.6663 151.928 59.563 150.267 60.3663 148.539ZM63.9317 137.794C64.0543 137.256 64.5897 136.919 65.128 137.041C65.6665 137.163 66.0042 137.699 65.8819 138.237C65.6639 139.196 65.4312 140.139 65.1866 141.062C64.9316 142.024 64.6517 142.968 64.3477 143.894C64.1754 144.418 63.6107 144.703 63.086 144.531C62.5615 144.359 62.2752 143.794 62.4474 143.27C62.7392 142.38 63.0089 141.474 63.254 140.549C63.4925 139.649 63.719 138.73 63.9317 137.794ZM66.7511 125.654C67.3014 125.7 67.7102 126.184 67.6642 126.734C67.4999 128.699 67.2664 130.631 66.9737 132.518C66.889 133.063 66.3779 133.437 65.8321 133.353C65.2865 133.268 64.9125 132.757 64.9972 132.211C65.2828 130.369 65.5107 128.484 65.671 126.567C65.7171 126.017 66.2009 125.608 66.7511 125.654ZM66.6993 114.156C67.2501 114.118 67.7283 114.533 67.7667 115.084C67.9023 117.038 67.9562 118.985 67.9376 120.913C67.9321 121.465 67.48 121.909 66.9278 121.903C66.3757 121.898 65.9323 121.446 65.9376 120.894C65.9557 119.016 65.9034 117.122 65.7716 115.223C65.7335 114.672 66.1487 114.195 66.6993 114.156ZM64.7325 102.832C65.2677 102.696 65.8113 103.02 65.9474 103.555C66.4298 105.453 66.8167 107.366 67.1163 109.282C67.2016 109.828 66.8287 110.339 66.2833 110.425C65.7378 110.51 65.2261 110.137 65.1407 109.592C64.8502 107.734 64.4752 105.882 64.0089 104.047C63.8732 103.512 64.1975 102.968 64.7325 102.832ZM60.5704 92.125C61.065 91.8794 61.6655 92.0816 61.9112 92.5762C62.7873 94.3401 63.5544 96.1392 64.2218 97.9619C64.4115 98.4804 64.1455 99.0542 63.627 99.2441C63.1085 99.4339 62.5338 99.1679 62.3438 98.6494C61.7007 96.8929 60.9624 95.1615 60.1202 93.4658C59.8747 92.9713 60.0759 92.3707 60.5704 92.125ZM54.1075 82.6357C54.5313 82.2818 55.1616 82.3381 55.5157 82.7617C56.4583 83.8902 57.3385 85.047 58.1593 86.2275C58.1967 86.2094 58.2349 86.1921 58.2726 86.1738C58.7693 85.9325 59.3681 86.1401 59.6095 86.6367C59.8482 87.1283 59.6469 87.7178 59.1612 87.9639C59.1824 88.3113 59.0225 88.6597 58.7101 88.8633C58.3217 89.116 57.8236 89.0641 57.4952 88.7676C57.0213 88.9959 56.605 89.2007 56.2472 89.3887C55.4205 89.8228 54.5311 90.0896 53.5977 90.2207C53.051 90.2972 52.5456 89.9159 52.4688 89.3691C52.3922 88.8225 52.7729 88.3173 53.3194 88.2402C54.0532 88.1372 54.7173 87.9318 55.3165 87.6172C55.6157 87.46 55.9585 87.2905 56.3331 87.1084C55.5981 86.0662 54.8152 85.0431 53.9806 84.0439C53.6269 83.6202 53.684 82.9897 54.1075 82.6357ZM42.4991 86.709C42.7213 86.2035 43.311 85.9734 43.8165 86.1953C44.7497 86.6054 45.6787 86.9635 46.5616 87.25C47.3495 87.5056 48.1076 87.7214 48.8341 87.8906C49.3719 88.016 49.7065 88.5539 49.5811 89.0918C49.4558 89.6296 48.9178 89.9642 48.38 89.8389C47.5883 89.6544 46.7752 89.4219 45.9444 89.1523C44.9897 88.8426 43.9979 88.4598 43.0118 88.0264C42.5065 87.8041 42.2772 87.2144 42.4991 86.709ZM34.0694 80.3457C34.5162 80.0215 35.1414 80.1208 35.4659 80.5674C35.6994 80.8887 36.0012 81.2332 36.3829 81.5977C36.9773 82.1651 37.7469 82.7673 38.6397 83.3701C39.0974 83.6791 39.2182 84.3011 38.9093 84.7588C38.6002 85.2164 37.9783 85.3373 37.5206 85.0283C36.5645 84.3828 35.6995 83.7107 35.0011 83.0439C34.5461 82.6095 34.1621 82.1759 33.8477 81.7432C33.5233 81.2964 33.6228 80.6703 34.0694 80.3457ZM68.963 79.2686C69.3694 78.895 70.0022 78.9219 70.3761 79.3281C70.7498 79.7346 70.7229 80.3674 70.3165 80.7412C68.5796 82.3391 66.7455 83.6712 64.9757 84.7881C64.5087 85.0825 63.8914 84.9425 63.5968 84.4756C63.3023 84.0087 63.4416 83.3915 63.9083 83.0967C65.6003 82.0289 67.3334 80.7677 68.963 79.2686ZM45.9181 75.3213C46.2207 74.8594 46.8409 74.7307 47.3028 75.0332C47.9396 75.4504 48.604 75.9468 49.3009 76.5332C50.0584 77.1707 50.7892 77.8223 51.4933 78.4873C51.8947 78.8666 51.9126 79.4999 51.5333 79.9014C51.154 80.3027 50.5207 80.3206 50.1192 79.9414C49.4431 79.3027 48.7411 78.6763 48.0128 78.0635C47.369 77.5217 46.7689 77.0741 46.2071 76.7061C45.7454 76.4034 45.6156 75.7832 45.9181 75.3213ZM35.0147 74.9395C35.4674 74.6237 36.0901 74.7343 36.4063 75.1865C36.7225 75.6393 36.612 76.2629 36.1593 76.5791C35.7781 76.8453 35.4737 77.133 35.2472 77.4346C35.0032 77.7593 34.8539 78.0884 34.794 78.4199C34.6959 78.9634 34.1754 79.3247 33.6319 79.2266C33.0888 79.1282 32.7282 78.6077 32.8263 78.0645C32.9503 77.3778 33.2493 76.7649 33.6485 76.2334C34.0232 75.7347 34.4912 75.305 35.0147 74.9395ZM75.8155 68.9111C75.9899 68.3874 76.5563 68.1042 77.0802 68.2783C77.6042 68.4526 77.8882 69.0189 77.714 69.543C76.9593 71.8123 75.9319 73.8316 74.7296 75.6299C74.4226 76.0889 73.801 76.2122 73.3419 75.9053C72.8835 75.5982 72.7599 74.9774 73.0665 74.5186C74.1758 72.8596 75.1209 71.0001 75.8155 68.9111ZM39.8595 73.21C40.6757 73.0974 41.5428 73.0471 42.4806 73.1533C43.0293 73.2155 43.4236 73.711 43.3614 74.2598C43.2992 74.8085 42.8037 75.2028 42.255 75.1406C41.5295 75.0585 40.8375 75.0942 40.1329 75.1914C39.6402 75.2594 39.1614 75.3539 38.7061 75.4727C38.1719 75.6117 37.6258 75.2911 37.4864 74.7568C37.3474 74.2228 37.6673 73.6767 38.2013 73.5371C38.7374 73.3972 39.2936 73.288 39.8595 73.21ZM77.7892 55.4463C78.3392 55.3977 78.8244 55.8045 78.8731 56.3545C78.9681 57.4272 79.0345 58.4881 79.0704 59.5342C79.1104 60.7014 79.0889 61.8262 79.0108 62.9092C78.9709 63.4598 78.4922 63.8737 77.9415 63.834C77.3908 63.7941 76.976 63.3154 77.0157 62.7646C77.0885 61.7543 77.109 60.7009 77.0714 59.6025C77.0368 58.5949 76.9729 57.5703 76.881 56.5312C76.8323 55.9812 77.2392 55.4951 77.7892 55.4463ZM75.4972 43.1221C76.0334 42.9899 76.5759 43.3173 76.7081 43.8535C77.2211 45.9354 77.665 48.0073 78.0265 50.0527C78.1225 50.5965 77.7596 51.1157 77.2159 51.2119C76.6721 51.3079 76.1528 50.9442 76.0567 50.4004C75.7038 48.4031 75.2692 46.3751 74.7657 44.332C74.6337 43.7961 74.9614 43.2545 75.4972 43.1221ZM71.7686 31.1504C72.2891 30.9658 72.8614 31.2383 73.046 31.7588C73.7502 33.745 74.4135 35.7492 75.0245 37.7568C75.1853 38.2851 74.8876 38.844 74.3595 39.0049C73.8312 39.1655 73.2722 38.8672 73.1114 38.3389C72.5098 36.3622 71.8561 34.3867 71.1612 32.4268C70.9769 31.9065 71.2486 31.3352 71.7686 31.1504ZM67.0489 19.5322C67.5538 19.3087 68.1446 19.5362 68.3683 20.041C69.2072 21.9363 70.0277 23.8796 70.8175 25.8545C71.0222 26.3672 70.7725 26.9493 70.2599 27.1543C69.7471 27.3592 69.1651 27.1094 68.9601 26.5967C68.1797 24.6453 67.3687 22.7247 66.5392 20.8506C66.3159 20.3457 66.5442 19.7558 67.0489 19.5322ZM61.5069 8.27734C61.9947 8.01872 62.5996 8.20474 62.8585 8.69238C63.8073 10.4804 64.7651 12.3635 65.7149 14.3213C65.9557 14.818 65.7487 15.4161 65.252 15.6572C64.7552 15.8981 64.1562 15.6911 63.9151 15.1943C62.9758 13.2583 62.0294 11.3966 61.0919 9.62988C60.8331 9.14211 61.0192 8.53625 61.5069 8.27734ZM56.7843 0.150391C57.2535 -0.140637 57.8701 0.00351721 58.1612 0.472656C58.6928 1.3297 59.2372 2.2341 59.7911 3.18066C60.07 3.65734 59.9094 4.26991 59.4327 4.54883C58.9561 4.82748 58.3434 4.66791 58.0645 4.19141C57.5188 3.25874 56.9831 2.36907 56.461 1.52734C56.1701 1.05807 56.3151 0.441492 56.7843 0.150391Z" fill="white"/>
</svg>
