<svg width="851" height="627" viewBox="0 0 851 627" fill="none" xmlns="http://www.w3.org/2000/svg">
<path fill-rule="evenodd" clip-rule="evenodd" d="M537.486 0C710.62 0 850.973 140.352 850.973 313.487C850.973 486.62 710.62 626.973 537.486 626.973C364.353 626.973 224 486.62 224 313.487C224 140.352 364.353 0 537.486 0Z" fill="#C9E34B"/>
<path d="M198.774 126.712C301.927 126.712 385.548 210.334 385.548 313.485C385.548 416.638 301.927 500.26 198.774 500.26C95.622 500.26 12.0002 416.638 12 313.485C12 210.334 95.622 126.712 198.774 126.712Z" fill="#C9E34B" stroke="#343434" stroke-width="24"/>
<path d="M470.191 307.664H510.367V316.088L483.727 367.496H473.359L500.071 316.088H470.191V307.664ZM539.013 328.616C549.813 328.616 557.949 336.32 557.949 348.056C557.949 359.72 549.885 367.496 537.501 367.496C528.861 367.496 520.149 363.752 516.693 356.048L524.613 351.584C526.845 356.624 531.525 359.072 536.997 359.072C544.413 359.072 548.877 354.68 548.877 348.056C548.877 341.36 544.053 337.04 537.141 337.04C532.029 337.04 528.717 339.416 526.773 343.664H518.493L522.165 307.664H555.861V316.088H529.941L527.997 333.296C530.733 330.2 534.909 328.616 539.013 328.616ZM573.434 345.224C568.874 345.224 565.226 342.104 565.226 336.536V332.984C565.226 327.512 568.874 324.344 573.434 324.344C577.946 324.344 581.642 327.512 581.642 332.984V336.536C581.642 342.104 577.946 345.224 573.434 345.224ZM574.49 363.656H570.554L597.05 325.064H601.034L574.49 363.656ZM573.434 342.248C576.266 342.248 578.474 340.28 578.474 336.392V333.128C578.474 329.336 576.266 327.32 573.434 327.32C570.602 327.32 568.442 329.336 568.442 333.128V336.392C568.442 340.232 570.602 342.248 573.434 342.248ZM597.77 364.376C593.21 364.376 589.562 361.256 589.562 355.688V352.136C589.562 346.664 593.21 343.496 597.77 343.496C602.282 343.496 605.978 346.664 605.978 352.136V355.688C605.978 361.256 602.282 364.376 597.77 364.376ZM597.77 361.4C600.602 361.4 602.81 359.432 602.81 355.544V352.28C602.81 348.488 600.602 346.472 597.77 346.472C594.938 346.472 592.778 348.488 592.778 352.28V355.544C592.778 359.432 594.938 361.4 597.77 361.4Z" fill="#171717"/>
<path d="M177.903 348.18H144.243V342.24L161.943 324.66C166.923 319.68 169.203 316.38 169.203 312.3C169.203 308.16 166.263 305.22 160.683 305.22C155.283 305.22 152.343 309.18 150.963 314.22L143.643 312.48C145.623 305.04 151.263 298.32 160.683 298.32C170.283 298.32 176.823 303.36 176.823 312C176.823 318.48 173.523 323.1 167.943 328.62L155.283 341.1H177.903V348.18ZM203.549 316.68C212.549 316.68 219.329 323.1 219.329 332.88C219.329 342.6 212.609 349.08 202.289 349.08C195.089 349.08 187.829 345.96 184.949 339.54L191.549 335.82C193.409 340.02 197.309 342.06 201.869 342.06C208.049 342.06 211.769 338.4 211.769 332.88C211.769 327.3 207.749 323.7 201.989 323.7C197.729 323.7 194.969 325.68 193.349 329.22H186.449L189.509 299.22H217.589V306.24H195.989L194.369 320.58C196.649 318 200.129 316.68 203.549 316.68ZM231.329 331.668C227.909 331.668 225.173 329.328 225.173 325.152V322.488C225.173 318.384 227.909 316.008 231.329 316.008C234.713 316.008 237.485 318.384 237.485 322.488V325.152C237.485 329.328 234.713 331.668 231.329 331.668ZM232.121 345.492H229.169L249.041 316.548H252.029L232.121 345.492ZM231.329 329.436C233.453 329.436 235.109 327.96 235.109 325.044V322.596C235.109 319.752 233.453 318.24 231.329 318.24C229.205 318.24 227.585 319.752 227.585 322.596V325.044C227.585 327.924 229.205 329.436 231.329 329.436ZM249.581 346.032C246.161 346.032 243.425 343.692 243.425 339.516V336.852C243.425 332.748 246.161 330.372 249.581 330.372C252.965 330.372 255.737 332.748 255.737 336.852V339.516C255.737 343.692 252.965 346.032 249.581 346.032ZM249.581 343.8C251.705 343.8 253.361 342.324 253.361 339.408V336.96C253.361 334.116 251.705 332.604 249.581 332.604C247.457 332.604 245.837 334.116 245.837 336.96V339.408C245.837 342.324 247.457 343.8 249.581 343.8Z" fill="#171717"/>
<path d="M193.183 248.81V256.16H197.773V258.14H193.183V269.84H191.023V248.81H193.183ZM182.833 250.31H184.933V264.44H171.973V250.31H174.073V255.26H182.833V250.31ZM174.073 257.15V262.52H182.833V257.15H174.073ZM175.933 268.22H178.093V274.52H194.743V276.5H175.933V268.22ZM221.42 259.64V248.81H223.52V276.5H221.42V261.62H217.13V275.99H215.06V249.26H217.13V259.64H221.42ZM203.06 269.93H204.53C207.2 269.93 209.81 269.75 212.75 269.3L212.99 271.22C210.23 271.7 207.53 271.88 204.2 271.88H200.9V251.03H211.1V253.01H203.06V269.93Z" fill="#171717"/>
<path d="M520.91 267.08L510.79 259.04C508.99 262.32 505.91 265.12 501.59 267.88L500.19 265.56C506.31 261.56 509.87 257.32 509.87 251.6H501.43V249H509.87V243.8H512.67V249H521.23V251.6H512.67C512.67 253.36 512.43 254.96 511.91 256.48L522.51 264.84L520.91 267.08ZM529.87 244.08V254.64H535.99V257.28H529.87V272.48H527.03V244.08H529.87ZM506.87 270.56H509.75V278.36H531.95V280.96H506.87V270.56ZM569.84 264.28H567V254.08H558.28V251.52H567V244.12H569.84V264.28ZM560.08 263.4L549.56 255.92C547.72 258.92 544.72 261.56 540.56 263.96L539.08 261.64C545.52 257.84 548.96 253.56 548.96 247.8V245.4H551.8V247.8C551.8 249.84 551.48 251.72 550.8 253.48L561.6 261.12L560.08 263.4ZM554 266.52H561.76C567.2 266.52 570.4 269.8 570.4 273.96C570.4 278.16 567.2 281.36 561.76 281.36H554C548.56 281.36 545.36 278.16 545.36 273.96C545.36 269.8 548.56 266.52 554 266.52ZM554.56 278.8H561.2C565.48 278.8 567.52 276.72 567.52 273.92C567.52 271.24 565.48 269.08 561.2 269.08H554.56C550.28 269.08 548.2 271.24 548.2 273.92C548.2 276.72 550.28 278.8 554.56 278.8Z" fill="#171717"/>
</svg>
